<?xml version="1.0" encoding="UTF-8" standalone="no"?>
<!-- Created with Inkscape (http://www.inkscape.org/) -->

<svg
   width="252.33046mm"
   height="61.970016mm"
   viewBox="0 0 252.33046 61.970016"
   version="1.1"
   id="svg1"
   inkscape:version="1.3.1 (9b9bdc1480, 2023-11-25, custom)"
   sodipodi:docname="cloudbuild-logo-white-transperant.svg"
   xmlns:inkscape="http://www.inkscape.org/namespaces/inkscape"
   xmlns:sodipodi="http://sodipodi.sourceforge.net/DTD/sodipodi-0.dtd"
   xmlns="http://www.w3.org/2000/svg"
   xmlns:svg="http://www.w3.org/2000/svg">
  <sodipodi:namedview
     id="namedview1"
     pagecolor="#ffffff"
     bordercolor="#000000"
     borderopacity="0.25"
     inkscape:showpageshadow="2"
     inkscape:pageopacity="0.0"
     inkscape:pagecheckerboard="true"
     inkscape:deskcolor="#d1d1d1"
     inkscape:document-units="mm"
     inkscape:zoom="1.0595392"
     inkscape:cx="495.49842"
     inkscape:cy="109.00965"
     inkscape:window-width="1665"
     inkscape:window-height="1041"
     inkscape:window-x="0"
     inkscape:window-y="0"
     inkscape:window-maximized="1"
     inkscape:current-layer="layer1" />
  <defs
     id="defs1">
    <inkscape:path-effect
       effect="powerclip"
       id="path-effect26"
       is_visible="true"
       lpeversion="1"
       inverse="true"
       flatten="false"
       hide_clip="false"
       message="Use fill-rule evenodd on &lt;b&gt;fill and stroke&lt;/b&gt; dialog if no flatten result after convert clip to paths." />
    <inkscape:path-effect
       effect="powerclip"
       id="path-effect21"
       is_visible="true"
       lpeversion="1"
       inverse="true"
       flatten="false"
       hide_clip="false"
       message="Use fill-rule evenodd on &lt;b&gt;fill and stroke&lt;/b&gt; dialog if no flatten result after convert clip to paths." />
    <clipPath
       id="aad028d88b">
      <path
         d="m 595,85 h 39 v 98 h -39 z m 0,0"
         clip-rule="nonzero"
         id="path192" />
    </clipPath>
    <clipPath
       id="41feba3122">
      <path
         d="m 585.0625,91.234375 41.0625,-7.191406 16.47656,94.070311 -41.0625,7.19141 z m 0,0"
         clip-rule="nonzero"
         id="path193" />
    </clipPath>
    <clipPath
       id="d16516ff4c">
      <path
         d="m 585.0625,91.234375 41.0625,-7.191406 16.47656,94.070311 -41.0625,7.19141 z m 0,0"
         clip-rule="nonzero"
         id="path194" />
    </clipPath>
    <clipPath
       id="0b8cda79cb">
      <path
         d="m 585.07031,91.269531 40.95313,-7.171875 16.41015,93.683594 -40.95703,7.17578 z m 0,0"
         clip-rule="nonzero"
         id="path195" />
    </clipPath>
    <clipPath
       id="a877b7de06">
      <path
         d="m 585.07031,91.269531 40.89063,-7.160156 16.40234,93.656245 -40.89062,7.16016 z m 0,0"
         clip-rule="nonzero"
         id="path196" />
    </clipPath>
    <clipPath
       id="aad028d88b-3">
      <path
         d="m 595,85 h 39 v 98 h -39 z m 0,0"
         clip-rule="nonzero"
         id="path192-6" />
    </clipPath>
    <clipPath
       id="41feba3122-9">
      <path
         d="m 585.0625,91.234375 41.0625,-7.191406 16.47656,94.070311 -41.0625,7.19141 z m 0,0"
         clip-rule="nonzero"
         id="path193-8" />
    </clipPath>
    <clipPath
       id="d16516ff4c-8">
      <path
         d="m 585.0625,91.234375 41.0625,-7.191406 16.47656,94.070311 -41.0625,7.19141 z m 0,0"
         clip-rule="nonzero"
         id="path194-9" />
    </clipPath>
    <clipPath
       id="0b8cda79cb-1">
      <path
         d="m 585.07031,91.269531 40.95313,-7.171875 16.41015,93.683594 -40.95703,7.17578 z m 0,0"
         clip-rule="nonzero"
         id="path195-5" />
    </clipPath>
    <clipPath
       id="a877b7de06-7">
      <path
         d="m 585.07031,91.269531 40.89063,-7.160156 16.40234,93.656245 -40.89062,7.16016 z m 0,0"
         clip-rule="nonzero"
         id="path196-9" />
    </clipPath>
    <clipPath
       clipPathUnits="userSpaceOnUse"
       id="clipPath17">
      <g
         clip-path="url(#aad028d88b-3)"
         id="g21"
         transform="matrix(1.0721798,0,0,0.9974536,-43.007616,0.21893989)"
         style="display:none">
        <g
           clip-path="url(#41feba3122-9)"
           id="g20">
          <g
             clip-path="url(#d16516ff4c-8)"
             id="g19">
            <g
               clip-path="url(#0b8cda79cb-1)"
               id="g18">
              <g
                 clip-path="url(#a877b7de06-7)"
                 id="g17">
                <path
                   fill="#f12930"
                   d="m 613.99819,86.758662 -18.15835,66.014778 16.89844,-2.85157 1.29688,32.80469 19.83593,-53.45312 -17.25,2.47656 -2.6229,-44.991338"
                   fill-opacity="1"
                   fill-rule="nonzero"
                   id="path17"
                   sodipodi:nodetypes="ccccccc" />
              </g>
            </g>
          </g>
        </g>
      </g>
      <path
         id="lpe_path-effect21"
         class="powerclip"
         d="M 610.42245,70.65627 H 713.25057 V 195.51565 H 610.42245 Z m 3.57574,16.102392 -18.15835,66.014778 16.89844,-2.85157 1.29688,32.80469 19.83593,-53.45312 -17.25,2.47656 -2.6229,-44.991338" />
    </clipPath>
    <clipPath
       clipPathUnits="userSpaceOnUse"
       id="clipPath21">
      <g
         clip-path="url(#aad028d88b)"
         id="g26"
         transform="matrix(1.0721798,0,0,0.9974536,-43.007616,0.21893989)"
         style="display:none">
        <g
           clip-path="url(#41feba3122)"
           id="g25">
          <g
             clip-path="url(#d16516ff4c)"
             id="g24">
            <g
               clip-path="url(#0b8cda79cb)"
               id="g23">
              <g
                 clip-path="url(#a877b7de06)"
                 id="g22">
                <path
                   fill="#f12930"
                   d="m 613.99819,86.758662 -18.15835,66.014778 15.61994,-3.95487 2.57538,33.90799 19.83593,-53.45312 -17.25,2.47656 -2.6229,-44.991338"
                   fill-opacity="1"
                   fill-rule="nonzero"
                   id="path21"
                   sodipodi:nodetypes="ccccccc" />
              </g>
            </g>
          </g>
        </g>
      </g>
      <path
         id="lpe_path-effect26"
         class="powerclip"
         d="M 514.54115,70.65627 H 617.36928 V 195.51565 H 514.54115 Z m 99.45704,16.102392 -18.15835,66.014778 15.61994,-3.95487 2.57538,33.90799 19.83593,-53.45312 -17.25,2.47656 -2.6229,-44.991338" />
    </clipPath>
  </defs>
  <g
     inkscape:label="Layer 1"
     inkscape:groupmode="layer"
     id="layer1"
     transform="translate(78.845835,-49.477083)">
    <g
       fill="#ffffff"
       fill-opacity="1"
       id="g201"
       transform="matrix(0.35277777,0,0,0.35277777,-161.29109,26.133108)">
      <g
         transform="translate(229.57809,189.14065)"
         id="g200">
        <g
           id="g199">
          <path
             d="m 51.6875,1.375 c -9.179688,0 -17.386719,-1.832031 -24.625,-5.5 C 19.832031,-7.800781 14.203125,-12.898438 10.171875,-19.421875 6.140625,-25.953125 4.125,-33.34375 4.125,-41.59375 c 0,-8.257812 2.015625,-15.625 6.046875,-22.09375 4.03125,-6.476562 9.660156,-11.523438 16.890625,-15.140625 7.238281,-3.625 15.445312,-5.4375 24.625,-5.4375 9.382812,0 17.488281,2.015625 24.3125,6.046875 6.832031,4.023438 11.675781,9.601562 14.53125,16.734375 l -22.46875,11.46875 c -3.773438,-7.4375 -9.277344,-11.15625 -16.515625,-11.15625 -5.210937,0 -9.523437,1.734375 -12.9375,5.203125 -3.40625,3.460938 -5.109375,8.25 -5.109375,14.375 0,6.21875 1.703125,11.089844 5.109375,14.609375 3.414063,3.511719 7.726563,5.265625 12.9375,5.265625 7.238281,0 12.742187,-3.71875 16.515625,-11.15625 l 22.46875,11.46875 C 87.675781,-14.269531 82.832031,-8.6875 76,-4.65625 69.175781,-0.632812 61.070312,1.375 51.6875,1.375 Z m 0,0"
             id="path199" />
        </g>
      </g>
    </g>
    <g
       fill="#ffffff"
       fill-opacity="1"
       id="g204"
       transform="matrix(0.35277777,0,0,0.35277777,-161.29109,26.133108)">
      <g
         transform="translate(306.19655,189.14065)"
         id="g203">
        <g
           id="g202">
          <path
             d="m 9.328125,-113.48438 h 29.0625 V 0 h -29.0625 z m 0,0"
             id="path201" />
        </g>
      </g>
    </g>
    <g
       fill="#ffffff"
       fill-opacity="1"
       id="g207"
       transform="matrix(0.35277777,0,0,0.35277777,-161.29109,26.133108)">
      <g
         transform="translate(338.46499,189.14065)"
         id="g206">
        <g
           id="g205">
          <path
             d="m 50.921875,1.375 c -8.867187,0 -16.867187,-1.832031 -24,-5.5 -7.136719,-3.675781 -12.71875,-8.773438 -16.75,-15.296875 C 6.140625,-25.953125 4.125,-33.34375 4.125,-41.59375 c 0,-8.15625 2.015625,-15.492188 6.046875,-22.015625 4.03125,-6.53125 9.585937,-11.601563 16.671875,-15.21875 7.082031,-3.625 15.109375,-5.4375 24.078125,-5.4375 8.976563,0 17.035156,1.8125 24.171875,5.4375 7.132812,3.617187 12.691406,8.664063 16.671875,15.140625 3.976563,6.46875 5.96875,13.835938 5.96875,22.09375 0,8.25 -1.992187,15.640625 -5.96875,22.171875 -3.980469,6.523437 -9.539063,11.621094 -16.671875,15.296875 -7.136719,3.667969 -15.195312,5.5 -24.171875,5.5 z m 0,-23.09375 c 5.101563,0 9.285156,-1.753906 12.546875,-5.265625 3.257812,-3.519531 4.890625,-8.390625 4.890625,-14.609375 0,-6.125 -1.632813,-10.914062 -4.890625,-14.375 -3.261719,-3.46875 -7.445312,-5.203125 -12.546875,-5.203125 -5.09375,0 -9.273437,1.734375 -12.53125,5.203125 -3.261719,3.460938 -4.890625,8.25 -4.890625,14.375 0,6.21875 1.628906,11.089844 4.890625,14.609375 3.257813,3.511719 7.4375,5.265625 12.53125,5.265625 z m 0,0"
             id="path204" />
        </g>
      </g>
    </g>
    <g
       fill="#ffffff"
       fill-opacity="1"
       id="g210"
       transform="matrix(0.35277777,0,0,0.35277777,-161.29109,26.133108)">
      <g
         transform="translate(424.71807,189.14065)"
         id="g209">
        <g
           id="g208">
          <path
             d="M 96.5,-82.890625 V 0 H 68.828125 V -8.875 C 65.765625,-5.507812 62.09375,-2.957031 57.8125,-1.21875 53.53125,0.507812 48.992188,1.375 44.203125,1.375 c -10.710937,0 -19.25,-3.160156 -25.625,-9.484375 -6.375,-6.320313 -9.5625,-15.800781 -9.5625,-28.4375 v -46.34375 h 29.0625 v 41.59375 c 0,6.21875 1.171875,10.757813 3.515625,13.609375 2.34375,2.855469 5.757812,4.28125 10.25,4.28125 4.59375,0 8.34375,-1.601562 11.25,-4.8125 2.90625,-3.207031 4.359375,-8.125 4.359375,-14.75 v -39.921875 z m 0,0"
             id="path207" />
        </g>
      </g>
    </g>
    <g
       fill="#ffffff"
       fill-opacity="1"
       id="g213"
       transform="matrix(0.35277777,0,0,0.35277777,-161.29109,26.133108)"
       clip-path="url(#clipPath21)"
       inkscape:path-effect="#path-effect26">
      <g
         transform="translate(514.9474,189.14065)"
         id="g212">
        <g
           id="g211">
          <path
             d="M 97.421875,-113.48438 V 0 h -27.6875 V -8.265625 C 64.335938,-1.835938 56.234375,1.375 45.421875,1.375 37.878906,1.375 31,-0.378906 24.78125,-3.890625 18.5625,-7.410156 13.640625,-12.429688 10.015625,-18.953125 6.398438,-25.484375 4.59375,-33.03125 4.59375,-41.59375 c 0,-8.570312 1.804688,-16.09375 5.421875,-22.5625 3.625,-6.476562 8.546875,-11.445312 14.765625,-14.90625 6.21875,-3.46875 13.097656,-5.203125 20.640625,-5.203125 9.882813,0 17.53125,2.855469 22.9375,8.5625 v -37.781255 z m -45.875,91.76563 c 4.988281,0 9.113281,-1.753906 12.375,-5.265625 3.269531,-3.519531 4.90625,-8.390625 4.90625,-14.609375 0,-6.125 -1.609375,-10.914062 -4.828125,-14.375 -3.210938,-3.46875 -7.359375,-5.203125 -12.453125,-5.203125 -5.105469,0 -9.289063,1.734375 -12.546875,5.203125 -3.261719,3.460938 -4.890625,8.25 -4.890625,14.375 0,6.21875 1.628906,11.089844 4.890625,14.609375 3.257812,3.511719 7.441406,5.265625 12.546875,5.265625 z m 0,0"
             id="path210"
             inkscape:original-d="M 97.421875,-113.48438 V 0 h -27.6875 V -8.265625 C 64.335938,-1.835938 56.234375,1.375 45.421875,1.375 37.878906,1.375 31,-0.378906 24.78125,-3.890625 18.5625,-7.410156 13.640625,-12.429688 10.015625,-18.953125 6.398438,-25.484375 4.59375,-33.03125 4.59375,-41.59375 c 0,-8.570312 1.804688,-16.09375 5.421875,-22.5625 3.625,-6.476562 8.546875,-11.445312 14.765625,-14.90625 6.21875,-3.46875 13.097656,-5.203125 20.640625,-5.203125 9.882813,0 17.53125,2.855469 22.9375,8.5625 v -37.781255 z m -45.875,91.76563 c 4.988281,0 9.113281,-1.753906 12.375,-5.265625 3.269531,-3.519531 4.90625,-8.390625 4.90625,-14.609375 0,-6.125 -1.609375,-10.914062 -4.828125,-14.375 -3.210938,-3.46875 -7.359375,-5.203125 -12.453125,-5.203125 -5.105469,0 -9.289063,1.734375 -12.546875,5.203125 -3.261719,3.460938 -4.890625,8.25 -4.890625,14.375 0,6.21875 1.628906,11.089844 4.890625,14.609375 3.257812,3.511719 7.441406,5.265625 12.546875,5.265625 z m 0,0" />
        </g>
      </g>
    </g>
    <g
       fill="#ffffff"
       fill-opacity="1"
       id="g216"
       transform="matrix(0.35277777,0,0,0.35277777,-161.29109,26.133108)"
       clip-path="url(#clipPath17)"
       inkscape:path-effect="#path-effect21">
      <g
         transform="translate(606.09432,189.14065)"
         id="g215">
        <g
           id="g214">
          <path
             d="m 61.484375,-84.265625 c 7.539063,0 14.394531,1.734375 20.5625,5.203125 6.164063,3.460938 11.054687,8.429688 14.671875,14.90625 3.625,6.46875 5.4375,13.992188 5.4375,22.5625 0,8.5625 -1.8125,16.109375 -5.4375,22.640625 -3.617188,6.523437 -8.507812,11.542969 -14.671875,15.0625 C 75.878906,-0.378906 69.023438,1.375 61.484375,1.375 50.566406,1.375 42.410156,-1.835938 37.015625,-8.265625 V 0 h -27.6875 v -113.48438 h 29.0625 v 37.781255 c 5.601563,-5.707031 13.300781,-8.5625 23.09375,-8.5625 z m -6.125,62.546875 c 5.101563,0 9.285156,-1.753906 12.546875,-5.265625 3.257812,-3.519531 4.890625,-8.390625 4.890625,-14.609375 0,-6.125 -1.632813,-10.914062 -4.890625,-14.375 -3.261719,-3.46875 -7.445312,-5.203125 -12.546875,-5.203125 -5.09375,0 -9.277344,1.734375 -12.546875,5.203125 -3.261719,3.460938 -4.890625,8.25 -4.890625,14.375 0,6.21875 1.628906,11.089844 4.890625,14.609375 3.269531,3.511719 7.453125,5.265625 12.546875,5.265625 z m 0,0"
             id="path213"
             inkscape:original-d="m 61.484375,-84.265625 c 7.539063,0 14.394531,1.734375 20.5625,5.203125 6.164063,3.460938 11.054687,8.429688 14.671875,14.90625 3.625,6.46875 5.4375,13.992188 5.4375,22.5625 0,8.5625 -1.8125,16.109375 -5.4375,22.640625 -3.617188,6.523437 -8.507812,11.542969 -14.671875,15.0625 C 75.878906,-0.378906 69.023438,1.375 61.484375,1.375 50.566406,1.375 42.410156,-1.835938 37.015625,-8.265625 V 0 h -27.6875 v -113.48438 h 29.0625 v 37.781255 c 5.601563,-5.707031 13.300781,-8.5625 23.09375,-8.5625 z m -6.125,62.546875 c 5.101563,0 9.285156,-1.753906 12.546875,-5.265625 3.257812,-3.519531 4.890625,-8.390625 4.890625,-14.609375 0,-6.125 -1.632813,-10.914062 -4.890625,-14.375 -3.261719,-3.46875 -7.445312,-5.203125 -12.546875,-5.203125 -5.09375,0 -9.277344,1.734375 -12.546875,5.203125 -3.261719,3.460938 -4.890625,8.25 -4.890625,14.375 0,6.21875 1.628906,11.089844 4.890625,14.609375 3.269531,3.511719 7.453125,5.265625 12.546875,5.265625 z m 0,0" />
        </g>
      </g>
    </g>
    <g
       fill="#ffffff"
       fill-opacity="1"
       id="g219"
       transform="matrix(0.35277777,0,0,0.35277777,-161.29109,26.133108)">
      <g
         transform="translate(696.78242,189.14065)"
         id="g218">
        <g
           id="g217">
          <path
             d="M 96.5,-82.890625 V 0 H 68.828125 V -8.875 C 65.765625,-5.507812 62.09375,-2.957031 57.8125,-1.21875 53.53125,0.507812 48.992188,1.375 44.203125,1.375 c -10.710937,0 -19.25,-3.160156 -25.625,-9.484375 -6.375,-6.320313 -9.5625,-15.800781 -9.5625,-28.4375 v -46.34375 h 29.0625 v 41.59375 c 0,6.21875 1.171875,10.757813 3.515625,13.609375 2.34375,2.855469 5.757812,4.28125 10.25,4.28125 4.59375,0 8.34375,-1.601562 11.25,-4.8125 2.90625,-3.207031 4.359375,-8.125 4.359375,-14.75 v -39.921875 z m 0,0"
             id="path216" />
        </g>
      </g>
    </g>
    <g
       fill="#ffffff"
       fill-opacity="1"
       id="g222"
       transform="matrix(0.35277777,0,0,0.35277777,-161.29109,26.133108)">
      <g
         transform="translate(787.01176,189.14065)"
         id="g221">
        <g
           id="g220">
          <path
             d="m 9.328125,-82.890625 h 29.0625 V 0 h -29.0625 z m 14.53125,-9.171875 c -5.304687,0 -9.589844,-1.476562 -12.859375,-4.4375 -3.261719,-2.957031 -4.890625,-6.62891 -4.890625,-11.01563 0,-4.38281 1.628906,-8.05468 4.890625,-11.01562 3.269531,-2.95703 7.554688,-4.4375 12.859375,-4.4375 5.300781,0 9.582031,1.40625 12.84375,4.21875 3.257813,2.80469 4.890625,6.39844 4.890625,10.78125 0,4.58594 -1.632812,8.382812 -4.890625,11.390625 -3.261719,3.011719 -7.542969,4.515625 -12.84375,4.515625 z m 0,0"
             id="path219" />
        </g>
      </g>
    </g>
    <g
       fill="#ffffff"
       fill-opacity="1"
       id="g225"
       transform="matrix(0.35277777,0,0,0.35277777,-161.29109,26.133108)">
      <g
         transform="translate(819.28021,189.14065)"
         id="g224">
        <g
           id="g223">
          <path
             d="m 9.328125,-113.48438 h 29.0625 V 0 h -29.0625 z m 0,0"
             id="path222" />
        </g>
      </g>
    </g>
    <g
       fill="#ffffff"
       fill-opacity="1"
       id="g228"
       transform="matrix(0.35277777,0,0,0.35277777,-161.29109,26.133108)">
      <g
         transform="translate(851.54867,189.14065)"
         id="g227">
        <g
           id="g226">
          <path
             d="M 97.421875,-113.48438 V 0 h -27.6875 V -8.265625 C 64.335938,-1.835938 56.234375,1.375 45.421875,1.375 37.878906,1.375 31,-0.378906 24.78125,-3.890625 18.5625,-7.410156 13.640625,-12.429688 10.015625,-18.953125 6.398438,-25.484375 4.59375,-33.03125 4.59375,-41.59375 c 0,-8.570312 1.804688,-16.09375 5.421875,-22.5625 3.625,-6.476562 8.546875,-11.445312 14.765625,-14.90625 6.21875,-3.46875 13.097656,-5.203125 20.640625,-5.203125 9.882813,0 17.53125,2.855469 22.9375,8.5625 v -37.781255 z m -45.875,91.76563 c 4.988281,0 9.113281,-1.753906 12.375,-5.265625 3.269531,-3.519531 4.90625,-8.390625 4.90625,-14.609375 0,-6.125 -1.609375,-10.914062 -4.828125,-14.375 -3.210938,-3.46875 -7.359375,-5.203125 -12.453125,-5.203125 -5.105469,0 -9.289063,1.734375 -12.546875,5.203125 -3.261719,3.460938 -4.890625,8.25 -4.890625,14.375 0,6.21875 1.628906,11.089844 4.890625,14.609375 3.257812,3.511719 7.441406,5.265625 12.546875,5.265625 z m 0,0"
             id="path225" />
        </g>
      </g>
    </g>
    <g
       fill="#ffffff"
       fill-opacity="1"
       id="g236"
       transform="matrix(0.35277777,0,0,0.35277777,-161.29109,26.133108)">
      <g
         transform="translate(363.11288,241.3701)"
         id="g235">
        <g
           id="g234">
          <path
             d="m 11.265625,0.464844 c 4.835937,0 8.707031,-2.75 8.707031,-7.355469 0,-4.449219 -3.753906,-6.386719 -8.089844,-7.933594 -3.171874,-1.125 -6.347656,-2.285156 -6.347656,-5.496093 0,-2.75 2.75,-4.105469 5.574219,-4.105469 2.476563,0 4.566406,0.699219 6.695313,2.207031 l 1.160156,-1.933594 c -2.515625,-1.859375 -5.03125,-2.632812 -7.972656,-2.632812 -4.257813,0 -8.050782,2.4375 -8.050782,6.578125 0,4.414062 4.140625,6.351562 8.011719,7.703125 3.445313,1.203125 6.464844,2.480468 6.464844,5.730468 0,3.136719 -2.863281,4.875 -6.152344,4.875 -3.019531,0 -5.769531,-1.042968 -7.742187,-2.824218 l -1.316407,2.011718 c 2.246094,1.898438 5.496094,3.175782 9.058594,3.175782 z m 0,0"
             id="path233" />
        </g>
      </g>
    </g>
    <g
       fill="#ffffff"
       fill-opacity="1"
       id="g239"
       transform="matrix(0.35277777,0,0,0.35277777,-161.29109,26.133108)">
      <g
         transform="translate(416.03265,241.3701)"
         id="g238">
        <g
           id="g237">
          <path
             d="m 15.523438,0.464844 c 7.894531,0 13.351562,-6.15625 13.351562,-13.664063 0,-7.820312 -5.457031,-13.585937 -13.351562,-13.585937 -7.78125,0 -13.316407,5.765625 -13.316407,13.585937 0,7.507813 5.535157,13.664063 13.316407,13.664063 z m 0,-2.363282 c -6.386719,0 -10.761719,-5.070312 -10.761719,-11.300781 0,-6.503906 4.375,-11.226562 10.761719,-11.226562 6.460937,0 10.796874,4.722656 10.796874,11.226562 0,6.230469 -4.335937,11.300781 -10.796874,11.300781 z m 0,0"
             id="path236" />
        </g>
      </g>
    </g>
    <g
       fill="#ffffff"
       fill-opacity="1"
       id="g242"
       transform="matrix(0.35277777,0,0,0.35277777,-161.29109,26.133108)">
      <g
         transform="translate(478.08667,241.3701)"
         id="g241">
        <g
           id="g240">
          <path
             d="m 3.871094,0 h 15.25 V -2.324219 H 6.425781 V -26.320312 H 3.871094 Z m 0,0"
             id="path239" />
        </g>
      </g>
    </g>
    <g
       fill="#ffffff"
       fill-opacity="1"
       id="g245"
       transform="matrix(0.35277777,0,0,0.35277777,-161.29109,26.133108)">
      <g
         transform="translate(529.34215,241.3701)"
         id="g244">
        <g
           id="g243">
          <path
             d="m 13.664062,0.464844 c 5.496094,0 10.023438,-3.289063 10.023438,-9.484375 v -17.300781 h -2.554688 v 17.261718 c 0,4.839844 -3.09375,7.199219 -7.46875,7.199219 -4.453124,0 -7.546874,-2.359375 -7.546874,-7.199219 V -26.320312 H 3.5625 v 17.300781 c 0,6.195312 4.527344,9.484375 10.101562,9.484375 z m 0,0"
             id="path242" />
        </g>
      </g>
    </g>
    <g
       fill="#ffffff"
       fill-opacity="1"
       id="g248"
       transform="matrix(0.35277777,0,0,0.35277777,-161.29109,26.133108)">
      <g
         transform="translate(587.56442,241.3701)"
         id="g247">
        <g
           id="g246">
          <path
             d="M 19.625,-26.320312 H 0.890625 V -24 H 8.980469 V 0 h 2.554687 V -24 H 19.625 Z m 0,0"
             id="path245" />
        </g>
      </g>
    </g>
    <g
       fill="#ffffff"
       fill-opacity="1"
       id="g251"
       transform="matrix(0.35277777,0,0,0.35277777,-161.29109,26.133108)">
      <g
         transform="translate(639.05213,241.3701)"
         id="g250">
        <g
           id="g249">
          <path
             d="M 3.871094,0 H 6.425781 V -26.320312 H 3.871094 Z m 0,0"
             id="path248" />
        </g>
      </g>
    </g>
    <g
       fill="#ffffff"
       fill-opacity="1"
       id="g254"
       transform="matrix(0.35277777,0,0,0.35277777,-161.29109,26.133108)">
      <g
         transform="translate(680.32187,241.3701)"
         id="g253">
        <g
           id="g252">
          <path
             d="m 15.523438,0.464844 c 7.894531,0 13.351562,-6.15625 13.351562,-13.664063 0,-7.820312 -5.457031,-13.585937 -13.351562,-13.585937 -7.78125,0 -13.316407,5.765625 -13.316407,13.585937 0,7.507813 5.535157,13.664063 13.316407,13.664063 z m 0,-2.363282 c -6.386719,0 -10.761719,-5.070312 -10.761719,-11.300781 0,-6.503906 4.375,-11.226562 10.761719,-11.226562 6.460937,0 10.796874,4.722656 10.796874,11.226562 0,6.230469 -4.335937,11.300781 -10.796874,11.300781 z m 0,0"
             id="path251" />
        </g>
      </g>
    </g>
    <g
       fill="#ffffff"
       fill-opacity="1"
       id="g257"
       transform="matrix(0.35277777,0,0,0.35277777,-161.29109,26.133108)">
      <g
         transform="translate(742.3759,241.3701)"
         id="g256">
        <g
           id="g255">
          <path
             d="m 23.148438,-26.320312 v 18.460937 c 0,0.851563 0,1.78125 0.07422,2.75 -0.65625,-0.773437 -1.3125,-1.507813 -1.933594,-2.207031 L 4.953125,-26.515625 H 3.871094 V 0 h 2.554687 v -18.734375 c 0,-0.890625 -0.039062,-1.703125 -0.117187,-2.515625 0.660156,0.734375 1.316406,1.46875 1.898437,2.167969 L 24.578125,0.195312 h 1.125 v -26.515624 z m 0,0"
             id="path254" />
        </g>
      </g>
    </g>
    <g
       fill="#ffffff"
       fill-opacity="1"
       id="g260"
       transform="matrix(0.35277777,0,0,0.35277777,-161.29109,26.133108)">
      <g
         transform="translate(802.92042,241.3701)"
         id="g259">
        <g
           id="g258">
          <path
             d="m 11.265625,0.464844 c 4.835937,0 8.707031,-2.75 8.707031,-7.355469 0,-4.449219 -3.753906,-6.386719 -8.089844,-7.933594 -3.171874,-1.125 -6.347656,-2.285156 -6.347656,-5.496093 0,-2.75 2.75,-4.105469 5.574219,-4.105469 2.476563,0 4.566406,0.699219 6.695313,2.207031 l 1.160156,-1.933594 c -2.515625,-1.859375 -5.03125,-2.632812 -7.972656,-2.632812 -4.257813,0 -8.050782,2.4375 -8.050782,6.578125 0,4.414062 4.140625,6.351562 8.011719,7.703125 3.445313,1.203125 6.464844,2.480468 6.464844,5.730468 0,3.136719 -2.863281,4.875 -6.152344,4.875 -3.019531,0 -5.769531,-1.042968 -7.742187,-2.824218 l -1.316407,2.011718 c 2.246094,1.898438 5.496094,3.175782 9.058594,3.175782 z m 0,0"
             id="path257" />
        </g>
      </g>
    </g>
  </g>
</svg>
