<svg xmlns="http://www.w3.org/2000/svg" xmlns:xlink="http://www.w3.org/1999/xlink" width="1584" zoomAndPan="magnify" viewBox="0 0 1188 296.999993" height="396" preserveAspectRatio="xMidYMid meet" version="1.0"><defs><g/><radialGradient gradientTransform="matrix(1, 0, 0, 1, 0.000014, 0)" gradientUnits="userSpaceOnUse" r="612.281191" cx="593.999986" id="c3d6c8917d" cy="148.499997" fx="593.999986" fy="148.499997"><stop stop-opacity="1" stop-color="rgb(99.862671%, 19.12384%, 19.184875%)" offset="0"/><stop stop-opacity="1" stop-color="rgb(99.658203%, 19.010925%, 19.165039%)" offset="0.0078125"/><stop stop-opacity="1" stop-color="rgb(99.520874%, 18.936157%, 19.151306%)" offset="0.0117188"/><stop stop-opacity="1" stop-color="rgb(99.385071%, 18.861389%, 19.137573%)" offset="0.015625"/><stop stop-opacity="1" stop-color="rgb(99.249268%, 18.786621%, 19.12384%)" offset="0.0195312"/><stop stop-opacity="1" stop-color="rgb(99.111938%, 18.711853%, 19.110107%)" offset="0.0234375"/><stop stop-opacity="1" stop-color="rgb(98.976135%, 18.635559%, 19.096375%)" offset="0.0273438"/><stop stop-opacity="1" stop-color="rgb(98.840332%, 18.560791%, 19.082642%)" offset="0.03125"/><stop stop-opacity="1" stop-color="rgb(98.703003%, 18.486023%, 19.068909%)" offset="0.0351562"/><stop stop-opacity="1" stop-color="rgb(98.5672%, 18.411255%, 19.055176%)" offset="0.0390625"/><stop stop-opacity="1" stop-color="rgb(98.431396%, 18.336487%, 19.041443%)" offset="0.0429688"/><stop stop-opacity="1" stop-color="rgb(98.294067%, 18.261719%, 19.02771%)" offset="0.046875"/><stop stop-opacity="1" stop-color="rgb(98.158264%, 18.185425%, 19.013977%)" offset="0.0507812"/><stop stop-opacity="1" stop-color="rgb(98.022461%, 18.110657%, 19.000244%)" offset="0.0546875"/><stop stop-opacity="1" stop-color="rgb(97.885132%, 18.035889%, 18.986511%)" offset="0.0585938"/><stop stop-opacity="1" stop-color="rgb(97.749329%, 17.961121%, 18.972778%)" offset="0.0625"/><stop stop-opacity="1" stop-color="rgb(97.613525%, 17.886353%, 18.959045%)" offset="0.0664062"/><stop stop-opacity="1" stop-color="rgb(97.476196%, 17.811584%, 18.945312%)" offset="0.0703125"/><stop stop-opacity="1" stop-color="rgb(97.340393%, 17.736816%, 18.93158%)" offset="0.0742188"/><stop stop-opacity="1" stop-color="rgb(97.20459%, 17.660522%, 18.917847%)" offset="0.078125"/><stop stop-opacity="1" stop-color="rgb(97.067261%, 17.585754%, 18.904114%)" offset="0.0820312"/><stop stop-opacity="1" stop-color="rgb(96.931458%, 17.510986%, 18.890381%)" offset="0.0859375"/><stop stop-opacity="1" stop-color="rgb(96.795654%, 17.436218%, 18.876648%)" offset="0.0898438"/><stop stop-opacity="1" stop-color="rgb(96.658325%, 17.36145%, 18.862915%)" offset="0.09375"/><stop stop-opacity="1" stop-color="rgb(96.522522%, 17.286682%, 18.849182%)" offset="0.0976562"/><stop stop-opacity="1" stop-color="rgb(96.386719%, 17.210388%, 18.835449%)" offset="0.101562"/><stop stop-opacity="1" stop-color="rgb(96.24939%, 17.13562%, 18.823242%)" offset="0.105469"/><stop stop-opacity="1" stop-color="rgb(96.113586%, 17.060852%, 18.809509%)" offset="0.109375"/><stop stop-opacity="1" stop-color="rgb(95.977783%, 16.986084%, 18.795776%)" offset="0.113281"/><stop stop-opacity="1" stop-color="rgb(95.840454%, 16.911316%, 18.782043%)" offset="0.117188"/><stop stop-opacity="1" stop-color="rgb(95.704651%, 16.836548%, 18.768311%)" offset="0.121094"/><stop stop-opacity="1" stop-color="rgb(95.567322%, 16.76178%, 18.754578%)" offset="0.125"/><stop stop-opacity="1" stop-color="rgb(95.431519%, 16.685486%, 18.740845%)" offset="0.128906"/><stop stop-opacity="1" stop-color="rgb(95.295715%, 16.610718%, 18.727112%)" offset="0.132812"/><stop stop-opacity="1" stop-color="rgb(95.158386%, 16.53595%, 18.713379%)" offset="0.136719"/><stop stop-opacity="1" stop-color="rgb(95.022583%, 16.461182%, 18.699646%)" offset="0.140625"/><stop stop-opacity="1" stop-color="rgb(94.88678%, 16.386414%, 18.685913%)" offset="0.144531"/><stop stop-opacity="1" stop-color="rgb(94.749451%, 16.311646%, 18.67218%)" offset="0.148438"/><stop stop-opacity="1" stop-color="rgb(94.613647%, 16.235352%, 18.658447%)" offset="0.152344"/><stop stop-opacity="1" stop-color="rgb(94.477844%, 16.160583%, 18.644714%)" offset="0.15625"/><stop stop-opacity="1" stop-color="rgb(94.340515%, 16.085815%, 18.630981%)" offset="0.160156"/><stop stop-opacity="1" stop-color="rgb(94.204712%, 16.011047%, 18.617249%)" offset="0.164062"/><stop stop-opacity="1" stop-color="rgb(94.068909%, 15.936279%, 18.603516%)" offset="0.167969"/><stop stop-opacity="1" stop-color="rgb(93.93158%, 15.861511%, 18.589783%)" offset="0.171875"/><stop stop-opacity="1" stop-color="rgb(93.795776%, 15.786743%, 18.57605%)" offset="0.175781"/><stop stop-opacity="1" stop-color="rgb(93.659973%, 15.710449%, 18.562317%)" offset="0.179688"/><stop stop-opacity="1" stop-color="rgb(93.522644%, 15.635681%, 18.548584%)" offset="0.183594"/><stop stop-opacity="1" stop-color="rgb(93.386841%, 15.560913%, 18.534851%)" offset="0.1875"/><stop stop-opacity="1" stop-color="rgb(93.251038%, 15.486145%, 18.521118%)" offset="0.191406"/><stop stop-opacity="1" stop-color="rgb(93.113708%, 15.411377%, 18.507385%)" offset="0.195312"/><stop stop-opacity="1" stop-color="rgb(92.977905%, 15.336609%, 18.493652%)" offset="0.199219"/><stop stop-opacity="1" stop-color="rgb(92.842102%, 15.261841%, 18.481445%)" offset="0.203125"/><stop stop-opacity="1" stop-color="rgb(92.704773%, 15.185547%, 18.467712%)" offset="0.207031"/><stop stop-opacity="1" stop-color="rgb(92.56897%, 15.110779%, 18.453979%)" offset="0.210938"/><stop stop-opacity="1" stop-color="rgb(92.433167%, 15.036011%, 18.440247%)" offset="0.214844"/><stop stop-opacity="1" stop-color="rgb(92.295837%, 14.961243%, 18.426514%)" offset="0.21875"/><stop stop-opacity="1" stop-color="rgb(92.160034%, 14.886475%, 18.412781%)" offset="0.222656"/><stop stop-opacity="1" stop-color="rgb(92.024231%, 14.811707%, 18.399048%)" offset="0.226562"/><stop stop-opacity="1" stop-color="rgb(91.886902%, 14.735413%, 18.385315%)" offset="0.230469"/><stop stop-opacity="1" stop-color="rgb(91.751099%, 14.660645%, 18.371582%)" offset="0.234375"/><stop stop-opacity="1" stop-color="rgb(91.615295%, 14.585876%, 18.357849%)" offset="0.238281"/><stop stop-opacity="1" stop-color="rgb(91.477966%, 14.511108%, 18.344116%)" offset="0.242188"/><stop stop-opacity="1" stop-color="rgb(91.342163%, 14.43634%, 18.330383%)" offset="0.246094"/><stop stop-opacity="1" stop-color="rgb(91.204834%, 14.361572%, 18.31665%)" offset="0.25"/><stop stop-opacity="1" stop-color="rgb(91.000366%, 14.248657%, 18.296814%)" offset="0.253906"/><stop stop-opacity="1" stop-color="rgb(90.72876%, 14.099121%, 18.269348%)" offset="0.261719"/><stop stop-opacity="1" stop-color="rgb(90.455627%, 13.949585%, 18.241882%)" offset="0.269531"/><stop stop-opacity="1" stop-color="rgb(90.182495%, 13.798523%, 18.214417%)" offset="0.277344"/><stop stop-opacity="1" stop-color="rgb(89.910889%, 13.648987%, 18.186951%)" offset="0.285156"/><stop stop-opacity="1" stop-color="rgb(89.637756%, 13.499451%, 18.159485%)" offset="0.292969"/><stop stop-opacity="1" stop-color="rgb(89.364624%, 13.348389%, 18.132019%)" offset="0.300781"/><stop stop-opacity="1" stop-color="rgb(89.093018%, 13.198853%, 18.106079%)" offset="0.308594"/><stop stop-opacity="1" stop-color="rgb(88.819885%, 13.049316%, 18.078613%)" offset="0.316406"/><stop stop-opacity="1" stop-color="rgb(88.546753%, 12.898254%, 18.051147%)" offset="0.324219"/><stop stop-opacity="1" stop-color="rgb(88.275146%, 12.748718%, 18.023682%)" offset="0.332031"/><stop stop-opacity="1" stop-color="rgb(88.002014%, 12.599182%, 17.996216%)" offset="0.339844"/><stop stop-opacity="1" stop-color="rgb(87.728882%, 12.449646%, 17.96875%)" offset="0.347656"/><stop stop-opacity="1" stop-color="rgb(87.457275%, 12.298584%, 17.941284%)" offset="0.355469"/><stop stop-opacity="1" stop-color="rgb(87.184143%, 12.149048%, 17.913818%)" offset="0.363281"/><stop stop-opacity="1" stop-color="rgb(86.911011%, 11.999512%, 17.886353%)" offset="0.371094"/><stop stop-opacity="1" stop-color="rgb(86.637878%, 11.84845%, 17.858887%)" offset="0.378906"/><stop stop-opacity="1" stop-color="rgb(86.366272%, 11.698914%, 17.831421%)" offset="0.386719"/><stop stop-opacity="1" stop-color="rgb(86.09314%, 11.549377%, 17.803955%)" offset="0.394531"/><stop stop-opacity="1" stop-color="rgb(85.820007%, 11.398315%, 17.778015%)" offset="0.402344"/><stop stop-opacity="1" stop-color="rgb(85.548401%, 11.248779%, 17.750549%)" offset="0.410156"/><stop stop-opacity="1" stop-color="rgb(85.275269%, 11.099243%, 17.723083%)" offset="0.417969"/><stop stop-opacity="1" stop-color="rgb(85.002136%, 10.949707%, 17.695618%)" offset="0.425781"/><stop stop-opacity="1" stop-color="rgb(84.73053%, 10.798645%, 17.668152%)" offset="0.433594"/><stop stop-opacity="1" stop-color="rgb(84.457397%, 10.649109%, 17.640686%)" offset="0.441406"/><stop stop-opacity="1" stop-color="rgb(84.184265%, 10.499573%, 17.61322%)" offset="0.449219"/><stop stop-opacity="1" stop-color="rgb(83.912659%, 10.348511%, 17.585754%)" offset="0.457031"/><stop stop-opacity="1" stop-color="rgb(83.639526%, 10.198975%, 17.558289%)" offset="0.464844"/><stop stop-opacity="1" stop-color="rgb(83.366394%, 10.049438%, 17.530823%)" offset="0.472656"/><stop stop-opacity="1" stop-color="rgb(83.094788%, 9.898376%, 17.503357%)" offset="0.480469"/><stop stop-opacity="1" stop-color="rgb(82.821655%, 9.74884%, 17.475891%)" offset="0.488281"/><stop stop-opacity="1" stop-color="rgb(82.548523%, 9.599304%, 17.448425%)" offset="0.496094"/><stop stop-opacity="1" stop-color="rgb(82.344055%, 9.486389%, 17.428589%)" offset="0.503906"/><stop stop-opacity="1" stop-color="rgb(82.208252%, 9.411621%, 17.414856%)" offset="0.507812"/><stop stop-opacity="1" stop-color="rgb(82.070923%, 9.336853%, 17.401123%)" offset="0.511719"/><stop stop-opacity="1" stop-color="rgb(81.93512%, 9.260559%, 17.38739%)" offset="0.515625"/><stop stop-opacity="1" stop-color="rgb(81.799316%, 9.185791%, 17.373657%)" offset="0.519531"/><stop stop-opacity="1" stop-color="rgb(81.661987%, 9.111023%, 17.359924%)" offset="0.523438"/><stop stop-opacity="1" stop-color="rgb(81.526184%, 9.036255%, 17.346191%)" offset="0.527344"/><stop stop-opacity="1" stop-color="rgb(81.390381%, 8.961487%, 17.332458%)" offset="0.53125"/><stop stop-opacity="1" stop-color="rgb(81.253052%, 8.886719%, 17.318726%)" offset="0.535156"/><stop stop-opacity="1" stop-color="rgb(81.117249%, 8.810425%, 17.304993%)" offset="0.539062"/><stop stop-opacity="1" stop-color="rgb(80.981445%, 8.735657%, 17.29126%)" offset="0.542969"/><stop stop-opacity="1" stop-color="rgb(80.844116%, 8.660889%, 17.277527%)" offset="0.546875"/><stop stop-opacity="1" stop-color="rgb(80.708313%, 8.586121%, 17.263794%)" offset="0.550781"/><stop stop-opacity="1" stop-color="rgb(80.57251%, 8.511353%, 17.250061%)" offset="0.554688"/><stop stop-opacity="1" stop-color="rgb(80.435181%, 8.436584%, 17.236328%)" offset="0.558594"/><stop stop-opacity="1" stop-color="rgb(80.299377%, 8.361816%, 17.222595%)" offset="0.5625"/><stop stop-opacity="1" stop-color="rgb(80.163574%, 8.285522%, 17.208862%)" offset="0.566406"/><stop stop-opacity="1" stop-color="rgb(80.026245%, 8.210754%, 17.195129%)" offset="0.570312"/><stop stop-opacity="1" stop-color="rgb(79.890442%, 8.135986%, 17.181396%)" offset="0.574219"/><stop stop-opacity="1" stop-color="rgb(79.754639%, 8.061218%, 17.167664%)" offset="0.578125"/><stop stop-opacity="1" stop-color="rgb(79.61731%, 7.98645%, 17.153931%)" offset="0.582031"/><stop stop-opacity="1" stop-color="rgb(79.481506%, 7.911682%, 17.140198%)" offset="0.585938"/><stop stop-opacity="1" stop-color="rgb(79.345703%, 7.835388%, 17.126465%)" offset="0.589844"/><stop stop-opacity="1" stop-color="rgb(79.208374%, 7.76062%, 17.114258%)" offset="0.59375"/><stop stop-opacity="1" stop-color="rgb(79.072571%, 7.685852%, 17.100525%)" offset="0.597656"/><stop stop-opacity="1" stop-color="rgb(78.936768%, 7.611084%, 17.086792%)" offset="0.601562"/><stop stop-opacity="1" stop-color="rgb(78.799438%, 7.536316%, 17.073059%)" offset="0.605469"/><stop stop-opacity="1" stop-color="rgb(78.663635%, 7.461548%, 17.059326%)" offset="0.609375"/><stop stop-opacity="1" stop-color="rgb(78.526306%, 7.38678%, 17.045593%)" offset="0.613281"/><stop stop-opacity="1" stop-color="rgb(78.390503%, 7.310486%, 17.03186%)" offset="0.617188"/><stop stop-opacity="1" stop-color="rgb(78.2547%, 7.235718%, 17.018127%)" offset="0.621094"/><stop stop-opacity="1" stop-color="rgb(78.117371%, 7.16095%, 17.004395%)" offset="0.625"/><stop stop-opacity="1" stop-color="rgb(77.912903%, 7.049561%, 16.984558%)" offset="0.628906"/><stop stop-opacity="1" stop-color="rgb(77.641296%, 6.898499%, 16.957092%)" offset="0.636719"/><stop stop-opacity="1" stop-color="rgb(77.368164%, 6.748962%, 16.929626%)" offset="0.644531"/><stop stop-opacity="1" stop-color="rgb(77.095032%, 6.599426%, 16.902161%)" offset="0.652344"/><stop stop-opacity="1" stop-color="rgb(76.823425%, 6.448364%, 16.874695%)" offset="0.660156"/><stop stop-opacity="1" stop-color="rgb(76.550293%, 6.298828%, 16.847229%)" offset="0.667969"/><stop stop-opacity="1" stop-color="rgb(76.277161%, 6.149292%, 16.819763%)" offset="0.675781"/><stop stop-opacity="1" stop-color="rgb(76.005554%, 5.999756%, 16.792297%)" offset="0.683594"/><stop stop-opacity="1" stop-color="rgb(75.732422%, 5.848694%, 16.764832%)" offset="0.691406"/><stop stop-opacity="1" stop-color="rgb(75.45929%, 5.699158%, 16.738892%)" offset="0.699219"/><stop stop-opacity="1" stop-color="rgb(75.187683%, 5.549622%, 16.711426%)" offset="0.707031"/><stop stop-opacity="1" stop-color="rgb(74.914551%, 5.39856%, 16.68396%)" offset="0.714844"/><stop stop-opacity="1" stop-color="rgb(74.641418%, 5.249023%, 16.656494%)" offset="0.722656"/><stop stop-opacity="1" stop-color="rgb(74.368286%, 5.099487%, 16.629028%)" offset="0.730469"/><stop stop-opacity="1" stop-color="rgb(74.09668%, 4.948425%, 16.601562%)" offset="0.738281"/><stop stop-opacity="1" stop-color="rgb(73.823547%, 4.798889%, 16.574097%)" offset="0.746094"/><stop stop-opacity="1" stop-color="rgb(73.61908%, 4.685974%, 16.552734%)" offset="0.753906"/><stop stop-opacity="1" stop-color="rgb(73.483276%, 4.611206%, 16.539001%)" offset="0.757812"/><stop stop-opacity="1" stop-color="rgb(73.345947%, 4.536438%, 16.525269%)" offset="0.761719"/><stop stop-opacity="1" stop-color="rgb(73.210144%, 4.46167%, 16.511536%)" offset="0.765625"/><stop stop-opacity="1" stop-color="rgb(73.074341%, 4.385376%, 16.497803%)" offset="0.769531"/><stop stop-opacity="1" stop-color="rgb(72.937012%, 4.310608%, 16.48407%)" offset="0.773438"/><stop stop-opacity="1" stop-color="rgb(72.801208%, 4.23584%, 16.470337%)" offset="0.777344"/><stop stop-opacity="1" stop-color="rgb(72.665405%, 4.161072%, 16.456604%)" offset="0.78125"/><stop stop-opacity="1" stop-color="rgb(72.528076%, 4.086304%, 16.442871%)" offset="0.785156"/><stop stop-opacity="1" stop-color="rgb(72.392273%, 4.011536%, 16.430664%)" offset="0.789062"/><stop stop-opacity="1" stop-color="rgb(72.25647%, 3.936768%, 16.416931%)" offset="0.792969"/><stop stop-opacity="1" stop-color="rgb(72.119141%, 3.860474%, 16.403198%)" offset="0.796875"/><stop stop-opacity="1" stop-color="rgb(71.983337%, 3.785706%, 16.389465%)" offset="0.800781"/><stop stop-opacity="1" stop-color="rgb(71.847534%, 3.710938%, 16.375732%)" offset="0.804688"/><stop stop-opacity="1" stop-color="rgb(71.710205%, 3.636169%, 16.362%)" offset="0.808594"/><stop stop-opacity="1" stop-color="rgb(71.574402%, 3.561401%, 16.348267%)" offset="0.8125"/><stop stop-opacity="1" stop-color="rgb(71.369934%, 3.448486%, 16.32843%)" offset="0.816406"/><stop stop-opacity="1" stop-color="rgb(71.096802%, 3.29895%, 16.300964%)" offset="0.824219"/><stop stop-opacity="1" stop-color="rgb(70.825195%, 3.149414%, 16.273499%)" offset="0.832031"/><stop stop-opacity="1" stop-color="rgb(70.552063%, 2.998352%, 16.246033%)" offset="0.839844"/><stop stop-opacity="1" stop-color="rgb(70.278931%, 2.848816%, 16.218567%)" offset="0.847656"/><stop stop-opacity="1" stop-color="rgb(70.005798%, 2.69928%, 16.191101%)" offset="0.855469"/><stop stop-opacity="1" stop-color="rgb(69.734192%, 2.549744%, 16.163635%)" offset="0.863281"/><stop stop-opacity="1" stop-color="rgb(69.46106%, 2.398682%, 16.136169%)" offset="0.871094"/><stop stop-opacity="1" stop-color="rgb(69.256592%, 2.285767%, 16.114807%)" offset="0.878906"/><stop stop-opacity="1" stop-color="rgb(69.120789%, 2.210999%, 16.101074%)" offset="0.882812"/><stop stop-opacity="1" stop-color="rgb(68.983459%, 2.13623%, 16.088867%)" offset="0.886719"/><stop stop-opacity="1" stop-color="rgb(68.847656%, 2.061462%, 16.075134%)" offset="0.890625"/><stop stop-opacity="1" stop-color="rgb(68.711853%, 1.986694%, 16.061401%)" offset="0.894531"/><stop stop-opacity="1" stop-color="rgb(68.574524%, 1.9104%, 16.047668%)" offset="0.898438"/><stop stop-opacity="1" stop-color="rgb(68.438721%, 1.835632%, 16.033936%)" offset="0.902344"/><stop stop-opacity="1" stop-color="rgb(68.302917%, 1.760864%, 16.020203%)" offset="0.90625"/><stop stop-opacity="1" stop-color="rgb(68.09845%, 1.649475%, 16.000366%)" offset="0.910156"/><stop stop-opacity="1" stop-color="rgb(67.825317%, 1.498413%, 15.9729%)" offset="0.917969"/><stop stop-opacity="1" stop-color="rgb(67.552185%, 1.348877%, 15.945435%)" offset="0.925781"/><stop stop-opacity="1" stop-color="rgb(67.280579%, 1.199341%, 15.917969%)" offset="0.933594"/><stop stop-opacity="1" stop-color="rgb(67.076111%, 1.086426%, 15.896606%)" offset="0.941406"/><stop stop-opacity="1" stop-color="rgb(66.938782%, 1.011658%, 15.882874%)" offset="0.945312"/><stop stop-opacity="1" stop-color="rgb(66.802979%, 0.935364%, 15.869141%)" offset="0.949219"/><stop stop-opacity="1" stop-color="rgb(66.667175%, 0.860596%, 15.855408%)" offset="0.953125"/><stop stop-opacity="1" stop-color="rgb(66.462708%, 0.749207%, 15.835571%)" offset="0.957031"/><stop stop-opacity="1" stop-color="rgb(66.189575%, 0.59967%, 15.808105%)" offset="0.964844"/><stop stop-opacity="1" stop-color="rgb(65.985107%, 0.486755%, 15.786743%)" offset="0.972656"/><stop stop-opacity="1" stop-color="rgb(65.849304%, 0.410461%, 15.77301%)" offset="0.976562"/><stop stop-opacity="1" stop-color="rgb(65.643311%, 0.299072%, 15.753174%)" offset="0.980469"/><stop stop-opacity="1" stop-color="rgb(65.438843%, 0.186157%, 15.733337%)" offset="0.988281"/><stop stop-opacity="1" stop-color="rgb(65.234375%, 0.0747681%, 15.713501%)" offset="0.992188"/><stop stop-opacity="1" stop-color="rgb(65.098572%, 0%, 15.699768%)" offset="1"/></radialGradient><clipPath id="aad028d88b"><path d="M 595 85 L 634 85 L 634 183 L 595 183 Z M 595 85 " clip-rule="nonzero"/></clipPath><clipPath id="41feba3122"><path d="M 585.0625 91.234375 L 626.125 84.042969 L 642.601562 178.113281 L 601.539062 185.304688 Z M 585.0625 91.234375 " clip-rule="nonzero"/></clipPath><clipPath id="d16516ff4c"><path d="M 585.0625 91.234375 L 626.125 84.042969 L 642.601562 178.113281 L 601.539062 185.304688 Z M 585.0625 91.234375 " clip-rule="nonzero"/></clipPath><clipPath id="0b8cda79cb"><path d="M 585.070312 91.269531 L 626.023438 84.097656 L 642.433594 177.78125 L 601.476562 184.957031 Z M 585.070312 91.269531 " clip-rule="nonzero"/></clipPath><clipPath id="a877b7de06"><path d="M 585.070312 91.269531 L 625.960938 84.109375 L 642.363281 177.765625 L 601.472656 184.925781 Z M 585.070312 91.269531 " clip-rule="nonzero"/></clipPath><clipPath id="f978c87095"><path d="M 0 0 L 275.445312 0 L 275.445312 229 L 0 229 Z M 0 0 " clip-rule="nonzero"/></clipPath><clipPath id="0d0069e1ec"><path d="M 916.589844 69.746094 L 1188 69.746094 L 1188 297 L 916.589844 297 Z M 916.589844 69.746094 " clip-rule="nonzero"/></clipPath></defs><rect x="-118.8" width="1425.6" fill="#ffffff" y="-29.699999" height="356.399992" fill-opacity="1"/><rect x="-118.8" fill="url(#c3d6c8917d)" width="1425.6" y="-29.699999" height="356.399992"/><g fill="#ffffff" fill-opacity="1"><g transform="translate(229.57809, 189.14065)"><g><path d="M 51.6875 1.375 C 42.507812 1.375 34.300781 -0.457031 27.0625 -4.125 C 19.832031 -7.800781 14.203125 -12.898438 10.171875 -19.421875 C 6.140625 -25.953125 4.125 -33.34375 4.125 -41.59375 C 4.125 -49.851562 6.140625 -57.21875 10.171875 -63.6875 C 14.203125 -70.164062 19.832031 -75.210938 27.0625 -78.828125 C 34.300781 -82.453125 42.507812 -84.265625 51.6875 -84.265625 C 61.070312 -84.265625 69.175781 -82.25 76 -78.21875 C 82.832031 -74.195312 87.675781 -68.617188 90.53125 -61.484375 L 68.0625 -50.015625 C 64.289062 -57.453125 58.785156 -61.171875 51.546875 -61.171875 C 46.335938 -61.171875 42.023438 -59.4375 38.609375 -55.96875 C 35.203125 -52.507812 33.5 -47.71875 33.5 -41.59375 C 33.5 -35.375 35.203125 -30.503906 38.609375 -26.984375 C 42.023438 -23.472656 46.335938 -21.71875 51.546875 -21.71875 C 58.785156 -21.71875 64.289062 -25.4375 68.0625 -32.875 L 90.53125 -21.40625 C 87.675781 -14.269531 82.832031 -8.6875 76 -4.65625 C 69.175781 -0.632812 61.070312 1.375 51.6875 1.375 Z M 51.6875 1.375 "/></g></g></g><g fill="#ffffff" fill-opacity="1"><g transform="translate(306.196548, 189.14065)"><g><path d="M 9.328125 -113.484375 L 38.390625 -113.484375 L 38.390625 0 L 9.328125 0 Z M 9.328125 -113.484375 "/></g></g></g><g fill="#ffffff" fill-opacity="1"><g transform="translate(338.464988, 189.14065)"><g><path d="M 50.921875 1.375 C 42.054688 1.375 34.054688 -0.457031 26.921875 -4.125 C 19.785156 -7.800781 14.203125 -12.898438 10.171875 -19.421875 C 6.140625 -25.953125 4.125 -33.34375 4.125 -41.59375 C 4.125 -49.75 6.140625 -57.085938 10.171875 -63.609375 C 14.203125 -70.140625 19.757812 -75.210938 26.84375 -78.828125 C 33.925781 -82.453125 41.953125 -84.265625 50.921875 -84.265625 C 59.898438 -84.265625 67.957031 -82.453125 75.09375 -78.828125 C 82.226562 -75.210938 87.785156 -70.164062 91.765625 -63.6875 C 95.742188 -57.21875 97.734375 -49.851562 97.734375 -41.59375 C 97.734375 -33.34375 95.742188 -25.953125 91.765625 -19.421875 C 87.785156 -12.898438 82.226562 -7.800781 75.09375 -4.125 C 67.957031 -0.457031 59.898438 1.375 50.921875 1.375 Z M 50.921875 -21.71875 C 56.023438 -21.71875 60.207031 -23.472656 63.46875 -26.984375 C 66.726562 -30.503906 68.359375 -35.375 68.359375 -41.59375 C 68.359375 -47.71875 66.726562 -52.507812 63.46875 -55.96875 C 60.207031 -59.4375 56.023438 -61.171875 50.921875 -61.171875 C 45.828125 -61.171875 41.648438 -59.4375 38.390625 -55.96875 C 35.128906 -52.507812 33.5 -47.71875 33.5 -41.59375 C 33.5 -35.375 35.128906 -30.503906 38.390625 -26.984375 C 41.648438 -23.472656 45.828125 -21.71875 50.921875 -21.71875 Z M 50.921875 -21.71875 "/></g></g></g><g fill="#ffffff" fill-opacity="1"><g transform="translate(424.718073, 189.14065)"><g><path d="M 96.5 -82.890625 L 96.5 0 L 68.828125 0 L 68.828125 -8.875 C 65.765625 -5.507812 62.09375 -2.957031 57.8125 -1.21875 C 53.53125 0.507812 48.992188 1.375 44.203125 1.375 C 33.492188 1.375 24.953125 -1.785156 18.578125 -8.109375 C 12.203125 -14.429688 9.015625 -23.910156 9.015625 -36.546875 L 9.015625 -82.890625 L 38.078125 -82.890625 L 38.078125 -41.296875 C 38.078125 -35.078125 39.25 -30.539062 41.59375 -27.6875 C 43.9375 -24.832031 47.351562 -23.40625 51.84375 -23.40625 C 56.4375 -23.40625 60.1875 -25.007812 63.09375 -28.21875 C 66 -31.425781 67.453125 -36.34375 67.453125 -42.96875 L 67.453125 -82.890625 Z M 96.5 -82.890625 "/></g></g></g><g fill="#ffffff" fill-opacity="1"><g transform="translate(514.947399, 189.14065)"><g><path d="M 97.421875 -113.484375 L 97.421875 0 L 69.734375 0 L 69.734375 -8.265625 C 64.335938 -1.835938 56.234375 1.375 45.421875 1.375 C 37.878906 1.375 31 -0.378906 24.78125 -3.890625 C 18.5625 -7.410156 13.640625 -12.429688 10.015625 -18.953125 C 6.398438 -25.484375 4.59375 -33.03125 4.59375 -41.59375 C 4.59375 -50.164062 6.398438 -57.6875 10.015625 -64.15625 C 13.640625 -70.632812 18.5625 -75.601562 24.78125 -79.0625 C 31 -82.53125 37.878906 -84.265625 45.421875 -84.265625 C 55.304688 -84.265625 62.953125 -81.410156 68.359375 -75.703125 L 68.359375 -113.484375 Z M 51.546875 -21.71875 C 56.535156 -21.71875 60.660156 -23.472656 63.921875 -26.984375 C 67.191406 -30.503906 68.828125 -35.375 68.828125 -41.59375 C 68.828125 -47.71875 67.21875 -52.507812 64 -55.96875 C 60.789062 -59.4375 56.640625 -61.171875 51.546875 -61.171875 C 46.441406 -61.171875 42.257812 -59.4375 39 -55.96875 C 35.738281 -52.507812 34.109375 -47.71875 34.109375 -41.59375 C 34.109375 -35.375 35.738281 -30.503906 39 -26.984375 C 42.257812 -23.472656 46.441406 -21.71875 51.546875 -21.71875 Z M 51.546875 -21.71875 "/></g></g></g><g fill="#ffffff" fill-opacity="1"><g transform="translate(606.094317, 189.14065)"><g><path d="M 61.484375 -84.265625 C 69.023438 -84.265625 75.878906 -82.53125 82.046875 -79.0625 C 88.210938 -75.601562 93.101562 -70.632812 96.71875 -64.15625 C 100.34375 -57.6875 102.15625 -50.164062 102.15625 -41.59375 C 102.15625 -33.03125 100.34375 -25.484375 96.71875 -18.953125 C 93.101562 -12.429688 88.210938 -7.410156 82.046875 -3.890625 C 75.878906 -0.378906 69.023438 1.375 61.484375 1.375 C 50.566406 1.375 42.410156 -1.835938 37.015625 -8.265625 L 37.015625 0 L 9.328125 0 L 9.328125 -113.484375 L 38.390625 -113.484375 L 38.390625 -75.703125 C 43.992188 -81.410156 51.691406 -84.265625 61.484375 -84.265625 Z M 55.359375 -21.71875 C 60.460938 -21.71875 64.644531 -23.472656 67.90625 -26.984375 C 71.164062 -30.503906 72.796875 -35.375 72.796875 -41.59375 C 72.796875 -47.71875 71.164062 -52.507812 67.90625 -55.96875 C 64.644531 -59.4375 60.460938 -61.171875 55.359375 -61.171875 C 50.265625 -61.171875 46.082031 -59.4375 42.8125 -55.96875 C 39.550781 -52.507812 37.921875 -47.71875 37.921875 -41.59375 C 37.921875 -35.375 39.550781 -30.503906 42.8125 -26.984375 C 46.082031 -23.472656 50.265625 -21.71875 55.359375 -21.71875 Z M 55.359375 -21.71875 "/></g></g></g><g fill="#ffffff" fill-opacity="1"><g transform="translate(696.782417, 189.14065)"><g><path d="M 96.5 -82.890625 L 96.5 0 L 68.828125 0 L 68.828125 -8.875 C 65.765625 -5.507812 62.09375 -2.957031 57.8125 -1.21875 C 53.53125 0.507812 48.992188 1.375 44.203125 1.375 C 33.492188 1.375 24.953125 -1.785156 18.578125 -8.109375 C 12.203125 -14.429688 9.015625 -23.910156 9.015625 -36.546875 L 9.015625 -82.890625 L 38.078125 -82.890625 L 38.078125 -41.296875 C 38.078125 -35.078125 39.25 -30.539062 41.59375 -27.6875 C 43.9375 -24.832031 47.351562 -23.40625 51.84375 -23.40625 C 56.4375 -23.40625 60.1875 -25.007812 63.09375 -28.21875 C 66 -31.425781 67.453125 -36.34375 67.453125 -42.96875 L 67.453125 -82.890625 Z M 96.5 -82.890625 "/></g></g></g><g fill="#ffffff" fill-opacity="1"><g transform="translate(787.011757, 189.14065)"><g><path d="M 9.328125 -82.890625 L 38.390625 -82.890625 L 38.390625 0 L 9.328125 0 Z M 23.859375 -92.0625 C 18.554688 -92.0625 14.269531 -93.539062 11 -96.5 C 7.738281 -99.457031 6.109375 -103.128906 6.109375 -107.515625 C 6.109375 -111.898438 7.738281 -115.570312 11 -118.53125 C 14.269531 -121.488281 18.554688 -122.96875 23.859375 -122.96875 C 29.160156 -122.96875 33.441406 -121.5625 36.703125 -118.75 C 39.960938 -115.945312 41.59375 -112.351562 41.59375 -107.96875 C 41.59375 -103.382812 39.960938 -99.585938 36.703125 -96.578125 C 33.441406 -93.566406 29.160156 -92.0625 23.859375 -92.0625 Z M 23.859375 -92.0625 "/></g></g></g><g fill="#ffffff" fill-opacity="1"><g transform="translate(819.280212, 189.14065)"><g><path d="M 9.328125 -113.484375 L 38.390625 -113.484375 L 38.390625 0 L 9.328125 0 Z M 9.328125 -113.484375 "/></g></g></g><g fill="#ffffff" fill-opacity="1"><g transform="translate(851.548666, 189.14065)"><g><path d="M 97.421875 -113.484375 L 97.421875 0 L 69.734375 0 L 69.734375 -8.265625 C 64.335938 -1.835938 56.234375 1.375 45.421875 1.375 C 37.878906 1.375 31 -0.378906 24.78125 -3.890625 C 18.5625 -7.410156 13.640625 -12.429688 10.015625 -18.953125 C 6.398438 -25.484375 4.59375 -33.03125 4.59375 -41.59375 C 4.59375 -50.164062 6.398438 -57.6875 10.015625 -64.15625 C 13.640625 -70.632812 18.5625 -75.601562 24.78125 -79.0625 C 31 -82.53125 37.878906 -84.265625 45.421875 -84.265625 C 55.304688 -84.265625 62.953125 -81.410156 68.359375 -75.703125 L 68.359375 -113.484375 Z M 51.546875 -21.71875 C 56.535156 -21.71875 60.660156 -23.472656 63.921875 -26.984375 C 67.191406 -30.503906 68.828125 -35.375 68.828125 -41.59375 C 68.828125 -47.71875 67.21875 -52.507812 64 -55.96875 C 60.789062 -59.4375 56.640625 -61.171875 51.546875 -61.171875 C 46.441406 -61.171875 42.257812 -59.4375 39 -55.96875 C 35.738281 -52.507812 34.109375 -47.71875 34.109375 -41.59375 C 34.109375 -35.375 35.738281 -30.503906 39 -26.984375 C 42.257812 -23.472656 46.441406 -21.71875 51.546875 -21.71875 Z M 51.546875 -21.71875 "/></g></g></g><g clip-path="url(#aad028d88b)"><g clip-path="url(#41feba3122)"><g clip-path="url(#d16516ff4c)"><g clip-path="url(#0b8cda79cb)"><g clip-path="url(#a877b7de06)"><path fill="#f12930" d="M 615.257812 85.980469 L 595.839844 152.773438 L 612.738281 149.921875 L 614.035156 182.726562 L 633.871094 129.273438 L 616.621094 131.75 L 615.257812 85.980469 " fill-opacity="1" fill-rule="nonzero"/></g></g></g></g></g><g fill="#ffffff" fill-opacity="1"><g transform="translate(363.112882, 241.370102)"><g><path d="M 11.265625 0.464844 C 16.101562 0.464844 19.972656 -2.285156 19.972656 -6.890625 C 19.972656 -11.339844 16.21875 -13.277344 11.882812 -14.824219 C 8.710938 -15.949219 5.535156 -17.109375 5.535156 -20.320312 C 5.535156 -23.070312 8.285156 -24.425781 11.109375 -24.425781 C 13.585938 -24.425781 15.675781 -23.726562 17.804688 -22.21875 L 18.964844 -24.152344 C 16.449219 -26.011719 13.933594 -26.785156 10.992188 -26.785156 C 6.734375 -26.785156 2.941406 -24.347656 2.941406 -20.207031 C 2.941406 -15.792969 7.082031 -13.855469 10.953125 -12.503906 C 14.398438 -11.300781 17.417969 -10.023438 17.417969 -6.773438 C 17.417969 -3.636719 14.554688 -1.898438 11.265625 -1.898438 C 8.246094 -1.898438 5.496094 -2.941406 3.523438 -4.722656 L 2.207031 -2.710938 C 4.453125 -0.8125 7.703125 0.464844 11.265625 0.464844 Z M 11.265625 0.464844 "/></g></g></g><g fill="#ffffff" fill-opacity="1"><g transform="translate(416.032652, 241.370102)"><g><path d="M 15.523438 0.464844 C 23.417969 0.464844 28.875 -5.691406 28.875 -13.199219 C 28.875 -21.019531 23.417969 -26.785156 15.523438 -26.785156 C 7.742188 -26.785156 2.207031 -21.019531 2.207031 -13.199219 C 2.207031 -5.691406 7.742188 0.464844 15.523438 0.464844 Z M 15.523438 -1.898438 C 9.136719 -1.898438 4.761719 -6.96875 4.761719 -13.199219 C 4.761719 -19.703125 9.136719 -24.425781 15.523438 -24.425781 C 21.984375 -24.425781 26.320312 -19.703125 26.320312 -13.199219 C 26.320312 -6.96875 21.984375 -1.898438 15.523438 -1.898438 Z M 15.523438 -1.898438 "/></g></g></g><g fill="#ffffff" fill-opacity="1"><g transform="translate(478.08667, 241.370102)"><g><path d="M 3.871094 0 L 19.121094 0 L 19.121094 -2.324219 L 6.425781 -2.324219 L 6.425781 -26.320312 L 3.871094 -26.320312 Z M 3.871094 0 "/></g></g></g><g fill="#ffffff" fill-opacity="1"><g transform="translate(529.342148, 241.370102)"><g><path d="M 13.664062 0.464844 C 19.160156 0.464844 23.6875 -2.824219 23.6875 -9.019531 L 23.6875 -26.320312 L 21.132812 -26.320312 L 21.132812 -9.058594 C 21.132812 -4.21875 18.039062 -1.859375 13.664062 -1.859375 C 9.210938 -1.859375 6.117188 -4.21875 6.117188 -9.058594 L 6.117188 -26.320312 L 3.5625 -26.320312 L 3.5625 -9.019531 C 3.5625 -2.824219 8.089844 0.464844 13.664062 0.464844 Z M 13.664062 0.464844 "/></g></g></g><g fill="#ffffff" fill-opacity="1"><g transform="translate(587.56442, 241.370102)"><g><path d="M 19.625 -26.320312 L 0.890625 -26.320312 L 0.890625 -24 L 8.980469 -24 L 8.980469 0 L 11.535156 0 L 11.535156 -24 L 19.625 -24 Z M 19.625 -26.320312 "/></g></g></g><g fill="#ffffff" fill-opacity="1"><g transform="translate(639.052126, 241.370102)"><g><path d="M 3.871094 0 L 6.425781 0 L 6.425781 -26.320312 L 3.871094 -26.320312 Z M 3.871094 0 "/></g></g></g><g fill="#ffffff" fill-opacity="1"><g transform="translate(680.321868, 241.370102)"><g><path d="M 15.523438 0.464844 C 23.417969 0.464844 28.875 -5.691406 28.875 -13.199219 C 28.875 -21.019531 23.417969 -26.785156 15.523438 -26.785156 C 7.742188 -26.785156 2.207031 -21.019531 2.207031 -13.199219 C 2.207031 -5.691406 7.742188 0.464844 15.523438 0.464844 Z M 15.523438 -1.898438 C 9.136719 -1.898438 4.761719 -6.96875 4.761719 -13.199219 C 4.761719 -19.703125 9.136719 -24.425781 15.523438 -24.425781 C 21.984375 -24.425781 26.320312 -19.703125 26.320312 -13.199219 C 26.320312 -6.96875 21.984375 -1.898438 15.523438 -1.898438 Z M 15.523438 -1.898438 "/></g></g></g><g fill="#ffffff" fill-opacity="1"><g transform="translate(742.375898, 241.370102)"><g><path d="M 23.148438 -26.320312 L 23.148438 -7.859375 C 23.148438 -7.007812 23.148438 -6.078125 23.222656 -5.109375 C 22.566406 -5.882812 21.910156 -6.617188 21.289062 -7.316406 L 4.953125 -26.515625 L 3.871094 -26.515625 L 3.871094 0 L 6.425781 0 L 6.425781 -18.734375 C 6.425781 -19.625 6.386719 -20.4375 6.308594 -21.25 C 6.96875 -20.515625 7.625 -19.78125 8.207031 -19.082031 L 24.578125 0.195312 L 25.703125 0.195312 L 25.703125 -26.320312 Z M 23.148438 -26.320312 "/></g></g></g><g fill="#ffffff" fill-opacity="1"><g transform="translate(802.920416, 241.370102)"><g><path d="M 11.265625 0.464844 C 16.101562 0.464844 19.972656 -2.285156 19.972656 -6.890625 C 19.972656 -11.339844 16.21875 -13.277344 11.882812 -14.824219 C 8.710938 -15.949219 5.535156 -17.109375 5.535156 -20.320312 C 5.535156 -23.070312 8.285156 -24.425781 11.109375 -24.425781 C 13.585938 -24.425781 15.675781 -23.726562 17.804688 -22.21875 L 18.964844 -24.152344 C 16.449219 -26.011719 13.933594 -26.785156 10.992188 -26.785156 C 6.734375 -26.785156 2.941406 -24.347656 2.941406 -20.207031 C 2.941406 -15.792969 7.082031 -13.855469 10.953125 -12.503906 C 14.398438 -11.300781 17.417969 -10.023438 17.417969 -6.773438 C 17.417969 -3.636719 14.554688 -1.898438 11.265625 -1.898438 C 8.246094 -1.898438 5.496094 -2.941406 3.523438 -4.722656 L 2.207031 -2.710938 C 4.453125 -0.8125 7.703125 0.464844 11.265625 0.464844 Z M 11.265625 0.464844 "/></g></g></g><g clip-path="url(#f978c87095)"><path fill="#ffffff" d="M 68.824219 -4.777344 C 68.117188 -5.464844 67.046875 -5.464844 66.34375 -4.777344 C 65.652344 -4.070312 65.652344 -3 66.34375 -2.292969 C 66.9375 -1.714844 67.796875 -1.625 68.476562 -2.03125 L 88.148438 17.640625 L 88.148438 29.757812 L 106.652344 48.261719 L 153.480469 48.261719 L 163.914062 37.828125 L 271.824219 37.828125 C 272.023438 38.585938 272.710938 39.152344 273.527344 39.152344 C 274.492188 39.152344 275.289062 38.363281 275.289062 37.394531 C 275.289062 36.429688 274.5 35.636719 273.527344 35.636719 C 272.710938 35.636719 272.023438 36.199219 271.824219 36.957031 L 163.558594 36.957031 L 153.125 47.390625 L 107.011719 47.390625 L 89.019531 29.394531 L 89.019531 17.277344 L 69.089844 -2.652344 C 69.496094 -3.320312 69.410156 -4.179688 68.824219 -4.777344 M -5.8125 15.28125 C -6.777344 15.28125 -7.570312 16.066406 -7.570312 17.039062 C -7.570312 18.003906 -6.78125 18.796875 -5.8125 18.796875 C -4.992188 18.796875 -4.304688 18.230469 -4.109375 17.476562 L 50.941406 17.476562 L 61.730469 28.265625 L 61.730469 52.109375 L 99.585938 89.964844 L 150.519531 89.964844 L 161.382812 100.828125 L 218.515625 100.828125 C 218.710938 101.585938 219.402344 102.152344 220.21875 102.152344 C 221.183594 102.152344 221.976562 101.363281 221.976562 100.390625 C 221.976562 99.425781 221.191406 98.632812 220.21875 98.632812 C 219.402344 98.632812 218.710938 99.199219 218.515625 99.957031 L 161.738281 99.957031 L 150.875 89.09375 L 99.945312 89.09375 L 62.597656 51.746094 L 62.597656 27.902344 L 51.300781 16.601562 L -4.109375 16.601562 C -4.304688 15.839844 -4.992188 15.28125 -5.8125 15.28125 Z M 87.777344 41.664062 C 87.070312 40.976562 86 40.976562 85.292969 41.664062 C 84.605469 42.371094 84.605469 43.441406 85.292969 44.148438 C 85.890625 44.726562 86.75 44.820312 87.425781 44.414062 L 105.957031 62.941406 L 158.71875 62.941406 L 170.152344 51.507812 L 208.066406 51.507812 C 208.261719 52.265625 208.949219 52.828125 209.769531 52.828125 C 210.734375 52.828125 211.527344 52.042969 211.527344 51.070312 C 211.527344 50.105469 210.738281 49.3125 209.769531 49.3125 C 208.949219 49.3125 208.261719 49.878906 208.066406 50.636719 L 169.796875 50.636719 L 158.363281 62.070312 L 106.324219 62.070312 L 88.054688 43.800781 C 88.449219 43.121094 88.355469 42.269531 87.777344 41.664062 Z M 113.949219 34.308594 C 112.984375 34.308594 112.191406 35.09375 112.191406 36.066406 C 112.191406 37.03125 112.976562 37.824219 113.949219 37.824219 C 114.765625 37.824219 115.453125 37.257812 115.652344 36.503906 L 146.960938 36.503906 L 161.308594 22.152344 L 212.164062 22.152344 L 219.992188 14.328125 L 256.800781 14.328125 C 257 15.085938 257.6875 15.648438 258.503906 15.648438 C 259.46875 15.648438 260.261719 14.863281 260.261719 13.890625 C 260.261719 12.925781 259.476562 12.132812 258.503906 12.132812 C 257.6875 12.132812 257 12.699219 256.800781 13.457031 L 219.628906 13.457031 L 211.800781 21.28125 L 160.945312 21.28125 L 146.597656 35.628906 L 115.652344 35.628906 C 115.453125 34.871094 114.765625 34.308594 113.949219 34.308594 Z M 94.675781 -7.238281 C 92.617188 -9.273438 89.339844 -9.273438 87.28125 -7.238281 C 85.246094 -5.175781 85.246094 -1.902344 87.28125 0.160156 C 89.019531 1.878906 91.621094 2.144531 93.628906 0.964844 L 113.136719 20.46875 L 135.949219 20.46875 L 148.644531 7.773438 L 170.597656 7.773438 C 171.179688 10.023438 173.234375 11.695312 175.65625 11.695312 C 178.53125 11.695312 180.882812 9.347656 180.882812 6.472656 C 180.882812 3.59375 178.53125 1.246094 175.65625 1.246094 C 173.226562 1.246094 171.179688 2.917969 170.597656 5.167969 L 147.5625 5.167969 L 134.867188 17.863281 L 114.222656 17.863281 L 95.480469 -0.886719 C 96.660156 -2.890625 96.390625 -5.496094 94.675781 -7.238281 Z M -5.8125 20.304688 C -8.6875 20.304688 -11.035156 22.652344 -11.035156 25.527344 C -11.035156 28.40625 -8.6875 30.753906 -5.8125 30.753906 C -3.382812 30.753906 -1.335938 29.082031 -0.75 26.832031 L 40.78125 26.832031 L 47.726562 33.777344 L 47.726562 55.335938 L 94.183594 101.792969 L 94.183594 132.695312 L 116.960938 155.472656 C 115.78125 157.484375 116.042969 160.085938 117.765625 161.824219 C 119.824219 163.859375 123.101562 163.859375 125.160156 161.824219 C 127.195312 159.765625 127.195312 156.488281 125.160156 154.429688 C 123.421875 152.707031 120.820312 152.441406 118.808594 153.625 L 96.796875 131.609375 L 96.796875 100.707031 L 50.339844 54.25 L 50.339844 32.691406 L 41.863281 24.214844 L -0.75 24.214844 C -1.335938 21.976562 -3.382812 20.304688 -5.8125 20.304688 Z M 185.847656 122.8125 C 186.8125 122.8125 187.605469 122.023438 187.605469 121.054688 C 187.605469 120.089844 186.820312 119.296875 185.847656 119.296875 C 185.03125 119.296875 184.34375 119.863281 184.144531 120.617188 L 161.324219 120.617188 L 147.347656 106.636719 L 106.21875 106.636719 L 106.21875 125.289062 L 122.417969 141.488281 L 141.808594 141.488281 C 142.003906 142.246094 142.691406 142.808594 143.511719 142.808594 C 144.476562 142.808594 145.269531 142.023438 145.269531 141.050781 C 145.269531 140.085938 144.480469 139.292969 143.511719 139.292969 C 142.691406 139.292969 142.003906 139.859375 141.808594 140.613281 L 122.78125 140.613281 L 107.09375 124.925781 L 107.09375 107.511719 L 146.984375 107.511719 L 160.96875 121.492188 L 184.144531 121.492188 C 184.34375 122.246094 185.03125 122.8125 185.847656 122.8125 Z M -5.8125 35.273438 C -6.777344 35.273438 -7.570312 36.058594 -7.570312 37.03125 C -7.570312 37.996094 -6.78125 38.789062 -5.8125 38.789062 C -4.992188 38.789062 -4.304688 38.222656 -4.109375 37.46875 L 31.472656 37.46875 L 35.789062 41.78125 L 35.789062 58.277344 L 16.644531 77.425781 L 16.644531 132.605469 L 39.484375 155.441406 L 39.484375 181.164062 C 38.726562 181.359375 38.160156 182.050781 38.160156 182.867188 C 38.160156 183.832031 38.949219 184.625 39.921875 184.625 C 40.886719 184.625 41.679688 183.835938 41.679688 182.867188 C 41.679688 182.050781 41.113281 181.359375 40.355469 181.164062 L 40.355469 155.078125 L 17.519531 132.242188 L 17.519531 77.78125 L 36.660156 58.640625 L 36.660156 41.421875 L 31.832031 36.589844 L -4.109375 36.589844 C -4.304688 35.839844 -4.992188 35.273438 -5.8125 35.273438 Z M 23.585938 56.664062 C 25.621094 54.605469 25.621094 51.328125 23.585938 49.269531 C 21.527344 47.234375 18.25 47.234375 16.191406 49.269531 C 14.46875 51.011719 14.207031 53.609375 15.386719 55.621094 L 5.640625 65.363281 L 5.640625 141.585938 L 20.542969 156.488281 L 20.542969 195.707031 C 18.292969 196.292969 16.621094 198.347656 16.621094 200.769531 C 16.621094 203.644531 18.96875 205.992188 21.847656 205.992188 C 24.722656 205.992188 27.070312 203.644531 27.070312 200.769531 C 27.070312 198.339844 25.398438 196.292969 23.148438 195.707031 L 23.148438 155.40625 L 8.253906 140.511719 L 8.253906 66.453125 L 17.230469 57.476562 C 19.246094 58.65625 21.851562 58.386719 23.585938 56.664062 Z M 8.582031 155.8125 C 8.582031 154.847656 7.792969 154.054688 6.824219 154.054688 C 5.855469 154.054688 5.0625 154.839844 5.0625 155.8125 C 5.0625 156.628906 5.628906 157.316406 6.386719 157.515625 L 6.386719 187.125 L 0.175781 193.335938 L 0.175781 225.460938 C -0.578125 225.660156 -1.144531 226.347656 -1.144531 227.164062 C -1.144531 228.128906 -0.359375 228.921875 0.613281 228.921875 C 1.578125 228.921875 2.371094 228.136719 2.371094 227.164062 C 2.371094 226.347656 1.804688 225.660156 1.050781 225.460938 L 1.050781 193.691406 L 7.257812 187.484375 L 7.257812 157.515625 C 8.019531 157.316406 8.582031 156.628906 8.582031 155.8125 Z M 45.183594 74.855469 C 44.476562 74.167969 43.40625 74.167969 42.699219 74.855469 C 42.011719 75.5625 42.011719 76.632812 42.699219 77.339844 C 43.296875 77.917969 44.15625 78.007812 44.832031 77.605469 L 75.125 107.898438 L 75.125 137.953125 L 111.445312 174.273438 L 178.140625 174.273438 C 178.335938 175.027344 179.023438 175.59375 179.84375 175.59375 C 180.808594 175.59375 181.601562 174.808594 181.601562 173.835938 C 181.601562 172.871094 180.8125 172.078125 179.84375 172.078125 C 179.023438 172.078125 178.335938 172.644531 178.140625 173.398438 L 111.808594 173.398438 L 76 137.589844 L 76 107.535156 L 45.445312 76.984375 C 45.851562 76.3125 45.761719 75.457031 45.183594 74.855469 Z M 47.445312 67.292969 C 48.132812 66.585938 48.132812 65.519531 47.445312 64.8125 C 46.738281 64.121094 45.667969 64.121094 44.960938 64.8125 C 44.382812 65.40625 44.289062 66.269531 44.695312 66.945312 L 28.117188 83.523438 L 28.117188 125.277344 L 52.539062 149.699219 L 52.539062 205.988281 C 51.785156 206.183594 51.21875 206.871094 51.21875 207.691406 C 51.21875 208.65625 52.007812 209.449219 52.976562 209.449219 C 53.941406 209.449219 54.734375 208.660156 54.734375 207.691406 C 54.734375 206.871094 54.171875 206.183594 53.414062 205.988281 L 53.414062 149.34375 L 28.988281 124.921875 L 28.988281 83.886719 L 45.316406 67.558594 C 45.988281 67.964844 46.847656 67.878906 47.445312 67.292969 Z M 55.871094 98.183594 C 55.855469 94.324219 52.761719 91.238281 48.902344 91.214844 C 45.039062 91.234375 41.953125 94.324219 41.929688 98.183594 C 41.949219 101.445312 44.148438 104.15625 47.15625 104.929688 L 47.15625 128.179688 L 63.097656 144.121094 L 63.097656 165.925781 C 60.089844 166.703125 57.890625 169.410156 57.871094 172.667969 C 57.890625 176.527344 60.980469 179.613281 64.84375 179.640625 C 68.703125 179.621094 71.789062 176.527344 71.8125 172.667969 C 71.792969 169.410156 69.59375 166.699219 66.585938 165.925781 L 66.585938 142.675781 L 50.648438 126.734375 L 50.648438 104.929688 C 53.652344 104.15625 55.855469 101.445312 55.871094 98.183594 Z M -5.8125 4.566406 C -6.777344 4.566406 -7.570312 5.351562 -7.570312 6.324219 C -7.570312 7.289062 -6.78125 8.082031 -5.8125 8.082031 C -4.992188 8.082031 -4.304688 7.515625 -4.109375 6.761719 L 57.871094 6.761719 L 74.734375 23.625 L 74.734375 48.847656 L 103.667969 77.78125 L 171.082031 77.78125 C 171.277344 78.539062 171.96875 79.105469 172.785156 79.105469 C 173.75 79.105469 174.542969 78.316406 174.542969 77.34375 C 174.542969 76.378906 173.757812 75.585938 172.785156 75.585938 C 171.96875 75.585938 171.277344 76.152344 171.082031 76.910156 L 104.027344 76.910156 L 75.601562 48.484375 L 75.601562 23.261719 L 58.226562 5.886719 L -4.109375 5.886719 C -4.304688 5.125 -4.992188 4.566406 -5.8125 4.566406 Z M -5.8125 4.566406 " fill-opacity="1" fill-rule="nonzero"/></g><g clip-path="url(#0d0069e1ec)"><path fill="#ffffff" d="M 1118.773438 298.53125 C 1119.464844 299.203125 1120.511719 299.203125 1121.203125 298.53125 C 1121.878906 297.835938 1121.878906 296.789062 1121.203125 296.097656 C 1120.621094 295.53125 1119.777344 295.441406 1119.117188 295.839844 L 1099.851562 276.574219 L 1099.851562 264.710938 L 1081.734375 246.589844 L 1035.875 246.589844 L 1025.65625 256.804688 L 919.984375 256.804688 C 919.792969 256.066406 919.117188 255.511719 918.316406 255.511719 C 917.371094 255.511719 916.59375 256.28125 916.59375 257.234375 C 916.59375 258.179688 917.367188 258.953125 918.316406 258.953125 C 919.117188 258.953125 919.792969 258.402344 919.984375 257.660156 L 1026.007812 257.660156 L 1036.222656 247.445312 L 1081.378906 247.445312 L 1098.996094 265.066406 L 1098.996094 276.929688 L 1118.515625 296.445312 C 1118.117188 297.101562 1118.199219 297.945312 1118.773438 298.53125 M 1191.859375 278.886719 C 1192.804688 278.886719 1193.582031 278.117188 1193.582031 277.164062 C 1193.582031 276.21875 1192.8125 275.441406 1191.859375 275.441406 C 1191.058594 275.441406 1190.386719 275.996094 1190.191406 276.738281 L 1136.285156 276.738281 L 1125.71875 266.171875 L 1125.71875 242.820312 L 1088.648438 205.75 L 1038.773438 205.75 L 1028.136719 195.113281 L 972.1875 195.113281 C 971.996094 194.375 971.320312 193.820312 970.519531 193.820312 C 969.574219 193.820312 968.800781 194.589844 968.800781 195.542969 C 968.800781 196.488281 969.570312 197.261719 970.519531 197.261719 C 971.320312 197.261719 971.996094 196.710938 972.1875 195.96875 L 1027.789062 195.96875 L 1038.425781 206.605469 L 1088.300781 206.605469 L 1124.871094 243.175781 L 1124.871094 266.527344 L 1135.9375 277.59375 L 1190.191406 277.59375 C 1190.386719 278.339844 1191.058594 278.886719 1191.859375 278.886719 Z M 1100.214844 253.050781 C 1100.90625 253.722656 1101.953125 253.722656 1102.644531 253.050781 C 1103.320312 252.355469 1103.320312 251.308594 1102.644531 250.617188 C 1102.0625 250.050781 1101.21875 249.960938 1100.558594 250.359375 L 1082.414062 232.214844 L 1030.746094 232.214844 L 1019.546875 243.410156 L 982.421875 243.410156 C 982.230469 242.671875 981.554688 242.117188 980.753906 242.117188 C 979.808594 242.117188 979.035156 242.886719 979.035156 243.839844 C 979.035156 244.785156 979.804688 245.558594 980.753906 245.558594 C 981.554688 245.558594 982.230469 245.007812 982.421875 244.265625 L 1019.894531 244.265625 L 1031.09375 233.070312 L 1082.050781 233.070312 L 1099.941406 250.960938 C 1099.558594 251.621094 1099.648438 252.460938 1100.214844 253.050781 Z M 1074.585938 260.253906 C 1075.53125 260.253906 1076.308594 259.484375 1076.308594 258.535156 C 1076.308594 257.589844 1075.539062 256.8125 1074.585938 256.8125 C 1073.785156 256.8125 1073.113281 257.367188 1072.917969 258.105469 L 1042.261719 258.105469 L 1028.210938 272.15625 L 978.40625 272.15625 L 970.742188 279.820312 L 934.695312 279.820312 C 934.503906 279.078125 933.828125 278.527344 933.03125 278.527344 C 932.085938 278.527344 931.308594 279.296875 931.308594 280.246094 C 931.308594 281.191406 932.078125 281.96875 933.03125 281.96875 C 933.828125 281.96875 934.503906 281.414062 934.695312 280.675781 L 971.097656 280.675781 L 978.761719 273.011719 L 1028.566406 273.011719 L 1042.617188 258.960938 L 1072.917969 258.960938 C 1073.113281 259.703125 1073.785156 260.253906 1074.585938 260.253906 Z M 1093.460938 300.9375 C 1095.476562 302.929688 1098.683594 302.929688 1100.703125 300.9375 C 1102.695312 298.921875 1102.695312 295.710938 1100.703125 293.695312 C 1098.996094 292.011719 1096.453125 291.75 1094.484375 292.90625 L 1075.382812 273.804688 L 1053.042969 273.804688 L 1040.609375 286.238281 L 1019.113281 286.238281 C 1018.542969 284.035156 1016.53125 282.394531 1014.160156 282.394531 C 1011.34375 282.394531 1009.042969 284.695312 1009.042969 287.511719 C 1009.042969 290.332031 1011.34375 292.628906 1014.160156 292.628906 C 1016.539062 292.628906 1018.542969 290.992188 1019.113281 288.789062 L 1041.671875 288.789062 L 1054.101562 276.359375 L 1074.316406 276.359375 L 1092.671875 294.71875 C 1091.515625 296.679688 1091.78125 299.234375 1093.460938 300.9375 Z M 1191.859375 273.96875 C 1194.675781 273.96875 1196.976562 271.667969 1196.976562 268.851562 C 1196.976562 266.035156 1194.675781 263.734375 1191.859375 263.734375 C 1189.484375 263.734375 1187.476562 265.371094 1186.90625 267.574219 L 1146.234375 267.574219 L 1139.433594 260.773438 L 1139.433594 239.660156 L 1093.941406 194.167969 L 1093.941406 163.90625 L 1071.636719 141.601562 C 1072.792969 139.632812 1072.535156 137.089844 1070.847656 135.382812 C 1068.832031 133.390625 1065.625 133.390625 1063.605469 135.382812 C 1061.613281 137.402344 1061.613281 140.609375 1063.605469 142.625 C 1065.308594 144.3125 1067.855469 144.570312 1069.824219 143.414062 L 1091.382812 164.972656 L 1091.382812 195.234375 L 1136.875 240.726562 L 1136.875 261.839844 L 1145.175781 270.140625 L 1186.90625 270.140625 C 1187.476562 272.332031 1189.484375 273.96875 1191.859375 273.96875 Z M 1004.179688 173.585938 C 1003.234375 173.585938 1002.457031 174.355469 1002.457031 175.308594 C 1002.457031 176.253906 1003.226562 177.03125 1004.179688 177.03125 C 1004.980469 177.03125 1005.652344 176.476562 1005.847656 175.734375 L 1028.191406 175.734375 L 1041.882812 189.425781 L 1082.152344 189.425781 L 1082.152344 171.160156 L 1066.292969 155.296875 L 1047.304688 155.296875 C 1047.113281 154.558594 1046.4375 154.003906 1045.636719 154.003906 C 1044.691406 154.003906 1043.914062 154.773438 1043.914062 155.726562 C 1043.914062 156.671875 1044.6875 157.449219 1045.636719 157.449219 C 1046.4375 157.449219 1047.113281 156.894531 1047.304688 156.152344 L 1065.9375 156.152344 L 1081.300781 171.515625 L 1081.300781 188.570312 L 1042.234375 188.570312 L 1028.539062 174.882812 L 1005.847656 174.882812 C 1005.652344 174.140625 1004.980469 173.585938 1004.179688 173.585938 Z M 1191.859375 259.308594 C 1192.804688 259.308594 1193.582031 258.539062 1193.582031 257.589844 C 1193.582031 256.644531 1192.8125 255.867188 1191.859375 255.867188 C 1191.058594 255.867188 1190.386719 256.421875 1190.191406 257.160156 L 1155.351562 257.160156 L 1151.125 252.933594 L 1151.125 236.785156 L 1169.871094 218.03125 L 1169.871094 163.996094 L 1147.507812 141.632812 L 1147.507812 116.445312 C 1148.246094 116.253906 1148.800781 115.578125 1148.800781 114.777344 C 1148.800781 113.832031 1148.03125 113.058594 1147.078125 113.058594 C 1146.132812 113.058594 1145.355469 113.828125 1145.355469 114.777344 C 1145.355469 115.578125 1145.910156 116.253906 1146.652344 116.445312 L 1146.652344 141.988281 L 1169.015625 164.351562 L 1169.015625 217.683594 L 1150.269531 236.429688 L 1150.269531 253.289062 L 1155 258.023438 L 1190.191406 258.023438 C 1190.386719 258.757812 1191.058594 259.308594 1191.859375 259.308594 Z M 1163.074219 238.359375 C 1161.082031 240.378906 1161.082031 243.585938 1163.074219 245.601562 C 1165.089844 247.59375 1168.296875 247.59375 1170.316406 245.601562 C 1172 243.898438 1172.257812 241.351562 1171.105469 239.382812 L 1180.644531 229.84375 L 1180.644531 155.203125 L 1166.054688 140.609375 L 1166.054688 102.203125 C 1168.257812 101.632812 1169.894531 99.621094 1169.894531 97.25 C 1169.894531 94.429688 1167.59375 92.132812 1164.777344 92.132812 C 1161.960938 92.132812 1159.660156 94.429688 1159.660156 97.25 C 1159.660156 99.625 1161.296875 101.632812 1163.5 102.203125 L 1163.5 141.667969 L 1178.085938 156.253906 L 1178.085938 228.777344 L 1169.296875 237.566406 C 1167.324219 236.410156 1164.769531 236.675781 1163.074219 238.359375 Z M 1177.769531 141.273438 C 1177.769531 142.21875 1178.539062 142.992188 1179.488281 142.992188 C 1180.433594 142.992188 1181.210938 142.222656 1181.210938 141.273438 C 1181.210938 140.472656 1180.65625 139.796875 1179.917969 139.605469 L 1179.917969 110.605469 L 1185.996094 104.527344 L 1185.996094 73.066406 C 1186.738281 72.875 1187.292969 72.199219 1187.292969 71.398438 C 1187.292969 70.453125 1186.519531 69.675781 1185.570312 69.675781 C 1184.625 69.675781 1183.847656 70.449219 1183.847656 71.398438 C 1183.847656 72.199219 1184.402344 72.875 1185.140625 73.066406 L 1185.140625 104.175781 L 1179.0625 110.257812 L 1179.0625 139.605469 C 1178.316406 139.796875 1177.769531 140.472656 1177.769531 141.273438 Z M 1141.925781 220.546875 C 1142.617188 221.222656 1143.664062 221.222656 1144.359375 220.546875 C 1145.03125 219.855469 1145.03125 218.808594 1144.359375 218.117188 C 1143.773438 217.550781 1142.929688 217.460938 1142.269531 217.855469 L 1112.601562 188.191406 L 1112.601562 158.761719 L 1077.039062 123.195312 L 1011.726562 123.195312 C 1011.535156 122.453125 1010.859375 121.898438 1010.058594 121.898438 C 1009.113281 121.898438 1008.339844 122.671875 1008.339844 123.621094 C 1008.339844 124.566406 1009.109375 125.34375 1010.058594 125.34375 C 1010.859375 125.34375 1011.535156 124.789062 1011.726562 124.050781 L 1076.683594 124.050781 L 1111.746094 159.113281 L 1111.746094 188.546875 L 1141.667969 218.464844 C 1141.269531 219.121094 1141.359375 219.957031 1141.925781 220.546875 Z M 1139.710938 227.953125 C 1139.035156 228.644531 1139.035156 229.691406 1139.710938 230.382812 C 1140.402344 231.058594 1141.449219 231.058594 1142.140625 230.382812 C 1142.707031 229.800781 1142.796875 228.957031 1142.402344 228.296875 L 1158.636719 212.058594 L 1158.636719 171.171875 L 1134.71875 147.253906 L 1134.71875 92.136719 C 1135.460938 91.945312 1136.015625 91.269531 1136.015625 90.46875 C 1136.015625 89.523438 1135.242188 88.75 1134.292969 88.75 C 1133.347656 88.75 1132.570312 89.519531 1132.570312 90.46875 C 1132.570312 91.269531 1133.125 91.945312 1133.863281 92.136719 L 1133.863281 147.605469 L 1157.78125 171.523438 L 1157.78125 211.703125 L 1141.792969 227.695312 C 1141.136719 227.296875 1140.292969 227.378906 1139.710938 227.953125 Z M 1131.457031 197.703125 C 1131.476562 201.484375 1134.503906 204.503906 1138.285156 204.527344 C 1142.0625 204.511719 1145.085938 201.484375 1145.109375 197.703125 C 1145.09375 194.511719 1142.9375 191.855469 1139.992188 191.097656 L 1139.992188 168.332031 L 1124.382812 152.722656 L 1124.382812 131.371094 C 1127.328125 130.605469 1129.480469 127.957031 1129.5 124.765625 C 1129.480469 120.984375 1126.453125 117.964844 1122.675781 117.9375 C 1118.894531 117.957031 1115.871094 120.984375 1115.847656 124.765625 C 1115.867188 127.957031 1118.019531 130.609375 1120.964844 131.371094 L 1120.964844 154.136719 L 1136.574219 169.746094 L 1136.574219 191.097656 C 1133.628906 191.855469 1131.476562 194.511719 1131.457031 197.703125 Z M 1191.859375 289.378906 C 1192.804688 289.378906 1193.582031 288.609375 1193.582031 287.65625 C 1193.582031 286.710938 1192.8125 285.9375 1191.859375 285.9375 C 1191.058594 285.9375 1190.386719 286.488281 1190.191406 287.230469 L 1129.5 287.230469 L 1112.988281 270.71875 L 1112.988281 246.019531 L 1084.652344 217.683594 L 1018.636719 217.683594 C 1018.445312 216.941406 1017.769531 216.386719 1016.972656 216.386719 C 1016.027344 216.386719 1015.25 217.160156 1015.25 218.109375 C 1015.25 219.054688 1016.019531 219.832031 1016.972656 219.832031 C 1017.769531 219.832031 1018.445312 219.277344 1018.636719 218.539062 L 1084.304688 218.539062 L 1112.140625 246.375 L 1112.140625 271.074219 L 1129.152344 288.085938 L 1190.191406 288.085938 C 1190.386719 288.832031 1191.058594 289.378906 1191.859375 289.378906 Z M 1191.859375 289.378906 " fill-opacity="1" fill-rule="nonzero"/></g></svg>