<svg xmlns="http://www.w3.org/2000/svg" xmlns:xlink="http://www.w3.org/1999/xlink" width="300" zoomAndPan="magnify" viewBox="0 0 224.87999 225" height="300" preserveAspectRatio="xMidYMid meet" version="1.0"><defs><clipPath id="4f653e4bb9"><path d="M 64 29 L 71 29 L 71 36 L 64 36 Z M 64 29 " clip-rule="nonzero"/></clipPath><clipPath id="b90bcda7c6"><path d="M -39.847656 65.75 L 160.234375 -38.535156 L 263.832031 160.21875 L 63.746094 264.503906 Z M -39.847656 65.75 " clip-rule="nonzero"/></clipPath><clipPath id="d6507b0e0f"><path d="M -39.847656 65.75 L 160.234375 -38.535156 L 263.832031 160.21875 L 63.746094 264.503906 Z M -39.847656 65.75 " clip-rule="nonzero"/></clipPath><clipPath id="95100c876e"><path d="M 37 38 L 44 38 L 44 45 L 37 45 Z M 37 38 " clip-rule="nonzero"/></clipPath><clipPath id="72cf48762b"><path d="M -39.847656 65.75 L 160.234375 -38.535156 L 263.832031 160.21875 L 63.746094 264.503906 Z M -39.847656 65.75 " clip-rule="nonzero"/></clipPath><clipPath id="b1a235cee6"><path d="M -39.847656 65.75 L 160.234375 -38.535156 L 263.832031 160.21875 L 63.746094 264.503906 Z M -39.847656 65.75 " clip-rule="nonzero"/></clipPath><clipPath id="20d537e43d"><path d="M 47 61 L 54 61 L 54 68 L 47 68 Z M 47 61 " clip-rule="nonzero"/></clipPath><clipPath id="4d4bf15696"><path d="M -39.847656 65.75 L 160.234375 -38.535156 L 263.832031 160.21875 L 63.746094 264.503906 Z M -39.847656 65.75 " clip-rule="nonzero"/></clipPath><clipPath id="29ef05a7bc"><path d="M -39.847656 65.75 L 160.234375 -38.535156 L 263.832031 160.21875 L 63.746094 264.503906 Z M -39.847656 65.75 " clip-rule="nonzero"/></clipPath><clipPath id="20c976d256"><path d="M 92 27 L 99 27 L 99 34 L 92 34 Z M 92 27 " clip-rule="nonzero"/></clipPath><clipPath id="5eaad511b3"><path d="M -39.847656 65.75 L 160.234375 -38.535156 L 263.832031 160.21875 L 63.746094 264.503906 Z M -39.847656 65.75 " clip-rule="nonzero"/></clipPath><clipPath id="666a651bad"><path d="M -39.847656 65.75 L 160.234375 -38.535156 L 263.832031 160.21875 L 63.746094 264.503906 Z M -39.847656 65.75 " clip-rule="nonzero"/></clipPath><clipPath id="c4cce7a87c"><path d="M 23 73 L 30 73 L 30 80 L 23 80 Z M 23 73 " clip-rule="nonzero"/></clipPath><clipPath id="08b72a59b9"><path d="M -39.847656 65.75 L 160.234375 -38.535156 L 263.832031 160.21875 L 63.746094 264.503906 Z M -39.847656 65.75 " clip-rule="nonzero"/></clipPath><clipPath id="592ec1a777"><path d="M -39.847656 65.75 L 160.234375 -38.535156 L 263.832031 160.21875 L 63.746094 264.503906 Z M -39.847656 65.75 " clip-rule="nonzero"/></clipPath><clipPath id="922bbc3c5a"><path d="M 117 17 L 124 17 L 124 24 L 117 24 Z M 117 17 " clip-rule="nonzero"/></clipPath><clipPath id="b6887a8437"><path d="M -39.847656 65.75 L 160.234375 -38.535156 L 263.832031 160.21875 L 63.746094 264.503906 Z M -39.847656 65.75 " clip-rule="nonzero"/></clipPath><clipPath id="8f0d10e5e3"><path d="M -39.847656 65.75 L 160.234375 -38.535156 L 263.832031 160.21875 L 63.746094 264.503906 Z M -39.847656 65.75 " clip-rule="nonzero"/></clipPath><clipPath id="5e1ab9c381"><path d="M 107 27 L 114 27 L 114 34 L 107 34 Z M 107 27 " clip-rule="nonzero"/></clipPath><clipPath id="35940d8458"><path d="M -39.847656 65.75 L 160.234375 -38.535156 L 263.832031 160.21875 L 63.746094 264.503906 Z M -39.847656 65.75 " clip-rule="nonzero"/></clipPath><clipPath id="8b345bf901"><path d="M -39.847656 65.75 L 160.234375 -38.535156 L 263.832031 160.21875 L 63.746094 264.503906 Z M -39.847656 65.75 " clip-rule="nonzero"/></clipPath><clipPath id="0cf6379135"><path d="M 149 192 L 156 192 L 156 199 L 149 199 Z M 149 192 " clip-rule="nonzero"/></clipPath><clipPath id="8dda0688ff"><path d="M -39.847656 65.75 L 160.234375 -38.535156 L 263.832031 160.21875 L 63.746094 264.503906 Z M -39.847656 65.75 " clip-rule="nonzero"/></clipPath><clipPath id="cc62449e46"><path d="M -39.847656 65.75 L 160.234375 -38.535156 L 263.832031 160.21875 L 63.746094 264.503906 Z M -39.847656 65.75 " clip-rule="nonzero"/></clipPath><clipPath id="0b43a27f4d"><path d="M 127 209 L 134 209 L 134 216 L 127 216 Z M 127 209 " clip-rule="nonzero"/></clipPath><clipPath id="c68d57b95a"><path d="M -39.847656 65.75 L 160.234375 -38.535156 L 263.832031 160.21875 L 63.746094 264.503906 Z M -39.847656 65.75 " clip-rule="nonzero"/></clipPath><clipPath id="1b23fd21d3"><path d="M -39.847656 65.75 L 160.234375 -38.535156 L 263.832031 160.21875 L 63.746094 264.503906 Z M -39.847656 65.75 " clip-rule="nonzero"/></clipPath><clipPath id="01c4fa33bc"><path d="M 113 188 L 120 188 L 120 195 L 113 195 Z M 113 188 " clip-rule="nonzero"/></clipPath><clipPath id="a03a8143af"><path d="M -39.847656 65.75 L 160.234375 -38.535156 L 263.832031 160.21875 L 63.746094 264.503906 Z M -39.847656 65.75 " clip-rule="nonzero"/></clipPath><clipPath id="929afd027a"><path d="M -39.847656 65.75 L 160.234375 -38.535156 L 263.832031 160.21875 L 63.746094 264.503906 Z M -39.847656 65.75 " clip-rule="nonzero"/></clipPath><clipPath id="8a6a8094a7"><path d="M 167 170 L 174 170 L 174 177 L 167 177 Z M 167 170 " clip-rule="nonzero"/></clipPath><clipPath id="c9503f4618"><path d="M -39.847656 65.75 L 160.234375 -38.535156 L 263.832031 160.21875 L 63.746094 264.503906 Z M -39.847656 65.75 " clip-rule="nonzero"/></clipPath><clipPath id="54773ee6a9"><path d="M -39.847656 65.75 L 160.234375 -38.535156 L 263.832031 160.21875 L 63.746094 264.503906 Z M -39.847656 65.75 " clip-rule="nonzero"/></clipPath><clipPath id="c894571cad"><path d="M 188 179 L 195 179 L 195 186 L 188 186 Z M 188 179 " clip-rule="nonzero"/></clipPath><clipPath id="44bd946541"><path d="M -39.847656 65.75 L 160.234375 -38.535156 L 263.832031 160.21875 L 63.746094 264.503906 Z M -39.847656 65.75 " clip-rule="nonzero"/></clipPath><clipPath id="600709c3a6"><path d="M -39.847656 65.75 L 160.234375 -38.535156 L 263.832031 160.21875 L 63.746094 264.503906 Z M -39.847656 65.75 " clip-rule="nonzero"/></clipPath><clipPath id="3554437ee0"><path d="M 89 201 L 96 201 L 96 208 L 89 208 Z M 89 201 " clip-rule="nonzero"/></clipPath><clipPath id="c72a5ddd87"><path d="M -39.847656 65.75 L 160.234375 -38.535156 L 263.832031 160.21875 L 63.746094 264.503906 Z M -39.847656 65.75 " clip-rule="nonzero"/></clipPath><clipPath id="17ec6bc919"><path d="M -39.847656 65.75 L 160.234375 -38.535156 L 263.832031 160.21875 L 63.746094 264.503906 Z M -39.847656 65.75 " clip-rule="nonzero"/></clipPath><clipPath id="e59926b1ec"><path d="M 189 155 L 196 155 L 196 163 L 189 163 Z M 189 155 " clip-rule="nonzero"/></clipPath><clipPath id="1cb65c31a1"><path d="M -39.847656 65.75 L 160.234375 -38.535156 L 263.832031 160.21875 L 63.746094 264.503906 Z M -39.847656 65.75 " clip-rule="nonzero"/></clipPath><clipPath id="d7c0858188"><path d="M -39.847656 65.75 L 160.234375 -38.535156 L 263.832031 160.21875 L 63.746094 264.503906 Z M -39.847656 65.75 " clip-rule="nonzero"/></clipPath><clipPath id="3db11a7981"><path d="M 191 146 L 198 146 L 198 153 L 191 153 Z M 191 146 " clip-rule="nonzero"/></clipPath><clipPath id="84a1c5e00a"><path d="M -39.847656 65.75 L 160.234375 -38.535156 L 263.832031 160.21875 L 63.746094 264.503906 Z M -39.847656 65.75 " clip-rule="nonzero"/></clipPath><clipPath id="41618b0bb5"><path d="M -39.847656 65.75 L 160.234375 -38.535156 L 263.832031 160.21875 L 63.746094 264.503906 Z M -39.847656 65.75 " clip-rule="nonzero"/></clipPath><clipPath id="6c4f722112"><path d="M 189 66 L 196 66 L 196 73 L 189 73 Z M 189 66 " clip-rule="nonzero"/></clipPath><clipPath id="29496c04be"><path d="M -39.847656 65.75 L 160.234375 -38.535156 L 263.832031 160.21875 L 63.746094 264.503906 Z M -39.847656 65.75 " clip-rule="nonzero"/></clipPath><clipPath id="90733796a0"><path d="M -39.847656 65.75 L 160.234375 -38.535156 L 263.832031 160.21875 L 63.746094 264.503906 Z M -39.847656 65.75 " clip-rule="nonzero"/></clipPath><clipPath id="f1b7098bb1"><path d="M 207 87 L 214 87 L 214 95 L 207 95 Z M 207 87 " clip-rule="nonzero"/></clipPath><clipPath id="14ff3f87d7"><path d="M -39.847656 65.75 L 160.234375 -38.535156 L 263.832031 160.21875 L 63.746094 264.503906 Z M -39.847656 65.75 " clip-rule="nonzero"/></clipPath><clipPath id="e681a3eec1"><path d="M -39.847656 65.75 L 160.234375 -38.535156 L 263.832031 160.21875 L 63.746094 264.503906 Z M -39.847656 65.75 " clip-rule="nonzero"/></clipPath><clipPath id="71b3b896ff"><path d="M 187 102 L 194 102 L 194 109 L 187 109 Z M 187 102 " clip-rule="nonzero"/></clipPath><clipPath id="bef170c3cb"><path d="M -39.847656 65.75 L 160.234375 -38.535156 L 263.832031 160.21875 L 63.746094 264.503906 Z M -39.847656 65.75 " clip-rule="nonzero"/></clipPath><clipPath id="4f7018cac9"><path d="M -39.847656 65.75 L 160.234375 -38.535156 L 263.832031 160.21875 L 63.746094 264.503906 Z M -39.847656 65.75 " clip-rule="nonzero"/></clipPath><clipPath id="46a6066cb2"><path d="M 167 49 L 174 49 L 174 56 L 167 56 Z M 167 49 " clip-rule="nonzero"/></clipPath><clipPath id="b5dfa84d1e"><path d="M -39.847656 65.75 L 160.234375 -38.535156 L 263.832031 160.21875 L 63.746094 264.503906 Z M -39.847656 65.75 " clip-rule="nonzero"/></clipPath><clipPath id="29caa165c6"><path d="M -39.847656 65.75 L 160.234375 -38.535156 L 263.832031 160.21875 L 63.746094 264.503906 Z M -39.847656 65.75 " clip-rule="nonzero"/></clipPath><clipPath id="6dd5c434a5"><path d="M 175 27 L 182 27 L 182 34 L 175 34 Z M 175 27 " clip-rule="nonzero"/></clipPath><clipPath id="1aa9cc9a1e"><path d="M -39.847656 65.75 L 160.234375 -38.535156 L 263.832031 160.21875 L 63.746094 264.503906 Z M -39.847656 65.75 " clip-rule="nonzero"/></clipPath><clipPath id="b7cfcbbe28"><path d="M -39.847656 65.75 L 160.234375 -38.535156 L 263.832031 160.21875 L 63.746094 264.503906 Z M -39.847656 65.75 " clip-rule="nonzero"/></clipPath><clipPath id="d5b63d1ede"><path d="M 200 126 L 207 126 L 207 133 L 200 133 Z M 200 126 " clip-rule="nonzero"/></clipPath><clipPath id="9ab388a5fd"><path d="M -39.847656 65.75 L 160.234375 -38.535156 L 263.832031 160.21875 L 63.746094 264.503906 Z M -39.847656 65.75 " clip-rule="nonzero"/></clipPath><clipPath id="5fe383ed85"><path d="M -39.847656 65.75 L 160.234375 -38.535156 L 263.832031 160.21875 L 63.746094 264.503906 Z M -39.847656 65.75 " clip-rule="nonzero"/></clipPath><clipPath id="2929a4c067"><path d="M 152 27 L 159 27 L 159 34 L 152 34 Z M 152 27 " clip-rule="nonzero"/></clipPath><clipPath id="af18f71d56"><path d="M -39.847656 65.75 L 160.234375 -38.535156 L 263.832031 160.21875 L 63.746094 264.503906 Z M -39.847656 65.75 " clip-rule="nonzero"/></clipPath><clipPath id="2b52189d45"><path d="M -39.847656 65.75 L 160.234375 -38.535156 L 263.832031 160.21875 L 63.746094 264.503906 Z M -39.847656 65.75 " clip-rule="nonzero"/></clipPath><clipPath id="d303a37907"><path d="M 24 142 L 31 142 L 31 149 L 24 149 Z M 24 142 " clip-rule="nonzero"/></clipPath><clipPath id="08c949ba18"><path d="M -39.847656 65.75 L 160.234375 -38.535156 L 263.832031 160.21875 L 63.746094 264.503906 Z M -39.847656 65.75 " clip-rule="nonzero"/></clipPath><clipPath id="3e8d45e5cb"><path d="M -39.847656 65.75 L 160.234375 -38.535156 L 263.832031 160.21875 L 63.746094 264.503906 Z M -39.847656 65.75 " clip-rule="nonzero"/></clipPath><clipPath id="1a55d553b2"><path d="M 60 172 L 67 172 L 67 179 L 60 179 Z M 60 172 " clip-rule="nonzero"/></clipPath><clipPath id="468ae286a0"><path d="M -39.847656 65.75 L 160.234375 -38.535156 L 263.832031 160.21875 L 63.746094 264.503906 Z M -39.847656 65.75 " clip-rule="nonzero"/></clipPath><clipPath id="683be9f95c"><path d="M -39.847656 65.75 L 160.234375 -38.535156 L 263.832031 160.21875 L 63.746094 264.503906 Z M -39.847656 65.75 " clip-rule="nonzero"/></clipPath><clipPath id="9babac7a26"><path d="M 23 182 L 30 182 L 30 189 L 23 189 Z M 23 182 " clip-rule="nonzero"/></clipPath><clipPath id="bb1115c7f7"><path d="M -39.847656 65.75 L 160.234375 -38.535156 L 263.832031 160.21875 L 63.746094 264.503906 Z M -39.847656 65.75 " clip-rule="nonzero"/></clipPath><clipPath id="d4dc088b82"><path d="M -39.847656 65.75 L 160.234375 -38.535156 L 263.832031 160.21875 L 63.746094 264.503906 Z M -39.847656 65.75 " clip-rule="nonzero"/></clipPath><clipPath id="279b20fdee"><path d="M 2 123 L 9 123 L 9 130 L 2 130 Z M 2 123 " clip-rule="nonzero"/></clipPath><clipPath id="33c535a5a3"><path d="M -39.847656 65.75 L 160.234375 -38.535156 L 263.832031 160.21875 L 63.746094 264.503906 Z M -39.847656 65.75 " clip-rule="nonzero"/></clipPath><clipPath id="328cb6dcf3"><path d="M -39.847656 65.75 L 160.234375 -38.535156 L 263.832031 160.21875 L 63.746094 264.503906 Z M -39.847656 65.75 " clip-rule="nonzero"/></clipPath><clipPath id="b6701f15ad"><path d="M 73 196 L 80 196 L 80 203 L 73 203 Z M 73 196 " clip-rule="nonzero"/></clipPath><clipPath id="bbad45dad0"><path d="M -39.847656 65.75 L 160.234375 -38.535156 L 263.832031 160.21875 L 63.746094 264.503906 Z M -39.847656 65.75 " clip-rule="nonzero"/></clipPath><clipPath id="61b887952a"><path d="M -39.847656 65.75 L 160.234375 -38.535156 L 263.832031 160.21875 L 63.746094 264.503906 Z M -39.847656 65.75 " clip-rule="nonzero"/></clipPath><clipPath id="1cd4034deb"><path d="M 14 103 L 21 103 L 21 110 L 14 110 Z M 14 103 " clip-rule="nonzero"/></clipPath><clipPath id="adcaac6f72"><path d="M -39.847656 65.75 L 160.234375 -38.535156 L 263.832031 160.21875 L 63.746094 264.503906 Z M -39.847656 65.75 " clip-rule="nonzero"/></clipPath><clipPath id="b14da2ae3b"><path d="M -39.847656 65.75 L 160.234375 -38.535156 L 263.832031 160.21875 L 63.746094 264.503906 Z M -39.847656 65.75 " clip-rule="nonzero"/></clipPath><clipPath id="4e21d3ddb2"><path d="M 24 113 L 31 113 L 31 120 L 24 120 Z M 24 113 " clip-rule="nonzero"/></clipPath><clipPath id="fada554d3f"><path d="M -39.847656 65.75 L 160.234375 -38.535156 L 263.832031 160.21875 L 63.746094 264.503906 Z M -39.847656 65.75 " clip-rule="nonzero"/></clipPath><clipPath id="206ac82c0a"><path d="M -39.847656 65.75 L 160.234375 -38.535156 L 263.832031 160.21875 L 63.746094 264.503906 Z M -39.847656 65.75 " clip-rule="nonzero"/></clipPath><clipPath id="8da8787ec2"><path d="M 84 28 L 85 28 L 85 29 L 84 29 Z M 84 28 " clip-rule="nonzero"/></clipPath><clipPath id="aae4aeea3e"><path d="M -39.847656 65.75 L 160.234375 -38.535156 L 263.832031 160.21875 L 63.746094 264.503906 Z M -39.847656 65.75 " clip-rule="nonzero"/></clipPath><clipPath id="09b1bb22dc"><path d="M -39.847656 65.75 L 160.234375 -38.535156 L 263.832031 160.21875 L 63.746094 264.503906 Z M -39.847656 65.75 " clip-rule="nonzero"/></clipPath><clipPath id="1a362894d1"><path d="M 43 38 L 44 38 L 44 40 L 43 40 Z M 43 38 " clip-rule="nonzero"/></clipPath><clipPath id="44418518d2"><path d="M -39.847656 65.75 L 160.234375 -38.535156 L 263.832031 160.21875 L 63.746094 264.503906 Z M -39.847656 65.75 " clip-rule="nonzero"/></clipPath><clipPath id="96e0a7fc67"><path d="M -39.847656 65.75 L 160.234375 -38.535156 L 263.832031 160.21875 L 63.746094 264.503906 Z M -39.847656 65.75 " clip-rule="nonzero"/></clipPath><clipPath id="0225171998"><path d="M 98 29 L 99 29 L 99 30 L 98 30 Z M 98 29 " clip-rule="nonzero"/></clipPath><clipPath id="0c45d43c6f"><path d="M -39.847656 65.75 L 160.234375 -38.535156 L 263.832031 160.21875 L 63.746094 264.503906 Z M -39.847656 65.75 " clip-rule="nonzero"/></clipPath><clipPath id="74c211c718"><path d="M -39.847656 65.75 L 160.234375 -38.535156 L 263.832031 160.21875 L 63.746094 264.503906 Z M -39.847656 65.75 " clip-rule="nonzero"/></clipPath><clipPath id="de41691253"><path d="M 51 70 L 52 70 L 52 71 L 51 71 Z M 51 70 " clip-rule="nonzero"/></clipPath><clipPath id="b622433fc6"><path d="M -39.847656 65.75 L 160.234375 -38.535156 L 263.832031 160.21875 L 63.746094 264.503906 Z M -39.847656 65.75 " clip-rule="nonzero"/></clipPath><clipPath id="47aa38516d"><path d="M -39.847656 65.75 L 160.234375 -38.535156 L 263.832031 160.21875 L 63.746094 264.503906 Z M -39.847656 65.75 " clip-rule="nonzero"/></clipPath><clipPath id="6e1e3eac72"><path d="M 123 20 L 124 20 L 124 21 L 123 21 Z M 123 20 " clip-rule="nonzero"/></clipPath><clipPath id="ff1c05532e"><path d="M -39.847656 65.75 L 160.234375 -38.535156 L 263.832031 160.21875 L 63.746094 264.503906 Z M -39.847656 65.75 " clip-rule="nonzero"/></clipPath><clipPath id="65f2061765"><path d="M -39.847656 65.75 L 160.234375 -38.535156 L 263.832031 160.21875 L 63.746094 264.503906 Z M -39.847656 65.75 " clip-rule="nonzero"/></clipPath><clipPath id="2e26f64cab"><path d="M 123 21 L 124 21 L 124 22 L 123 22 Z M 123 21 " clip-rule="nonzero"/></clipPath><clipPath id="c3602ea1f5"><path d="M -39.847656 65.75 L 160.234375 -38.535156 L 263.832031 160.21875 L 63.746094 264.503906 Z M -39.847656 65.75 " clip-rule="nonzero"/></clipPath><clipPath id="00b9a6e75f"><path d="M -39.847656 65.75 L 160.234375 -38.535156 L 263.832031 160.21875 L 63.746094 264.503906 Z M -39.847656 65.75 " clip-rule="nonzero"/></clipPath><clipPath id="009d4c3fa5"><path d="M 114 29 L 115 29 L 115 31 L 114 31 Z M 114 29 " clip-rule="nonzero"/></clipPath><clipPath id="52efbeae28"><path d="M -39.847656 65.75 L 160.234375 -38.535156 L 263.832031 160.21875 L 63.746094 264.503906 Z M -39.847656 65.75 " clip-rule="nonzero"/></clipPath><clipPath id="fb768e57e1"><path d="M -39.847656 65.75 L 160.234375 -38.535156 L 263.832031 160.21875 L 63.746094 264.503906 Z M -39.847656 65.75 " clip-rule="nonzero"/></clipPath><clipPath id="b6f6dea00c"><path d="M 114 30 L 115 30 L 115 31 L 114 31 Z M 114 30 " clip-rule="nonzero"/></clipPath><clipPath id="e5b268b0b8"><path d="M -39.847656 65.75 L 160.234375 -38.535156 L 263.832031 160.21875 L 63.746094 264.503906 Z M -39.847656 65.75 " clip-rule="nonzero"/></clipPath><clipPath id="b3528f098c"><path d="M -39.847656 65.75 L 160.234375 -38.535156 L 263.832031 160.21875 L 63.746094 264.503906 Z M -39.847656 65.75 " clip-rule="nonzero"/></clipPath><clipPath id="904ed976e3"><path d="M 133 211 L 134 211 L 134 212 L 133 212 Z M 133 211 " clip-rule="nonzero"/></clipPath><clipPath id="bf83ccbbe4"><path d="M -39.847656 65.75 L 160.234375 -38.535156 L 263.832031 160.21875 L 63.746094 264.503906 Z M -39.847656 65.75 " clip-rule="nonzero"/></clipPath><clipPath id="c3fffdc283"><path d="M -39.847656 65.75 L 160.234375 -38.535156 L 263.832031 160.21875 L 63.746094 264.503906 Z M -39.847656 65.75 " clip-rule="nonzero"/></clipPath><clipPath id="31364d2bf3"><path d="M 172 171 L 174 171 L 174 172 L 172 172 Z M 172 171 " clip-rule="nonzero"/></clipPath><clipPath id="f3c2297194"><path d="M -39.847656 65.75 L 160.234375 -38.535156 L 263.832031 160.21875 L 63.746094 264.503906 Z M -39.847656 65.75 " clip-rule="nonzero"/></clipPath><clipPath id="53f22e3282"><path d="M -39.847656 65.75 L 160.234375 -38.535156 L 263.832031 160.21875 L 63.746094 264.503906 Z M -39.847656 65.75 " clip-rule="nonzero"/></clipPath><clipPath id="04950bb02f"><path d="M 172 171 L 173 171 L 173 172 L 172 172 Z M 172 171 " clip-rule="nonzero"/></clipPath><clipPath id="fcd3382770"><path d="M -39.847656 65.75 L 160.234375 -38.535156 L 263.832031 160.21875 L 63.746094 264.503906 Z M -39.847656 65.75 " clip-rule="nonzero"/></clipPath><clipPath id="2fb43d6140"><path d="M -39.847656 65.75 L 160.234375 -38.535156 L 263.832031 160.21875 L 63.746094 264.503906 Z M -39.847656 65.75 " clip-rule="nonzero"/></clipPath><clipPath id="39549d91ca"><path d="M 95 204 L 96 204 L 96 206 L 95 206 Z M 95 204 " clip-rule="nonzero"/></clipPath><clipPath id="277a43939a"><path d="M -39.847656 65.75 L 160.234375 -38.535156 L 263.832031 160.21875 L 63.746094 264.503906 Z M -39.847656 65.75 " clip-rule="nonzero"/></clipPath><clipPath id="5f2d4d9b6a"><path d="M -39.847656 65.75 L 160.234375 -38.535156 L 263.832031 160.21875 L 63.746094 264.503906 Z M -39.847656 65.75 " clip-rule="nonzero"/></clipPath><clipPath id="daefbaac21"><path d="M 112 186 L 113 186 L 113 187 L 112 187 Z M 112 186 " clip-rule="nonzero"/></clipPath><clipPath id="3fec272ade"><path d="M -39.847656 65.75 L 160.234375 -38.535156 L 263.832031 160.21875 L 63.746094 264.503906 Z M -39.847656 65.75 " clip-rule="nonzero"/></clipPath><clipPath id="8721b14c6d"><path d="M -39.847656 65.75 L 160.234375 -38.535156 L 263.832031 160.21875 L 63.746094 264.503906 Z M -39.847656 65.75 " clip-rule="nonzero"/></clipPath><clipPath id="56a0a97303"><path d="M 112 185 L 113 185 L 113 187 L 112 187 Z M 112 185 " clip-rule="nonzero"/></clipPath><clipPath id="99a5809763"><path d="M -39.847656 65.75 L 160.234375 -38.535156 L 263.832031 160.21875 L 63.746094 264.503906 Z M -39.847656 65.75 " clip-rule="nonzero"/></clipPath><clipPath id="2a0910bd8f"><path d="M -39.847656 65.75 L 160.234375 -38.535156 L 263.832031 160.21875 L 63.746094 264.503906 Z M -39.847656 65.75 " clip-rule="nonzero"/></clipPath><clipPath id="3a4819192e"><path d="M 193 155 L 194 155 L 194 156 L 193 156 Z M 193 155 " clip-rule="nonzero"/></clipPath><clipPath id="4a424359e8"><path d="M -39.847656 65.75 L 160.234375 -38.535156 L 263.832031 160.21875 L 63.746094 264.503906 Z M -39.847656 65.75 " clip-rule="nonzero"/></clipPath><clipPath id="1baeb2eb1a"><path d="M -39.847656 65.75 L 160.234375 -38.535156 L 263.832031 160.21875 L 63.746094 264.503906 Z M -39.847656 65.75 " clip-rule="nonzero"/></clipPath><clipPath id="0abef3c703"><path d="M 194 155 L 195 155 L 195 157 L 194 157 Z M 194 155 " clip-rule="nonzero"/></clipPath><clipPath id="554842eac6"><path d="M -39.847656 65.75 L 160.234375 -38.535156 L 263.832031 160.21875 L 63.746094 264.503906 Z M -39.847656 65.75 " clip-rule="nonzero"/></clipPath><clipPath id="ce59eab0ee"><path d="M -39.847656 65.75 L 160.234375 -38.535156 L 263.832031 160.21875 L 63.746094 264.503906 Z M -39.847656 65.75 " clip-rule="nonzero"/></clipPath><clipPath id="a738bdc248"><path d="M 180 158 L 181 158 L 181 159 L 180 159 Z M 180 158 " clip-rule="nonzero"/></clipPath><clipPath id="d3daf233ce"><path d="M -39.847656 65.75 L 160.234375 -38.535156 L 263.832031 160.21875 L 63.746094 264.503906 Z M -39.847656 65.75 " clip-rule="nonzero"/></clipPath><clipPath id="92ef962e22"><path d="M -39.847656 65.75 L 160.234375 -38.535156 L 263.832031 160.21875 L 63.746094 264.503906 Z M -39.847656 65.75 " clip-rule="nonzero"/></clipPath><clipPath id="33ca74da67"><path d="M 180 158 L 182 158 L 182 159 L 180 159 Z M 180 158 " clip-rule="nonzero"/></clipPath><clipPath id="ff9a884a52"><path d="M -39.847656 65.75 L 160.234375 -38.535156 L 263.832031 160.21875 L 63.746094 264.503906 Z M -39.847656 65.75 " clip-rule="nonzero"/></clipPath><clipPath id="826aa5d109"><path d="M -39.847656 65.75 L 160.234375 -38.535156 L 263.832031 160.21875 L 63.746094 264.503906 Z M -39.847656 65.75 " clip-rule="nonzero"/></clipPath><clipPath id="f586499303"><path d="M 2 4 L 221 4 L 221 224 L 2 224 Z M 2 4 " clip-rule="nonzero"/></clipPath><clipPath id="fcbd6f13ee"><path d="M -39.847656 65.75 L 160.234375 -38.535156 L 263.832031 160.21875 L 63.746094 264.503906 Z M -39.847656 65.75 " clip-rule="nonzero"/></clipPath><clipPath id="025fcbec16"><path d="M -39.847656 65.75 L 160.234375 -38.535156 L 263.832031 160.21875 L 63.746094 264.503906 Z M -39.847656 65.75 " clip-rule="nonzero"/></clipPath><clipPath id="77dc77ae4a"><path d="M 204 125 L 205 125 L 205 126 L 204 126 Z M 204 125 " clip-rule="nonzero"/></clipPath><clipPath id="a97afde16d"><path d="M -39.847656 65.75 L 160.234375 -38.535156 L 263.832031 160.21875 L 63.746094 264.503906 Z M -39.847656 65.75 " clip-rule="nonzero"/></clipPath><clipPath id="bff5ff8e9f"><path d="M -39.847656 65.75 L 160.234375 -38.535156 L 263.832031 160.21875 L 63.746094 264.503906 Z M -39.847656 65.75 " clip-rule="nonzero"/></clipPath><clipPath id="6b92c5972e"><path d="M 73 197 L 74 197 L 74 198 L 73 198 Z M 73 197 " clip-rule="nonzero"/></clipPath><clipPath id="85dfd657fa"><path d="M -39.847656 65.75 L 160.234375 -38.535156 L 263.832031 160.21875 L 63.746094 264.503906 Z M -39.847656 65.75 " clip-rule="nonzero"/></clipPath><clipPath id="546c236650"><path d="M -39.847656 65.75 L 160.234375 -38.535156 L 263.832031 160.21875 L 63.746094 264.503906 Z M -39.847656 65.75 " clip-rule="nonzero"/></clipPath></defs><g clip-path="url(#4f653e4bb9)"><g clip-path="url(#b90bcda7c6)"><g clip-path="url(#d6507b0e0f)"><path fill="#ffffff" d="M 70.40625 31.140625 C 69.636719 29.660156 67.8125 29.085938 66.335938 29.855469 C 64.855469 30.628906 64.28125 32.453125 65.050781 33.929688 C 65.820312 35.40625 67.644531 35.984375 69.125 35.210938 C 70.605469 34.441406 71.175781 32.617188 70.40625 31.140625 " fill-opacity="1" fill-rule="nonzero"/></g></g></g><g clip-path="url(#95100c876e)"><g clip-path="url(#72cf48762b)"><g clip-path="url(#b1a235cee6)"><path fill="#ffffff" d="M 43.183594 39.003906 C 42.050781 37.78125 40.140625 37.699219 38.914062 38.832031 C 37.6875 39.960938 37.609375 41.871094 38.738281 43.097656 C 39.867188 44.324219 41.78125 44.402344 43.007812 43.273438 C 44.234375 42.144531 44.3125 40.230469 43.183594 39.003906 " fill-opacity="1" fill-rule="nonzero"/></g></g></g><g clip-path="url(#20d537e43d)"><g clip-path="url(#4d4bf15696)"><g clip-path="url(#29ef05a7bc)"><path fill="#ffffff" d="M 52.429688 61.8125 C 51.148438 60.742188 49.242188 60.914062 48.175781 62.195312 C 47.105469 63.476562 47.277344 65.378906 48.558594 66.449219 C 49.839844 67.515625 51.742188 67.34375 52.8125 66.066406 C 53.878906 64.785156 53.710938 62.878906 52.429688 61.8125 " fill-opacity="1" fill-rule="nonzero"/></g></g></g><g clip-path="url(#20c976d256)"><g clip-path="url(#5eaad511b3)"><g clip-path="url(#666a651bad)"><path fill="#ffffff" d="M 98.304688 29.605469 C 97.898438 27.988281 96.257812 27.003906 94.640625 27.410156 C 93.023438 27.816406 92.039062 29.453125 92.445312 31.074219 C 92.851562 32.691406 94.492188 33.671875 96.109375 33.265625 C 97.726562 32.863281 98.707031 31.222656 98.304688 29.605469 " fill-opacity="1" fill-rule="nonzero"/></g></g></g><g clip-path="url(#c4cce7a87c)"><g clip-path="url(#08b72a59b9)"><g clip-path="url(#592ec1a777)"><path fill="#ffffff" d="M 27.242188 74.089844 C 25.707031 73.433594 23.929688 74.148438 23.277344 75.683594 C 22.625 77.21875 23.335938 78.992188 24.871094 79.644531 C 26.40625 80.300781 28.179688 79.585938 28.832031 78.050781 C 29.488281 76.515625 28.773438 74.742188 27.242188 74.089844 " fill-opacity="1" fill-rule="nonzero"/></g></g></g><g clip-path="url(#922bbc3c5a)"><g clip-path="url(#b6887a8437)"><g clip-path="url(#8f0d10e5e3)"><path fill="#ffffff" d="M 123.402344 20.804688 C 123.585938 19.144531 122.386719 17.652344 120.730469 17.46875 C 119.074219 17.289062 117.582031 18.484375 117.398438 20.144531 C 117.214844 21.800781 118.414062 23.292969 120.070312 23.476562 C 121.726562 23.65625 123.21875 22.460938 123.402344 20.804688 " fill-opacity="1" fill-rule="nonzero"/></g></g></g><g clip-path="url(#5e1ab9c381)"><g clip-path="url(#35940d8458)"><g clip-path="url(#8b345bf901)"><path fill="#ffffff" d="M 113.757812 30.351562 C 113.789062 28.683594 112.464844 27.304688 110.796875 27.273438 C 109.132812 27.242188 107.753906 28.566406 107.71875 30.234375 C 107.6875 31.902344 109.015625 33.28125 110.683594 33.3125 C 112.347656 33.34375 113.726562 32.019531 113.757812 30.351562 " fill-opacity="1" fill-rule="nonzero"/></g></g></g><g clip-path="url(#0cf6379135)"><g clip-path="url(#8dda0688ff)"><g clip-path="url(#cc62449e46)"><path fill="#ffffff" d="M 155.226562 193.871094 C 155.996094 195.347656 155.421875 197.171875 153.945312 197.941406 C 152.464844 198.714844 150.640625 198.140625 149.871094 196.660156 C 149.101562 195.183594 149.671875 193.359375 151.152344 192.585938 C 152.632812 191.816406 154.457031 192.390625 155.226562 193.871094 " fill-opacity="1" fill-rule="nonzero"/></g></g></g><g clip-path="url(#0b43a27f4d)"><g clip-path="url(#c68d57b95a)"><g clip-path="url(#1b23fd21d3)"><path fill="#ffffff" d="M 133.183594 211.679688 C 133.542969 213.308594 132.511719 214.921875 130.882812 215.28125 C 129.253906 215.636719 127.644531 214.609375 127.285156 212.980469 C 126.925781 211.351562 127.957031 209.738281 129.585938 209.382812 C 131.214844 209.023438 132.824219 210.050781 133.183594 211.679688 " fill-opacity="1" fill-rule="nonzero"/></g></g></g><g clip-path="url(#01c4fa33bc)"><g clip-path="url(#a03a8143af)"><g clip-path="url(#929afd027a)"><path fill="#ffffff" d="M 119.785156 191.039062 C 119.925781 192.699219 118.695312 194.164062 117.035156 194.308594 C 115.371094 194.449219 113.910156 193.21875 113.769531 191.554688 C 113.625 189.894531 114.855469 188.429688 116.519531 188.289062 C 118.179688 188.148438 119.644531 189.378906 119.785156 191.039062 " fill-opacity="1" fill-rule="nonzero"/></g></g></g><g clip-path="url(#8a6a8094a7)"><g clip-path="url(#c9503f4618)"><g clip-path="url(#54773ee6a9)"><path fill="#ffffff" d="M 172.460938 171.878906 C 173.554688 173.136719 173.421875 175.046875 172.164062 176.140625 C 170.902344 177.234375 168.996094 177.101562 167.902344 175.84375 C 166.808594 174.582031 166.941406 172.675781 168.199219 171.582031 C 169.457031 170.488281 171.367188 170.621094 172.460938 171.878906 " fill-opacity="1" fill-rule="nonzero"/></g></g></g><g clip-path="url(#c894571cad)"><g clip-path="url(#44bd946541)"><g clip-path="url(#600709c3a6)"><path fill="#ffffff" d="M 193.328125 179.996094 C 194.601562 181.070312 194.769531 182.972656 193.691406 184.25 C 192.617188 185.523438 190.714844 185.6875 189.4375 184.613281 C 188.164062 183.542969 188 181.636719 189.074219 180.359375 C 190.148438 179.082031 192.050781 178.921875 193.328125 179.996094 " fill-opacity="1" fill-rule="nonzero"/></g></g></g><g clip-path="url(#3554437ee0)"><g clip-path="url(#c72a5ddd87)"><g clip-path="url(#17ec6bc919)"><path fill="#ffffff" d="M 95.292969 204.65625 C 94.953125 206.289062 93.351562 207.332031 91.71875 206.992188 C 90.085938 206.648438 89.039062 205.046875 89.382812 203.414062 C 89.726562 201.78125 91.324219 200.738281 92.957031 201.078125 C 94.589844 201.421875 95.636719 203.023438 95.292969 204.65625 " fill-opacity="1" fill-rule="nonzero"/></g></g></g><g clip-path="url(#e59926b1ec)"><g clip-path="url(#1cb65c31a1)"><g clip-path="url(#d7c0858188)"><path fill="#ffffff" d="M 194.050781 156.34375 C 195.511719 157.144531 196.046875 158.980469 195.25 160.445312 C 194.449219 161.90625 192.613281 162.445312 191.152344 161.644531 C 189.6875 160.84375 189.148438 159.007812 189.949219 157.546875 C 190.75 156.082031 192.585938 155.546875 194.050781 156.34375 " fill-opacity="1" fill-rule="nonzero"/></g></g></g><g clip-path="url(#3db11a7981)"><g clip-path="url(#84a1c5e00a)"><g clip-path="url(#41618b0bb5)"><path fill="#ffffff" d="M 196.007812 146.304688 C 197.527344 147 198.195312 148.792969 197.5 150.308594 C 196.808594 151.824219 195.015625 152.492188 193.5 151.800781 C 191.984375 151.105469 191.316406 149.316406 192.007812 147.800781 C 192.699219 146.28125 194.492188 145.613281 196.007812 146.304688 " fill-opacity="1" fill-rule="nonzero"/></g></g></g><g clip-path="url(#6c4f722112)"><g clip-path="url(#29496c04be)"><g clip-path="url(#90733796a0)"><path fill="#ffffff" d="M 191.414062 66.597656 C 192.867188 65.777344 194.710938 66.296875 195.527344 67.75 C 196.34375 69.207031 195.824219 71.046875 194.371094 71.863281 C 192.917969 72.679688 191.074219 72.164062 190.261719 70.707031 C 189.441406 69.253906 189.960938 67.414062 191.414062 66.597656 " fill-opacity="1" fill-rule="nonzero"/></g></g></g><g clip-path="url(#f1b7098bb1)"><g clip-path="url(#14ff3f87d7)"><g clip-path="url(#e681a3eec1)"><path fill="#ffffff" d="M 209.902344 88.074219 C 211.519531 87.664062 213.160156 88.644531 213.570312 90.261719 C 213.980469 91.878906 213 93.519531 211.386719 93.929688 C 209.769531 94.339844 208.125 93.359375 207.714844 91.742188 C 207.304688 90.125 208.285156 88.480469 209.902344 88.074219 " fill-opacity="1" fill-rule="nonzero"/></g></g></g><g clip-path="url(#71b3b896ff)"><g clip-path="url(#bef170c3cb)"><g clip-path="url(#4f7018cac9)"><path fill="#ffffff" d="M 189.6875 102.109375 C 191.34375 101.914062 192.84375 103.101562 193.039062 104.757812 C 193.234375 106.414062 192.046875 107.914062 190.390625 108.109375 C 188.734375 108.300781 187.234375 107.117188 187.039062 105.460938 C 186.84375 103.804688 188.03125 102.304688 189.6875 102.109375 " fill-opacity="1" fill-rule="nonzero"/></g></g></g><g clip-path="url(#46a6066cb2)"><g clip-path="url(#b5dfa84d1e)"><g clip-path="url(#29caa165c6)"><path fill="#ffffff" d="M 168.898438 50.054688 C 170.125 48.921875 172.035156 48.996094 173.167969 50.222656 C 174.300781 51.445312 174.226562 53.355469 173 54.488281 C 171.777344 55.621094 169.867188 55.546875 168.734375 54.324219 C 167.601562 53.097656 167.675781 51.1875 168.898438 50.054688 " fill-opacity="1" fill-rule="nonzero"/></g></g></g><g clip-path="url(#6dd5c434a5)"><g clip-path="url(#1aa9cc9a1e)"><g clip-path="url(#b7cfcbbe28)"><path fill="#ffffff" d="M 176.359375 28.945312 C 177.394531 27.636719 179.296875 27.414062 180.601562 28.449219 C 181.910156 29.480469 182.132812 31.378906 181.101562 32.6875 C 180.066406 33.996094 178.167969 34.222656 176.859375 33.183594 C 175.550781 32.152344 175.328125 30.253906 176.359375 28.945312 " fill-opacity="1" fill-rule="nonzero"/></g></g></g><g clip-path="url(#d5b63d1ede)"><g clip-path="url(#9ab388a5fd)"><g clip-path="url(#5fe383ed85)"><path fill="#ffffff" d="M 204.058594 126.164062 C 205.699219 126.457031 206.796875 128.023438 206.503906 129.667969 C 206.214844 131.308594 204.644531 132.402344 203 132.113281 C 201.359375 131.820312 200.265625 130.25 200.558594 128.609375 C 200.847656 126.96875 202.417969 125.875 204.058594 126.164062 " fill-opacity="1" fill-rule="nonzero"/></g></g></g><g clip-path="url(#2929a4c067)"><g clip-path="url(#af18f71d56)"><g clip-path="url(#2b52189d45)"><path fill="#ffffff" d="M 152.699219 28.960938 C 153.453125 27.472656 155.273438 26.878906 156.757812 27.632812 C 158.246094 28.386719 158.84375 30.207031 158.085938 31.691406 C 157.332031 33.179688 155.515625 33.773438 154.027344 33.019531 C 152.539062 32.265625 151.945312 30.449219 152.699219 28.960938 " fill-opacity="1" fill-rule="nonzero"/></g></g></g><g clip-path="url(#d303a37907)"><g clip-path="url(#08c949ba18)"><g clip-path="url(#3e8d45e5cb)"><path fill="#ffffff" d="M 26.328125 142.542969 C 24.777344 143.15625 24.011719 144.910156 24.625 146.460938 C 25.238281 148.011719 26.992188 148.773438 28.542969 148.164062 C 30.09375 147.550781 30.855469 145.800781 30.242188 144.246094 C 29.632812 142.695312 27.878906 141.933594 26.328125 142.542969 " fill-opacity="1" fill-rule="nonzero"/></g></g></g><g clip-path="url(#1a55d553b2)"><g clip-path="url(#468ae286a0)"><g clip-path="url(#683be9f95c)"><path fill="#ffffff" d="M 60.710938 173.347656 C 59.683594 174.660156 59.914062 176.558594 61.226562 177.585938 C 62.542969 178.617188 64.441406 178.386719 65.46875 177.074219 C 66.496094 175.757812 66.265625 173.859375 64.953125 172.832031 C 63.640625 171.804688 61.738281 172.035156 60.710938 173.347656 " fill-opacity="1" fill-rule="nonzero"/></g></g></g><g clip-path="url(#9babac7a26)"><g clip-path="url(#bb1115c7f7)"><g clip-path="url(#d4dc088b82)"><path fill="#ffffff" d="M 24.816406 182.957031 C 23.539062 184.023438 23.367188 185.929688 24.4375 187.207031 C 25.507812 188.488281 27.410156 188.660156 28.691406 187.589844 C 29.96875 186.519531 30.140625 184.617188 29.070312 183.335938 C 28.003906 182.058594 26.097656 181.886719 24.816406 182.957031 " fill-opacity="1" fill-rule="nonzero"/></g></g></g><g clip-path="url(#279b20fdee)"><g clip-path="url(#33c535a5a3)"><g clip-path="url(#328cb6dcf3)"><path fill="#ffffff" d="M 5.1875 123.875 C 3.53125 124.078125 2.351562 125.582031 2.554688 127.238281 C 2.753906 128.894531 4.261719 130.074219 5.914062 129.871094 C 7.570312 129.671875 8.75 128.164062 8.546875 126.507812 C 8.347656 124.855469 6.839844 123.675781 5.1875 123.875 " fill-opacity="1" fill-rule="nonzero"/></g></g></g><g clip-path="url(#b6701f15ad)"><g clip-path="url(#bbad45dad0)"><g clip-path="url(#61b887952a)"><path fill="#ffffff" d="M 73.769531 198.140625 C 73.160156 199.695312 73.929688 201.449219 75.484375 202.054688 C 77.039062 202.660156 78.789062 201.890625 79.394531 200.335938 C 80 198.785156 79.230469 197.03125 77.679688 196.425781 C 76.125 195.820312 74.375 196.589844 73.769531 198.140625 " fill-opacity="1" fill-rule="nonzero"/></g></g></g><g clip-path="url(#1cd4034deb)"><g clip-path="url(#adcaac6f72)"><g clip-path="url(#b14da2ae3b)"><path fill="#ffffff" d="M 17.519531 103.683594 C 15.855469 103.554688 14.402344 104.796875 14.269531 106.460938 C 14.140625 108.121094 15.382812 109.574219 17.046875 109.707031 C 18.707031 109.835938 20.160156 108.59375 20.292969 106.929688 C 20.421875 105.269531 19.179688 103.816406 17.519531 103.683594 " fill-opacity="1" fill-rule="nonzero"/></g></g></g><g clip-path="url(#4e21d3ddb2)"><g clip-path="url(#fada554d3f)"><g clip-path="url(#206ac82c0a)"><path fill="#ffffff" d="M 27.359375 113.027344 C 25.691406 113.046875 24.355469 114.414062 24.375 116.082031 C 24.394531 117.75 25.761719 119.085938 27.429688 119.066406 C 29.097656 119.046875 30.433594 117.675781 30.414062 116.011719 C 30.394531 114.34375 29.027344 113.007812 27.359375 113.027344 " fill-opacity="1" fill-rule="nonzero"/></g></g></g><g clip-path="url(#8da8787ec2)"><g clip-path="url(#aae4aeea3e)"><g clip-path="url(#09b1bb22dc)"><path fill="#ffffff" d="M 84.664062 28.265625 L 84.675781 28.300781 L 84.664062 28.265625 " fill-opacity="1" fill-rule="nonzero"/></g></g></g><g clip-path="url(#1a362894d1)"><g clip-path="url(#44418518d2)"><g clip-path="url(#96e0a7fc67)"><path fill="#ffffff" d="M 43.609375 38.875 C 43.667969 38.9375 43.71875 38.992188 43.753906 39.035156 C 43.714844 38.988281 43.664062 38.933594 43.609375 38.875 " fill-opacity="1" fill-rule="nonzero"/></g></g></g><g clip-path="url(#0225171998)"><g clip-path="url(#0c45d43c6f)"><g clip-path="url(#74c211c718)"><path fill="#ffffff" d="M 98.675781 29.441406 C 98.632812 29.257812 98.589844 29.089844 98.570312 29.019531 C 98.585938 29.074219 98.617188 29.203125 98.675781 29.441406 " fill-opacity="1" fill-rule="nonzero"/><path fill="#ffffff" d="M 98.71875 29.609375 C 98.738281 29.683594 98.757812 29.761719 98.773438 29.824219 C 98.757812 29.765625 98.742188 29.691406 98.71875 29.609375 " fill-opacity="1" fill-rule="nonzero"/><path fill="#ffffff" d="M 98.695312 29.507812 L 98.71875 29.609375 L 98.695312 29.507812 " fill-opacity="1" fill-rule="nonzero"/></g></g></g><g clip-path="url(#de41691253)"><g clip-path="url(#b622433fc6)"><g clip-path="url(#47aa38516d)"><path fill="#ffffff" d="M 51.941406 70.382812 L 51.828125 70.304688 L 51.941406 70.382812 " fill-opacity="1" fill-rule="nonzero"/></g></g></g><g clip-path="url(#6e1e3eac72)"><g clip-path="url(#ff1c05532e)"><g clip-path="url(#65f2061765)"><path fill="#ffffff" d="M 123.859375 20.328125 C 123.851562 20.375 123.835938 20.523438 123.800781 20.847656 C 123.824219 20.617188 123.851562 20.394531 123.859375 20.328125 " fill-opacity="1" fill-rule="nonzero"/></g></g></g><g clip-path="url(#2e26f64cab)"><g clip-path="url(#c3602ea1f5)"><g clip-path="url(#00b9a6e75f)"><path fill="#ffffff" d="M 123.753906 21.28125 L 123.746094 21.367188 L 123.753906 21.28125 " fill-opacity="1" fill-rule="nonzero"/></g></g></g><g clip-path="url(#009d4c3fa5)"><g clip-path="url(#52efbeae28)"><g clip-path="url(#fb768e57e1)"><path fill="#ffffff" d="M 114.160156 30.359375 C 114.167969 29.886719 114.179688 29.414062 114.160156 30.359375 " fill-opacity="1" fill-rule="nonzero"/></g></g></g><g clip-path="url(#b6f6dea00c)"><g clip-path="url(#e5b268b0b8)"><g clip-path="url(#b3528f098c)"><path fill="#ffffff" d="M 114.160156 30.402344 C 114.15625 30.570312 114.152344 30.734375 114.152344 30.824219 C 114.152344 30.75 114.15625 30.609375 114.160156 30.402344 " fill-opacity="1" fill-rule="nonzero"/></g></g></g><g clip-path="url(#904ed976e3)"><g clip-path="url(#bf83ccbbe4)"><g clip-path="url(#c3fffdc283)"><path fill="#ffffff" d="M 133.539062 211.433594 C 133.519531 211.328125 133.496094 211.230469 133.480469 211.164062 C 133.496094 211.222656 133.515625 211.316406 133.539062 211.433594 " fill-opacity="1" fill-rule="nonzero"/></g></g></g><g clip-path="url(#31364d2bf3)"><g clip-path="url(#f3c2297194)"><g clip-path="url(#53f22e3282)"><path fill="#ffffff" d="M 172.804688 171.667969 C 172.96875 171.851562 173.054688 171.953125 173.09375 171.996094 C 173.042969 171.9375 172.929688 171.808594 172.804688 171.667969 " fill-opacity="1" fill-rule="nonzero"/></g></g></g><g clip-path="url(#04950bb02f)"><g clip-path="url(#fcd3382770)"><g clip-path="url(#2fb43d6140)"><path fill="#ffffff" d="M 172.695312 171.539062 L 172.765625 171.617188 Z M 172.695312 171.539062 " fill-opacity="1" fill-rule="nonzero"/><path fill="#ffffff" d="M 172.695312 171.539062 C 172.636719 171.472656 172.585938 171.414062 172.546875 171.367188 C 172.589844 171.417969 172.644531 171.480469 172.695312 171.539062 " fill-opacity="1" fill-rule="nonzero"/></g></g></g><g clip-path="url(#39549d91ca)"><g clip-path="url(#277a43939a)"><g clip-path="url(#5f2d4d9b6a)"><path fill="#ffffff" d="M 95.640625 204.957031 L 95.609375 205.117188 L 95.640625 204.957031 " fill-opacity="1" fill-rule="nonzero"/></g></g></g><g clip-path="url(#daefbaac21)"><g clip-path="url(#3fec272ade)"><g clip-path="url(#8721b14c6d)"><path fill="#ffffff" d="M 112.476562 186.527344 L 112.480469 186.667969 L 112.476562 186.527344 " fill-opacity="1" fill-rule="nonzero"/></g></g></g><g clip-path="url(#56a0a97303)"><g clip-path="url(#99a5809763)"><g clip-path="url(#2a0910bd8f)"><path fill="#ffffff" d="M 112.476562 186.195312 C 112.472656 185.992188 112.46875 185.796875 112.46875 185.714844 C 112.46875 185.777344 112.472656 185.917969 112.476562 186.195312 " fill-opacity="1" fill-rule="nonzero"/></g></g></g><g clip-path="url(#3a4819192e)"><g clip-path="url(#4a424359e8)"><g clip-path="url(#1baeb2eb1a)"><path fill="#ffffff" d="M 193.859375 155.785156 L 193.785156 155.742188 L 193.859375 155.785156 " fill-opacity="1" fill-rule="nonzero"/></g></g></g><g clip-path="url(#0abef3c703)"><g clip-path="url(#554842eac6)"><g clip-path="url(#ce59eab0ee)"><path fill="#ffffff" d="M 194.242188 155.992188 C 194.527344 156.152344 194.660156 156.222656 194.699219 156.242188 C 194.640625 156.210938 194.441406 156.105469 194.242188 155.992188 " fill-opacity="1" fill-rule="nonzero"/></g></g></g><g clip-path="url(#a738bdc248)"><g clip-path="url(#d3daf233ce)"><g clip-path="url(#92ef962e22)"><path fill="#ffffff" d="M 180.886719 158.425781 C 180.714844 158.308594 180.597656 158.230469 180.539062 158.191406 C 180.613281 158.242188 180.746094 158.332031 180.886719 158.425781 " fill-opacity="1" fill-rule="nonzero"/><path fill="#ffffff" d="M 180.886719 158.425781 L 180.925781 158.449219 L 180.886719 158.425781 " fill-opacity="1" fill-rule="nonzero"/></g></g></g><g clip-path="url(#33ca74da67)"><g clip-path="url(#ff9a884a52)"><g clip-path="url(#826aa5d109)"><path fill="#ffffff" d="M 180.925781 158.449219 C 181.707031 158.972656 181.316406 158.710938 180.925781 158.449219 " fill-opacity="1" fill-rule="nonzero"/></g></g></g><g clip-path="url(#f586499303)"><g clip-path="url(#fcbd6f13ee)"><g clip-path="url(#025fcbec16)"><path fill="#ffffff" d="M 210 88.464844 C 211.402344 88.109375 212.828125 88.960938 213.183594 90.359375 C 213.535156 91.761719 212.683594 93.183594 211.285156 93.539062 C 210.113281 93.835938 208.933594 93.28125 208.367188 92.277344 L 210.808594 91.660156 L 210.957031 91.605469 C 211.230469 91.460938 211.382812 91.148438 211.300781 90.835938 C 211.207031 90.472656 210.839844 90.253906 210.476562 90.34375 L 208.035156 90.960938 C 208.054688 89.808594 208.828125 88.757812 210 88.464844 Z M 191.609375 66.945312 C 192.871094 66.242188 194.46875 66.6875 195.175781 67.949219 C 195.882812 69.207031 195.433594 70.804688 194.175781 71.511719 C 193.121094 72.105469 191.839844 71.878906 191.03125 71.054688 L 193.226562 69.824219 C 193.550781 69.636719 193.667969 69.226562 193.484375 68.898438 C 193.300781 68.574219 192.886719 68.464844 192.5625 68.636719 L 190.367188 69.871094 C 190.082031 68.753906 190.558594 67.539062 191.609375 66.945312 Z M 193.894531 71.671875 L 194.019531 71.601562 Z M 189.734375 102.507812 C 191.167969 102.339844 192.472656 103.371094 192.640625 104.804688 C 192.808594 106.238281 191.78125 107.539062 190.34375 107.707031 C 189.144531 107.847656 188.046875 107.144531 187.617188 106.074219 L 190.117188 105.78125 C 190.203125 105.773438 190.28125 105.746094 190.351562 105.710938 C 190.59375 105.582031 190.746094 105.316406 190.714844 105.03125 C 190.667969 104.65625 190.332031 104.390625 189.960938 104.433594 L 187.460938 104.726562 C 187.628906 103.585938 188.535156 102.648438 189.734375 102.507812 Z M 126.011719 142.148438 C 109.84375 150.574219 89.839844 144.277344 81.414062 128.113281 C 72.992188 111.953125 79.285156 91.949219 95.453125 83.523438 C 111.617188 75.097656 131.621094 81.394531 140.042969 97.554688 C 148.46875 113.71875 142.175781 133.726562 126.011719 142.148438 Z M 203.988281 126.558594 C 205.410156 126.8125 206.363281 128.175781 206.109375 129.597656 C 205.855469 131.015625 204.492188 131.96875 203.074219 131.714844 C 203.230469 131.742188 203.378906 131.769531 203.445312 131.78125 C 203.394531 131.773438 203.285156 131.753906 203.074219 131.714844 C 202.363281 131.589844 202.71875 131.652344 203.074219 131.714844 C 201.882812 131.503906 201.035156 130.515625 200.933594 129.367188 L 203.410156 129.804688 C 203.566406 129.832031 203.714844 129.804688 203.84375 129.738281 C 204.023438 129.644531 204.160156 129.472656 204.199219 129.257812 C 204.265625 128.886719 204.019531 128.535156 203.648438 128.46875 L 201.171875 128.027344 C 201.664062 126.984375 202.800781 126.347656 203.988281 126.558594 Z M 195.84375 146.671875 C 197.15625 147.269531 197.734375 148.828125 197.136719 150.140625 C 196.535156 151.453125 194.980469 152.035156 193.667969 151.433594 C 193.777344 151.484375 193.886719 151.535156 193.960938 151.570312 C 193.902344 151.542969 193.8125 151.5 193.667969 151.433594 C 193.527344 151.371094 193.4375 151.332031 193.378906 151.304688 C 193.453125 151.335938 193.558594 151.382812 193.667969 151.433594 C 192.566406 150.933594 191.992188 149.765625 192.183594 148.625 L 194.472656 149.671875 C 194.671875 149.761719 194.890625 149.75 195.070312 149.65625 C 195.199219 149.589844 195.304688 149.480469 195.371094 149.335938 C 195.527344 148.996094 195.378906 148.59375 195.035156 148.4375 L 192.746094 147.390625 C 193.480469 146.503906 194.742188 146.167969 195.84375 146.671875 Z M 193.855469 156.699219 C 195.121094 157.390625 195.589844 158.984375 194.898438 160.25 C 194.203125 161.519531 192.609375 161.984375 191.34375 161.292969 C 191.265625 161.25 191.207031 161.21875 191.15625 161.191406 C 191.210938 161.222656 191.277344 161.257812 191.34375 161.292969 C 190.285156 160.710938 189.792969 159.507812 190.066406 158.386719 L 192.273438 159.59375 C 192.480469 159.707031 192.71875 159.703125 192.914062 159.601562 C 193.03125 159.539062 193.128906 159.445312 193.195312 159.324219 C 193.375 158.996094 193.253906 158.582031 192.925781 158.40625 L 190.714844 157.195312 C 191.511719 156.359375 192.796875 156.117188 193.855469 156.699219 Z M 193.070312 180.300781 C 194.175781 181.234375 194.316406 182.886719 193.386719 183.992188 C 192.457031 185.097656 190.800781 185.238281 189.695312 184.308594 C 188.773438 183.53125 188.535156 182.25 189.019531 181.207031 L 190.945312 182.824219 C 191.160156 183.007812 191.457031 183.03125 191.695312 182.910156 C 191.769531 182.867188 191.839844 182.8125 191.898438 182.742188 C 192.140625 182.457031 192.105469 182.027344 191.816406 181.789062 L 189.890625 180.164062 C 190.839844 179.503906 192.144531 179.523438 193.070312 180.300781 Z M 172.15625 172.144531 C 173.105469 173.234375 172.988281 174.890625 171.898438 175.835938 C 170.808594 176.785156 169.152344 176.667969 168.207031 175.578125 C 167.414062 174.667969 167.375 173.359375 168.019531 172.402344 L 169.671875 174.304688 C 169.882812 174.546875 170.226562 174.605469 170.5 174.464844 L 170.632812 174.375 C 170.914062 174.128906 170.941406 173.699219 170.699219 173.417969 L 169.046875 171.515625 C 170.082031 171.011719 171.367188 171.234375 172.15625 172.144531 Z M 154.871094 194.054688 C 155.539062 195.335938 155.039062 196.921875 153.757812 197.585938 C 152.480469 198.253906 150.894531 197.757812 150.226562 196.476562 C 149.667969 195.40625 149.933594 194.128906 150.785156 193.34375 L 151.945312 195.578125 C 152.121094 195.910156 152.53125 196.039062 152.863281 195.867188 C 153.195312 195.691406 153.324219 195.285156 153.148438 194.949219 L 151.984375 192.71875 C 153.113281 192.472656 154.3125 192.984375 154.871094 194.054688 Z M 132.792969 211.765625 C 133.101562 213.175781 132.207031 214.578125 130.796875 214.886719 C 129.386719 215.199219 127.988281 214.304688 127.679688 212.894531 C 127.417969 211.714844 128.007812 210.550781 129.03125 210.015625 L 129.570312 212.476562 C 129.652344 212.839844 130.015625 213.074219 130.382812 212.992188 L 130.546875 212.929688 C 130.8125 212.792969 130.964844 212.492188 130.898438 212.183594 L 130.355469 209.726562 C 131.507812 209.78125 132.53125 210.585938 132.792969 211.765625 Z M 119.382812 191.074219 C 119.507812 192.511719 118.4375 193.78125 117 193.90625 C 115.5625 194.03125 114.292969 192.960938 114.167969 191.519531 C 114.0625 190.316406 114.800781 189.242188 115.882812 188.847656 L 116.101562 191.355469 C 116.132812 191.730469 116.460938 192.003906 116.835938 191.972656 C 116.925781 191.964844 117.011719 191.9375 117.089844 191.898438 C 117.324219 191.777344 117.476562 191.519531 117.453125 191.242188 L 117.238281 188.730469 C 118.371094 188.9375 119.28125 189.871094 119.382812 191.074219 Z M 94.902344 204.574219 C 94.601562 205.984375 93.214844 206.894531 91.800781 206.597656 C 90.386719 206.300781 89.480469 204.910156 89.777344 203.496094 C 89.742188 203.648438 89.714844 203.796875 89.699219 203.863281 C 89.710938 203.8125 89.730469 203.703125 89.777344 203.496094 C 89.808594 203.332031 89.832031 203.230469 89.84375 203.164062 C 89.828125 203.242188 89.804688 203.371094 89.777344 203.496094 C 90.023438 202.3125 91.042969 201.496094 92.195312 201.429688 L 91.675781 203.898438 C 91.601562 204.265625 91.835938 204.625 92.203125 204.699219 C 92.363281 204.734375 92.519531 204.710938 92.65625 204.640625 C 92.828125 204.550781 92.960938 204.382812 93.003906 204.175781 L 93.523438 201.710938 C 94.546875 202.234375 95.148438 203.390625 94.902344 204.574219 Z M 79.019531 200.191406 C 79.078125 200.042969 79.132812 199.898438 79.160156 199.835938 C 79.140625 199.882812 79.101562 199.988281 79.019531 200.191406 C 78.988281 200.277344 78.960938 200.34375 78.941406 200.398438 L 79.019531 200.191406 C 78.496094 201.535156 76.976562 202.203125 75.628906 201.679688 C 74.285156 201.15625 73.617188 199.632812 74.140625 198.289062 C 74.582031 197.164062 75.714844 196.523438 76.863281 196.648438 L 75.949219 198.992188 C 75.8125 199.339844 75.984375 199.734375 76.332031 199.871094 C 76.523438 199.945312 76.726562 199.925781 76.894531 199.839844 C 77.035156 199.765625 77.148438 199.644531 77.210938 199.484375 L 78.125 197.140625 C 79.054688 197.824219 79.460938 199.066406 79.019531 200.191406 Z M 65.152344 176.824219 C 64.261719 177.960938 62.613281 178.164062 61.476562 177.269531 C 60.339844 176.378906 60.136719 174.730469 61.027344 173.597656 C 61.773438 172.644531 63.046875 172.359375 64.109375 172.808594 L 62.554688 174.792969 C 62.324219 175.085938 62.375 175.511719 62.671875 175.746094 C 62.886719 175.914062 63.175781 175.929688 63.402344 175.8125 C 63.488281 175.769531 63.5625 175.707031 63.625 175.628906 L 65.175781 173.644531 C 65.867188 174.570312 65.894531 175.875 65.152344 176.824219 Z M 28.433594 187.28125 C 27.324219 188.207031 25.671875 188.058594 24.746094 186.953125 C 23.820312 185.84375 23.96875 184.191406 25.074219 183.265625 C 26.003906 182.488281 27.304688 182.476562 28.25 183.136719 L 26.320312 184.753906 C 26.03125 184.992188 25.992188 185.421875 26.234375 185.707031 C 26.441406 185.957031 26.789062 186.019531 27.066406 185.875 L 27.191406 185.792969 L 29.121094 184.179688 C 29.605469 185.226562 29.359375 186.507812 28.433594 187.28125 Z M 28.394531 147.789062 C 27.050781 148.320312 25.527344 147.65625 25 146.3125 C 24.46875 144.972656 25.132812 143.449219 26.472656 142.917969 C 27.597656 142.476562 28.839844 142.875 29.527344 143.800781 L 27.1875 144.722656 C 26.832031 144.859375 26.664062 145.253906 26.804688 145.605469 C 26.941406 145.953125 27.335938 146.125 27.683594 145.984375 L 30.027344 145.0625 C 30.15625 146.207031 29.519531 147.347656 28.394531 147.789062 Z M 28.453125 147.765625 C 28.539062 147.734375 28.621094 147.703125 28.679688 147.679688 C 28.628906 147.695312 28.554688 147.726562 28.453125 147.765625 Z M 28.066406 147.917969 C 28.136719 147.890625 28.253906 147.84375 28.378906 147.796875 C 28.222656 147.859375 28.121094 147.898438 28.066406 147.917969 Z M 5.867188 129.472656 C 4.433594 129.648438 3.125 128.625 2.953125 127.191406 C 2.777344 125.757812 3.800781 124.449219 5.234375 124.273438 C 6.433594 124.128906 7.535156 124.828125 7.96875 125.894531 L 5.464844 126.199219 C 5.09375 126.242188 4.828125 126.582031 4.875 126.953125 C 4.917969 127.324219 5.257812 127.59375 5.628906 127.546875 L 8.132812 127.242188 C 7.96875 128.382812 7.066406 129.328125 5.867188 129.472656 Z M 27.425781 118.664062 L 27.527344 118.664062 L 27.425781 118.664062 C 27.355469 118.664062 27.300781 118.667969 27.25 118.667969 L 27.425781 118.664062 C 25.980469 118.679688 24.792969 117.519531 24.777344 116.078125 C 24.761719 114.632812 25.921875 113.445312 27.363281 113.425781 C 28.574219 113.414062 29.589844 114.226562 29.90625 115.335938 L 27.386719 115.367188 C 27.015625 115.371094 26.710938 115.679688 26.71875 116.054688 C 26.722656 116.429688 27.027344 116.726562 27.402344 116.726562 L 29.921875 116.695312 C 29.632812 117.8125 28.632812 118.648438 27.425781 118.664062 Z M 17.078125 109.304688 C 17.148438 109.308594 17.21875 109.316406 17.285156 109.320312 C 17.226562 109.316406 17.160156 109.3125 17.078125 109.304688 C 15.636719 109.191406 14.558594 107.929688 14.671875 106.492188 C 14.785156 105.050781 16.046875 103.972656 17.488281 104.085938 C 18.691406 104.179688 19.628906 105.082031 19.84375 106.214844 L 17.335938 106.019531 C 16.964844 105.992188 16.636719 106.269531 16.609375 106.644531 C 16.582031 107.019531 16.859375 107.34375 17.234375 107.375 L 19.738281 107.570312 C 19.351562 108.65625 18.28125 109.398438 17.078125 109.304688 Z M 16.714844 109.277344 C 16.789062 109.28125 16.929688 109.292969 17.074219 109.304688 C 16.882812 109.289062 16.773438 109.28125 16.714844 109.277344 Z M 25.03125 79.277344 C 25.363281 79.417969 25.691406 79.558594 25.027344 79.273438 C 24.367188 78.992188 24.695312 79.132812 25.027344 79.273438 C 23.699219 78.707031 23.082031 77.167969 23.648438 75.839844 C 24.214844 74.511719 25.753906 73.894531 27.082031 74.457031 C 28.191406 74.933594 28.796875 76.085938 28.636719 77.226562 L 26.320312 76.238281 C 25.976562 76.09375 25.578125 76.253906 25.433594 76.597656 C 25.285156 76.945312 25.445312 77.339844 25.789062 77.488281 L 28.105469 78.476562 C 27.394531 79.382812 26.140625 79.75 25.03125 79.277344 Z M 65.40625 33.742188 C 64.738281 32.460938 65.238281 30.878906 66.519531 30.210938 C 67.800781 29.542969 69.382812 30.042969 70.050781 31.324219 C 70.609375 32.394531 70.34375 33.671875 69.496094 34.453125 L 68.332031 32.222656 C 68.160156 31.890625 67.75 31.761719 67.417969 31.933594 C 67.085938 32.105469 66.957031 32.515625 67.128906 32.847656 L 68.292969 35.078125 C 67.164062 35.328125 65.964844 34.8125 65.40625 33.742188 Z M 48.816406 66.140625 C 47.707031 65.214844 47.558594 63.5625 48.484375 62.453125 C 49.410156 61.34375 51.0625 61.195312 52.171875 62.121094 C 53.097656 62.894531 53.34375 64.171875 52.859375 65.222656 L 50.929688 63.609375 C 50.640625 63.371094 50.214844 63.40625 49.972656 63.695312 C 49.734375 63.980469 49.773438 64.410156 50.058594 64.652344 L 51.992188 66.261719 C 51.046875 66.925781 49.742188 66.914062 48.816406 66.140625 Z M 39.035156 42.824219 C 38.054688 41.761719 38.125 40.101562 39.1875 39.125 C 40.25 38.144531 41.90625 38.214844 42.886719 39.277344 C 43.703125 40.164062 43.78125 41.464844 43.164062 42.441406 L 41.460938 40.589844 C 41.207031 40.316406 40.78125 40.296875 40.5 40.550781 C 40.226562 40.804688 40.207031 41.234375 40.460938 41.507812 L 42.167969 43.363281 C 41.144531 43.894531 39.851562 43.710938 39.035156 42.824219 Z M 92.835938 30.972656 C 92.484375 29.574219 93.335938 28.148438 94.738281 27.800781 C 96.136719 27.449219 97.5625 28.300781 97.914062 29.703125 C 98.207031 30.871094 97.652344 32.050781 96.648438 32.613281 L 96.035156 30.171875 C 95.945312 29.808594 95.578125 29.585938 95.214844 29.675781 C 94.851562 29.765625 94.628906 30.136719 94.71875 30.5 L 95.332031 32.945312 C 94.175781 32.925781 93.128906 32.144531 92.835938 30.972656 Z M 117.796875 20.1875 L 117.78125 20.320312 L 117.796875 20.1875 C 117.816406 20.007812 117.832031 19.894531 117.835938 19.835938 C 117.828125 19.910156 117.8125 20.046875 117.796875 20.1875 C 117.953125 18.753906 119.25 17.714844 120.683594 17.871094 C 122.121094 18.027344 123.160156 19.324219 123 20.761719 C 122.871094 21.960938 121.9375 22.875 120.796875 23.050781 L 121.070312 20.546875 C 121.113281 20.171875 120.84375 19.839844 120.472656 19.796875 C 120.101562 19.757812 119.765625 20.027344 119.722656 20.398438 L 119.449219 22.902344 C 118.375 22.480469 117.667969 21.390625 117.796875 20.1875 Z M 108.121094 30.242188 C 108.121094 30.328125 108.117188 30.414062 108.117188 30.488281 C 108.117188 30.425781 108.121094 30.347656 108.121094 30.242188 C 108.136719 29.519531 108.128906 29.878906 108.121094 30.242188 C 108.148438 28.796875 109.347656 27.648438 110.792969 27.675781 C 112.234375 27.703125 113.382812 28.898438 113.359375 30.34375 C 113.335938 31.550781 112.488281 32.542969 111.367188 32.824219 L 111.417969 30.304688 C 111.425781 29.929688 111.128906 29.621094 110.75 29.613281 C 110.378906 29.605469 110.066406 29.90625 110.0625 30.277344 L 110.011719 32.796875 C 108.90625 32.476562 108.097656 31.449219 108.121094 30.242188 Z M 153.058594 29.140625 C 153.710938 27.855469 155.289062 27.335938 156.578125 27.992188 C 157.867188 28.644531 158.382812 30.222656 157.730469 31.507812 L 157.78125 31.410156 L 157.730469 31.511719 L 157.675781 31.613281 L 157.730469 31.511719 C 157.183594 32.589844 155.988281 33.113281 154.859375 32.878906 L 156.003906 30.632812 C 156.171875 30.300781 156.039062 29.894531 155.707031 29.722656 C 155.375 29.550781 154.960938 29.6875 154.792969 30.019531 L 153.648438 32.261719 C 152.792969 31.492188 152.515625 30.21875 153.058594 29.140625 Z M 176.675781 29.195312 C 177.570312 28.058594 179.222656 27.867188 180.355469 28.761719 C 181.488281 29.65625 181.679688 31.308594 180.785156 32.441406 C 180.035156 33.386719 178.757812 33.667969 177.699219 33.210938 L 179.265625 31.238281 C 179.496094 30.945312 179.449219 30.519531 179.15625 30.285156 C 178.859375 30.054688 178.433594 30.101562 178.199219 30.398438 L 176.636719 32.367188 C 175.949219 31.441406 175.925781 30.140625 176.675781 29.195312 Z M 180.570312 32.714844 L 180.613281 32.65625 Z M 169.171875 50.351562 C 170.230469 49.367188 171.890625 49.433594 172.871094 50.492188 C 173.851562 51.554688 173.789062 53.210938 172.726562 54.195312 C 171.84375 55.011719 170.539062 55.09375 169.5625 54.480469 L 171.410156 52.769531 C 171.683594 52.515625 171.699219 52.089844 171.445312 51.8125 C 171.191406 51.539062 170.761719 51.523438 170.488281 51.777344 L 168.640625 53.484375 C 168.105469 52.460938 168.285156 51.167969 169.171875 50.351562 Z M 216.449219 76.085938 C 214.882812 76.617188 213.953125 78.179688 214.15625 79.761719 L 188.964844 88.308594 L 188.855469 88.34375 L 168.886719 95.121094 L 160.742188 88.0625 L 190.304688 71.464844 C 191.34375 72.671875 193.125 73.023438 194.570312 72.214844 C 196.210938 71.289062 196.800781 69.199219 195.875 67.554688 C 194.953125 65.910156 192.863281 65.324219 191.21875 66.246094 C 189.773438 67.058594 189.148438 68.761719 189.636719 70.28125 L 174.191406 78.953125 L 174.714844 66.328125 L 180.851562 61.6875 C 182.042969 62.742188 183.859375 62.847656 185.179688 61.851562 C 186.679688 60.714844 186.980469 58.5625 185.84375 57.058594 C 184.707031 55.554688 182.554688 55.253906 181.046875 56.394531 C 179.730469 57.390625 179.339844 59.167969 180.03125 60.601562 L 173.640625 65.4375 C 173.480469 65.558594 173.382812 65.746094 173.375 65.949219 L 172.800781 79.734375 L 159.277344 87.328125 L 159.253906 87.339844 L 147.902344 93.714844 L 147.890625 93.722656 L 141.449219 97.339844 C 141.378906 97.203125 141.320312 97.066406 141.25 96.929688 C 140.492188 95.476562 139.636719 94.101562 138.710938 92.804688 L 161.910156 72.828125 C 162.074219 72.6875 162.160156 72.480469 162.144531 72.269531 L 161.425781 62.011719 L 168.953125 55.046875 C 170.242188 55.980469 172.058594 55.90625 173.273438 54.78125 C 174.660156 53.5 174.742188 51.332031 173.460938 49.949219 C 172.179688 48.5625 170.011719 48.480469 168.628906 49.757812 C 167.410156 50.882812 167.199219 52.691406 168.03125 54.050781 L 160.265625 61.234375 C 160.113281 61.375 160.035156 61.574219 160.046875 61.78125 L 160.765625 72.023438 L 137.894531 91.714844 C 136.839844 90.355469 135.695312 89.09375 134.46875 87.929688 L 177.136719 33.929688 L 177.183594 33.867188 C 178.605469 34.589844 180.390625 34.238281 181.414062 32.9375 C 182.585938 31.457031 182.332031 29.300781 180.851562 28.132812 C 179.371094 26.960938 177.214844 27.214844 176.046875 28.695312 C 175.019531 29.996094 175.089844 31.8125 176.125 33.027344 L 133.464844 87.011719 C 132.082031 85.792969 130.613281 84.699219 129.070312 83.734375 L 136.949219 68.203125 L 145.167969 65.484375 L 145.269531 65.441406 C 145.375 65.386719 145.46875 65.304688 145.53125 65.199219 L 156.90625 47.03125 C 158.398438 47.589844 160.132812 47.046875 161.011719 45.644531 C 162.011719 44.046875 161.527344 41.929688 159.925781 40.929688 C 158.328125 39.929688 156.210938 40.414062 155.210938 42.011719 C 154.332031 43.414062 154.601562 45.214844 155.757812 46.308594 L 144.511719 64.273438 L 137.816406 66.484375 L 154.453125 33.691406 L 154.484375 33.625 C 156.019531 34.046875 157.699219 33.347656 158.445312 31.875 C 159.300781 30.191406 158.625 28.128906 156.941406 27.273438 C 155.257812 26.421875 153.195312 27.09375 152.34375 28.777344 C 151.59375 30.253906 152.023438 32.023438 153.277344 33.011719 L 135.867188 67.335938 L 135.859375 67.34375 L 127.902344 83.035156 C 125.855469 81.859375 123.699219 80.898438 121.46875 80.164062 L 130.210938 52.402344 C 130.265625 52.230469 130.246094 52.046875 130.160156 51.886719 L 126.664062 45.175781 L 129.847656 27.820312 C 131.441406 27.792969 132.851562 26.644531 133.148438 25.019531 C 133.488281 23.164062 132.257812 21.375 130.398438 21.035156 C 128.546875 20.695312 126.757812 21.929688 126.417969 23.785156 C 126.121094 25.410156 127.03125 26.984375 128.511719 27.578125 L 125.289062 45.160156 C 125.261719 45.308594 125.285156 45.460938 125.355469 45.597656 L 128.832031 52.261719 L 120.171875 79.769531 C 118.382812 79.257812 116.550781 78.882812 114.695312 78.664062 L 120.699219 23.953125 L 120.707031 23.878906 C 122.296875 23.738281 123.621094 22.492188 123.800781 20.847656 C 123.78125 21.015625 123.765625 21.175781 123.753906 21.28125 C 123.765625 21.195312 123.777344 21.0625 123.800781 20.847656 C 124.007812 18.972656 122.648438 17.277344 120.773438 17.074219 C 118.898438 16.867188 117.207031 18.226562 117 20.101562 C 116.816406 21.742188 117.839844 23.25 119.359375 23.730469 L 115.339844 60.363281 L 110.945312 54.847656 L 111.351562 33.65625 C 112.921875 33.371094 114.128906 32.011719 114.160156 30.359375 C 114.195312 28.472656 112.691406 26.910156 110.804688 26.871094 C 108.917969 26.835938 107.355469 28.339844 107.320312 30.226562 C 107.289062 31.878906 108.441406 33.285156 109.996094 33.632812 L 109.582031 55.066406 C 109.582031 55.222656 109.632812 55.378906 109.730469 55.5 L 115.128906 62.273438 L 113.34375 78.535156 C 111.453125 78.390625 109.539062 78.398438 107.628906 78.566406 L 101.570312 11.398438 C 103.097656 10.949219 104.152344 9.460938 104.003906 7.8125 C 103.835938 5.933594 102.167969 4.542969 100.289062 4.714844 C 98.410156 4.882812 97.019531 6.550781 97.1875 8.429688 C 97.335938 10.078125 98.632812 11.347656 100.21875 11.523438 L 106.28125 78.707031 C 104.511719 78.9375 102.75 79.3125 101.007812 79.824219 L 93.101562 52.445312 L 99.304688 44.261719 C 99.429688 44.097656 99.46875 43.882812 99.421875 43.6875 L 96.847656 33.425781 C 98.289062 32.738281 99.09375 31.109375 98.695312 29.507812 L 98.675781 29.441406 L 98.695312 29.507812 C 98.234375 27.675781 96.371094 26.5625 94.542969 27.019531 C 92.714844 27.476562 91.597656 29.339844 92.054688 31.167969 C 92.457031 32.773438 93.941406 33.828125 95.535156 33.753906 L 98.027344 43.699219 L 91.816406 51.898438 C 91.6875 52.070312 91.644531 52.289062 91.703125 52.496094 L 99.710938 80.230469 C 98.058594 80.792969 96.421875 81.484375 94.824219 82.316406 C 94.722656 82.371094 94.628906 82.425781 94.527344 82.480469 L 78.804688 52.3125 L 85.863281 40.464844 C 85.964844 40.289062 85.988281 40.078125 85.917969 39.886719 L 83.214844 32.347656 C 84.578125 31.523438 85.222656 29.820312 84.664062 28.265625 L 84.644531 28.210938 L 84.664062 28.265625 C 84.027344 26.488281 82.0625 25.5625 80.289062 26.199219 C 78.511719 26.835938 77.585938 28.800781 78.222656 30.574219 C 78.78125 32.132812 80.359375 33.035156 81.9375 32.804688 L 84.535156 40.042969 L 78.066406 50.902344 L 69.878906 35.191406 C 71.121094 34.191406 71.527344 32.417969 70.761719 30.953125 C 69.890625 29.277344 67.820312 28.625 66.148438 29.5 C 64.476562 30.371094 63.824219 32.441406 64.695312 34.113281 C 65.460938 35.582031 67.144531 36.261719 68.679688 35.820312 L 84.347656 65.882812 L 73.664062 67.339844 L 60.648438 50.738281 L 60.585938 50.660156 L 44.167969 29.71875 C 45.203125 28.507812 45.277344 26.6875 44.257812 25.386719 C 43.09375 23.902344 40.9375 23.640625 39.453125 24.808594 C 37.96875 25.96875 37.710938 28.125 38.875 29.609375 C 39.894531 30.910156 41.675781 31.269531 43.101562 30.554688 L 58.46875 50.15625 L 48.867188 48.632812 L 43.730469 43.058594 C 44.667969 41.765625 44.597656 39.949219 43.476562 38.734375 C 43.523438 38.78125 43.566406 38.828125 43.609375 38.875 C 43.570312 38.832031 43.53125 38.789062 43.476562 38.730469 C 43.316406 38.558594 43.21875 38.453125 43.164062 38.390625 C 43.230469 38.464844 43.351562 38.597656 43.476562 38.730469 C 42.199219 37.34375 40.03125 37.253906 38.640625 38.53125 C 37.253906 39.8125 37.167969 41.980469 38.445312 43.367188 C 39.566406 44.585938 41.367188 44.800781 42.734375 43.976562 L 48.027344 49.726562 C 48.132812 49.839844 48.269531 49.914062 48.421875 49.9375 L 59.699219 51.726562 L 72.839844 68.480469 C 72.988281 68.671875 73.226562 68.769531 73.464844 68.734375 L 85.015625 67.160156 L 90.414062 77.519531 L 71.800781 81.027344 L 53.503906 65.757812 C 54.261719 64.355469 53.957031 62.5625 52.6875 61.503906 C 51.238281 60.292969 49.074219 60.488281 47.867188 61.9375 C 46.65625 63.386719 46.851562 65.546875 48.300781 66.757812 C 49.570312 67.816406 51.390625 67.796875 52.632812 66.796875 L 71.179688 82.273438 C 71.332031 82.402344 71.539062 82.457031 71.738281 82.417969 L 91.070312 78.777344 L 93.34375 83.140625 C 87.65625 86.464844 83.257812 91.214844 80.355469 96.695312 L 60.519531 85.746094 L 60.519531 85.71875 L 58.976562 78.988281 C 58.941406 78.824219 58.847656 78.683594 58.710938 78.585938 L 53.335938 74.75 C 53.988281 73.292969 53.546875 71.53125 52.203125 70.570312 L 52.214844 70.578125 L 52.203125 70.570312 C 52.089844 70.492188 52.007812 70.433594 51.941406 70.386719 C 52.019531 70.441406 52.109375 70.503906 52.203125 70.570312 C 50.664062 69.472656 48.527344 69.832031 47.429688 71.367188 C 46.332031 72.902344 46.691406 75.042969 48.226562 76.140625 C 49.570312 77.101562 51.382812 76.945312 52.546875 75.855469 L 57.710938 79.539062 L 58.933594 84.867188 L 43.117188 76.136719 C 42.886719 76.011719 42.605469 76.023438 42.390625 76.179688 L 36.347656 80.519531 L 29.40625 77.554688 C 29.726562 75.996094 28.917969 74.367188 27.398438 73.71875 C 27.601562 73.804688 27.800781 73.890625 27.871094 73.921875 C 27.820312 73.898438 27.6875 73.84375 27.398438 73.71875 C 27.15625 73.617188 27.023438 73.5625 26.957031 73.53125 C 27.039062 73.566406 27.214844 73.644531 27.398438 73.71875 C 25.660156 72.980469 23.648438 73.789062 22.910156 75.527344 C 22.167969 77.261719 22.980469 79.273438 24.714844 80.015625 C 26.234375 80.664062 27.972656 80.121094 28.875 78.804688 L 36.167969 81.917969 C 36.386719 82.011719 36.636719 81.980469 36.828125 81.84375 L 42.835938 77.53125 L 79.738281 97.902344 C 78.808594 99.839844 78.0625 101.859375 77.507812 103.933594 L 48.890625 95.898438 C 48.71875 95.847656 48.527344 95.875 48.375 95.960938 L 41.773438 99.664062 L 24.332031 97.023438 C 24.253906 95.433594 23.0625 94.058594 21.425781 93.8125 C 19.5625 93.527344 17.816406 94.816406 17.53125 96.683594 C 17.25 98.546875 18.539062 100.292969 20.402344 100.578125 C 22.039062 100.824219 23.582031 99.863281 24.128906 98.367188 L 41.800781 101.042969 C 41.949219 101.0625 42.101562 101.027344 42.234375 100.960938 L 48.796875 97.28125 L 77.183594 105.25 C 76.78125 107.023438 76.511719 108.828125 76.394531 110.648438 L 20.734375 106.28125 L 20.675781 106.277344 C 20.484375 104.695312 19.199219 103.414062 17.550781 103.285156 C 17.636719 103.292969 17.722656 103.296875 17.804688 103.304688 C 17.730469 103.300781 17.652344 103.292969 17.550781 103.285156 L 17.4375 103.273438 L 17.550781 103.285156 C 15.667969 103.136719 14.019531 104.546875 13.871094 106.425781 C 13.722656 108.308594 15.132812 109.960938 17.015625 110.105469 C 18.664062 110.234375 20.132812 109.167969 20.570312 107.636719 L 57.304688 110.515625 L 51.929688 115.078125 L 30.738281 115.328125 C 30.40625 113.769531 29.007812 112.605469 27.355469 112.625 C 25.46875 112.644531 23.953125 114.199219 23.976562 116.085938 C 23.996094 117.972656 25.550781 119.488281 27.4375 119.46875 C 29.089844 119.449219 30.457031 118.25 30.757812 116.6875 L 52.191406 116.433594 C 52.300781 116.429688 52.402344 116.402344 52.496094 116.355469 L 52.625 116.269531 L 59.226562 110.664062 L 76.335938 112.007812 C 76.289062 113.84375 76.390625 115.695312 76.640625 117.539062 L 8.867188 125.785156 L 8.796875 125.796875 C 8.292969 124.28125 6.777344 123.277344 5.136719 123.476562 C 3.265625 123.707031 1.925781 125.414062 2.152344 127.289062 C 2.382812 129.160156 4.089844 130.5 5.964844 130.269531 C 7.605469 130.070312 8.835938 128.730469 8.960938 127.140625 L 76.847656 118.882812 C 77.152344 120.578125 77.582031 122.265625 78.148438 123.929688 L 50.082031 132.988281 L 41.714844 127.046875 C 41.546875 126.925781 41.335938 126.890625 41.136719 126.945312 L 30.957031 129.832031 C 30.226562 128.414062 28.574219 127.660156 26.984375 128.109375 C 25.171875 128.625 24.113281 130.523438 24.628906 132.335938 C 25.140625 134.152344 27.039062 135.207031 28.851562 134.695312 C 30.445312 134.242188 31.453125 132.726562 31.328125 131.136719 L 41.195312 128.339844 L 49.574219 134.289062 C 49.746094 134.414062 49.96875 134.449219 50.175781 134.382812 L 78.621094 125.207031 C 79.082031 126.398438 79.605469 127.582031 80.210938 128.742188 C 80.453125 129.207031 80.710938 129.664062 80.972656 130.113281 L 50.398438 147.277344 L 38.335938 140.59375 C 38.160156 140.496094 37.945312 140.480469 37.757812 140.554688 L 30.304688 143.492188 C 29.4375 142.15625 27.71875 141.566406 26.179688 142.171875 C 24.425781 142.863281 23.558594 144.855469 24.25 146.609375 C 24.941406 148.363281 26.933594 149.230469 28.6875 148.535156 C 30.226562 147.929688 31.082031 146.324219 30.800781 144.757812 L 37.957031 141.9375 L 49.007812 148.058594 L 33.5625 156.730469 C 32.519531 155.523438 30.738281 155.171875 29.296875 155.980469 C 27.652344 156.90625 27.066406 158.996094 27.988281 160.640625 C 28.914062 162.285156 31.003906 162.875 32.648438 161.949219 C 34.089844 161.140625 34.71875 159.433594 34.226562 157.914062 L 50.707031 148.664062 L 50.714844 148.65625 L 50.730469 148.648438 L 63.789062 141.316406 L 65.578125 151.949219 L 49.390625 165.472656 L 49.3125 165.539062 L 28.890625 182.601562 C 27.648438 181.605469 25.828125 181.585938 24.5625 182.648438 C 23.113281 183.859375 22.917969 186.019531 24.128906 187.464844 C 25.339844 188.914062 27.5 189.109375 28.949219 187.898438 C 30.21875 186.839844 30.523438 185.042969 29.761719 183.644531 L 48.875 167.671875 L 47.652344 177.320312 L 42.238281 182.625 C 40.917969 181.730469 39.105469 181.855469 37.925781 183.011719 C 38.035156 182.902344 38.148438 182.792969 38.222656 182.722656 C 38.160156 182.78125 38.070312 182.871094 37.921875 183.011719 C 37.828125 183.105469 37.757812 183.175781 37.699219 183.234375 C 37.765625 183.167969 37.84375 183.089844 37.921875 183.011719 C 36.578125 184.332031 36.554688 186.503906 37.875 187.851562 C 39.195312 189.199219 41.367188 189.21875 42.714844 187.898438 C 43.894531 186.742188 44.054688 184.929688 43.1875 183.59375 L 48.769531 178.121094 C 48.878906 178.015625 48.949219 177.875 48.96875 177.722656 L 50.40625 166.394531 L 66.746094 152.742188 C 66.929688 152.585938 67.019531 152.347656 66.980469 152.105469 L 65.046875 140.609375 L 75.234375 134.890625 L 79.316406 153.386719 L 64.621094 172.152344 C 63.199219 171.4375 61.417969 171.800781 60.394531 173.101562 C 59.234375 174.585938 59.496094 176.742188 60.980469 177.90625 C 62.464844 179.066406 64.621094 178.804688 65.785156 177.320312 C 66.804688 176.015625 66.726562 174.199219 65.691406 172.988281 L 80.582031 153.972656 C 80.707031 153.8125 80.753906 153.605469 80.710938 153.40625 L 76.46875 134.199219 L 81.679688 131.269531 C 85.082031 136.636719 89.78125 140.777344 95.152344 143.496094 L 84.386719 164.515625 L 84.355469 164.519531 L 77.675781 166.269531 C 77.515625 166.308594 77.375 166.410156 77.285156 166.546875 L 73.617188 172.039062 C 72.140625 171.433594 70.394531 171.929688 69.472656 173.304688 C 69.578125 173.148438 69.679688 172.996094 69.734375 172.914062 C 69.6875 172.980469 69.605469 173.101562 69.472656 173.304688 L 69.398438 173.414062 L 69.472656 173.304688 C 68.425781 174.871094 68.851562 177 70.417969 178.046875 C 71.988281 179.09375 74.117188 178.671875 75.164062 177.105469 C 76.082031 175.726562 75.871094 173.921875 74.746094 172.792969 L 78.269531 167.515625 L 83.558594 166.128906 L 75.324219 182.214844 C 75.203125 182.445312 75.230469 182.726562 75.386719 182.933594 L 79.90625 188.839844 L 77.164062 195.871094 C 75.59375 195.597656 73.996094 196.457031 73.394531 197.996094 C 73.351562 198.109375 73.316406 198.199219 73.289062 198.273438 C 73.320312 198.1875 73.355469 198.09375 73.394531 197.996094 C 72.707031 199.753906 73.582031 201.742188 75.339844 202.429688 C 77.09375 203.113281 79.082031 202.242188 79.769531 200.484375 C 80.371094 198.941406 79.773438 197.222656 78.429688 196.363281 L 81.308594 188.976562 C 81.394531 188.757812 81.359375 188.507812 81.214844 188.320312 L 76.726562 182.449219 L 96.371094 144.085938 C 99.414062 145.480469 102.644531 146.425781 105.957031 146.894531 L 101.40625 189.902344 L 94.429688 192.355469 C 94.207031 192.433594 94.039062 192.625 93.992188 192.855469 L 92.363281 200.613281 C 90.769531 200.601562 89.328125 201.714844 88.988281 203.332031 C 88.601562 205.179688 89.789062 206.996094 91.636719 207.382812 C 93.480469 207.769531 95.296875 206.582031 95.6875 204.738281 L 95.640625 204.957031 C 95.652344 204.898438 95.667969 204.824219 95.6875 204.738281 C 95.703125 204.652344 95.71875 204.589844 95.730469 204.523438 L 95.6875 204.738281 C 96.027344 203.121094 95.15625 201.523438 93.691406 200.894531 L 95.242188 193.507812 L 102.257812 191.039062 C 102.507812 190.953125 102.683594 190.730469 102.707031 190.46875 L 104.609375 172.503906 L 108.277344 176.550781 L 108.339844 182.898438 C 106.78125 183.230469 105.617188 184.625 105.632812 186.277344 C 105.652344 188.164062 107.203125 189.683594 109.089844 189.664062 C 110.976562 189.644531 112.492188 188.09375 112.472656 186.207031 C 112.476562 186.324219 112.476562 186.433594 112.476562 186.527344 C 112.476562 186.445312 112.476562 186.34375 112.472656 186.207031 L 112.476562 186.195312 L 112.472656 186.207031 C 112.457031 184.554688 111.265625 183.183594 109.699219 182.882812 L 109.632812 176.28125 C 109.628906 176.117188 109.566406 175.957031 109.457031 175.832031 L 104.820312 170.714844 L 104.800781 170.699219 L 107.304688 147.0625 C 113.230469 147.664062 119.371094 146.746094 125.113281 144.097656 L 128.007812 149.648438 L 113.949219 163.40625 C 113.804688 163.550781 113.730469 163.75 113.75 163.949219 L 115.8125 188.015625 C 114.285156 188.460938 113.226562 189.941406 113.367188 191.589844 C 113.527344 193.46875 115.1875 194.867188 117.066406 194.707031 C 118.949219 194.546875 120.347656 192.886719 120.183594 191.003906 C 120.042969 189.355469 118.75 188.082031 117.164062 187.898438 L 115.128906 164.152344 L 128.664062 150.902344 L 134.0625 161.261719 L 126.15625 169.828125 C 125.992188 170.007812 125.9375 170.257812 126.003906 170.488281 L 132.214844 190.855469 L 127.222656 201.125 C 127.15625 201.261719 127.136719 201.417969 127.171875 201.566406 L 128.851562 209.199219 C 127.394531 209.847656 126.539062 211.449219 126.894531 213.066406 C 127.300781 214.910156 129.128906 216.078125 130.96875 215.671875 C 132.8125 215.265625 133.980469 213.4375 133.574219 211.59375 C 133.679688 212.054688 133.777344 212.515625 133.574219 211.59375 C 133.5625 211.53125 133.550781 211.484375 133.539062 211.433594 L 133.578125 211.59375 C 133.21875 209.980469 131.769531 208.882812 130.175781 208.910156 L 128.546875 201.507812 L 132.796875 192.761719 L 140.0625 216.585938 C 138.660156 217.34375 137.933594 219.011719 138.417969 220.59375 C 138.96875 222.398438 140.882812 223.417969 142.6875 222.867188 C 144.492188 222.316406 145.511719 220.402344 144.964844 218.597656 C 144.480469 217.015625 142.949219 216.035156 141.363281 216.191406 L 133.597656 190.738281 L 133.570312 190.640625 L 127.417969 170.464844 L 134.726562 162.542969 L 150.398438 192.605469 C 149.15625 193.609375 148.75 195.378906 149.515625 196.847656 C 150.386719 198.519531 152.457031 199.171875 154.132812 198.300781 C 155.804688 197.425781 156.453125 195.355469 155.582031 193.683594 C 154.816406 192.21875 153.132812 191.535156 151.601562 191.976562 L 143.414062 176.269531 L 156.015625 177.1875 L 160.464844 183.464844 C 159.371094 184.625 159.207031 186.433594 160.164062 187.785156 C 161.253906 189.324219 163.394531 189.6875 164.933594 188.597656 C 166.472656 187.507812 166.839844 185.367188 165.746094 183.828125 C 164.789062 182.476562 163.027344 182.03125 161.570312 182.679688 L 156.9375 176.144531 C 156.820312 175.976562 156.632812 175.871094 156.433594 175.859375 L 142.675781 174.855469 L 126.332031 143.503906 C 126.433594 143.453125 126.535156 143.40625 126.636719 143.351562 C 128.152344 142.5625 129.582031 141.671875 130.929688 140.699219 L 149.914062 164.179688 C 150.050781 164.347656 150.257812 164.441406 150.46875 164.433594 L 160.746094 164.035156 L 167.421875 171.722656 L 167.472656 171.773438 C 166.496094 173.035156 166.511719 174.855469 167.597656 176.105469 C 168.835938 177.53125 171.003906 177.679688 172.425781 176.441406 C 173.847656 175.207031 174 173.039062 172.765625 171.617188 L 172.804688 171.664062 L 172.765625 171.617188 C 171.679688 170.367188 169.882812 170.097656 168.5 170.882812 L 168.457031 170.835938 L 168.378906 170.757812 L 161.558594 162.902344 C 161.421875 162.746094 161.226562 162.660156 161.019531 162.667969 L 150.757812 163.0625 L 132.007812 139.875 C 133.371094 138.804688 134.640625 137.640625 135.804688 136.398438 L 188.378906 180.664062 C 187.617188 182.066406 187.914062 183.859375 189.179688 184.921875 C 190.621094 186.136719 192.785156 185.949219 194 184.507812 C 195.214844 183.066406 195.03125 180.902344 193.585938 179.6875 C 192.320312 178.621094 190.5 178.636719 189.253906 179.628906 L 136.714844 135.386719 C 137.917969 133.996094 139.003906 132.523438 139.960938 130.976562 L 155.316406 139.375 L 157.773438 147.679688 C 157.820312 147.832031 157.917969 147.964844 158.046875 148.050781 L 175.855469 159.988281 C 175.246094 161.460938 175.738281 163.210938 177.113281 164.132812 C 178.679688 165.183594 180.808594 164.761719 181.859375 163.195312 C 182.910156 161.628906 182.492188 159.5 180.925781 158.449219 C 179.550781 157.527344 177.746094 157.738281 176.613281 158.859375 L 159.007812 147.0625 L 157.003906 140.300781 L 189.28125 157.957031 L 189.332031 157.984375 C 188.859375 159.507812 189.507812 161.203125 190.960938 161.996094 C 192.613281 162.902344 194.699219 162.292969 195.601562 160.636719 C 196.507812 158.980469 195.898438 156.898438 194.242188 155.992188 C 194.050781 155.890625 193.933594 155.824219 193.859375 155.785156 C 193.953125 155.835938 194.09375 155.914062 194.242188 155.992188 C 192.789062 155.199219 191.011719 155.570312 189.980469 156.792969 L 140.648438 129.804688 C 141.535156 128.238281 142.300781 126.609375 142.929688 124.925781 L 171.367188 133.871094 L 174.847656 140.546875 C 174.917969 140.679688 175.027344 140.789062 175.164062 140.851562 L 191.421875 148.28125 C 191.0625 149.832031 191.828125 151.480469 193.335938 152.164062 C 195.046875 152.949219 197.082031 152.191406 197.867188 150.476562 C 198.652344 148.757812 197.890625 146.726562 196.175781 145.941406 C 194.671875 145.253906 192.921875 145.753906 191.984375 147.042969 L 175.941406 139.714844 L 172.4375 132.996094 C 172.355469 132.835938 172.214844 132.71875 172.042969 132.664062 L 143.378906 123.648438 C 144.070312 121.558594 144.558594 119.40625 144.84375 117.222656 L 189.121094 120.519531 L 191.789062 127.410156 C 191.875 127.628906 192.070312 127.792969 192.304688 127.832031 L 200.109375 129.21875 C 200.148438 130.8125 201.304688 132.21875 202.933594 132.507812 C 204.789062 132.835938 206.570312 131.59375 206.898438 129.734375 C 207.230469 127.878906 205.988281 126.101562 204.128906 125.769531 L 203.96875 125.742188 L 204.128906 125.769531 C 202.5 125.480469 200.933594 126.398438 200.347656 127.882812 L 192.914062 126.5625 L 190.234375 119.632812 C 190.136719 119.386719 189.910156 119.21875 189.652344 119.199219 L 171.628906 117.859375 L 175.566406 114.0625 L 181.90625 113.800781 C 182.285156 115.347656 183.714844 116.472656 185.371094 116.402344 C 187.253906 116.324219 188.722656 114.726562 188.644531 112.84375 C 188.570312 110.960938 186.96875 109.488281 185.089844 109.566406 C 185.285156 109.558594 185.472656 109.550781 185.566406 109.546875 C 185.492188 109.550781 185.347656 109.554688 185.089844 109.566406 C 184.898438 109.574219 184.777344 109.578125 184.691406 109.582031 C 184.796875 109.578125 184.9375 109.570312 185.085938 109.566406 C 183.433594 109.632812 182.101562 110.871094 181.851562 112.445312 L 175.253906 112.71875 C 175.085938 112.722656 174.929688 112.792969 174.808594 112.90625 L 169.839844 117.699219 L 169.820312 117.722656 L 144.992188 115.871094 C 145.511719 110.105469 144.59375 104.148438 142.046875 98.5625 L 148.0625 95.179688 L 162.25 108.800781 C 162.398438 108.9375 162.597656 109.007812 162.800781 108.984375 L 186.789062 106.171875 C 187.28125 107.6875 188.792969 108.699219 190.4375 108.507812 C 192.3125 108.285156 193.660156 106.582031 193.4375 104.710938 C 193.21875 102.835938 191.515625 101.488281 189.640625 101.710938 C 188 101.902344 186.761719 103.238281 186.628906 104.824219 L 162.960938 107.597656 L 149.296875 94.488281 L 159.488281 88.765625 L 168.289062 96.398438 C 168.472656 96.558594 168.722656 96.609375 168.953125 96.53125 L 189.117188 89.6875 L 199.535156 94.359375 C 199.675781 94.421875 199.832031 94.4375 199.980469 94.398438 L 207.558594 92.480469 C 208.25 93.917969 209.878906 94.726562 211.484375 94.316406 C 213.308594 93.855469 214.421875 91.992188 213.960938 90.164062 C 213.496094 88.335938 211.632812 87.222656 209.804688 87.683594 C 208.199219 88.089844 207.148438 89.574219 207.226562 91.167969 L 199.875 93.023438 L 191.003906 89.050781 L 214.59375 81.046875 C 215.394531 82.425781 217.082031 83.097656 218.648438 82.566406 C 220.433594 81.960938 221.394531 80.011719 220.789062 78.226562 C 220.183594 76.441406 218.238281 75.480469 216.449219 76.085938 " fill-opacity="1" fill-rule="nonzero"/></g></g></g><g clip-path="url(#77dc77ae4a)"><g clip-path="url(#a97afde16d)"><g clip-path="url(#bff5ff8e9f)"><path fill="#ffffff" d="M 204.128906 125.769531 C 204.417969 125.820312 204.558594 125.847656 204.621094 125.859375 C 204.539062 125.84375 204.335938 125.804688 204.128906 125.769531 " fill-opacity="1" fill-rule="nonzero"/></g></g></g><g clip-path="url(#6b92c5972e)"><g clip-path="url(#85dfd657fa)"><g clip-path="url(#546c236650)"><path fill="#ffffff" d="M 73.394531 197.996094 C 73.425781 197.914062 73.449219 197.855469 73.472656 197.792969 L 73.394531 197.996094 " fill-opacity="1" fill-rule="nonzero"/></g></g></g></svg>