<?xml version="1.0" encoding="UTF-8" standalone="no"?>
<!-- Created with Inkscape (http://www.inkscape.org/) -->

<svg
   width="95.746094mm"
   height="80.170128mm"
   viewBox="0 0 95.746094 80.170128"
   version="1.1"
   id="svg1"
   inkscape:version="1.3.1 (9b9bdc1480, 2023-11-25, custom)"
   sodipodi:docname="circuit-white-lower-right-corner.svg"
   xmlns:inkscape="http://www.inkscape.org/namespaces/inkscape"
   xmlns:sodipodi="http://sodipodi.sourceforge.net/DTD/sodipodi-0.dtd"
   xmlns="http://www.w3.org/2000/svg"
   xmlns:svg="http://www.w3.org/2000/svg">
  <sodipodi:namedview
     id="namedview1"
     pagecolor="#ffffff"
     bordercolor="#000000"
     borderopacity="0.25"
     inkscape:showpageshadow="2"
     inkscape:pageopacity="0.0"
     inkscape:pagecheckerboard="true"
     inkscape:deskcolor="#d1d1d1"
     inkscape:document-units="mm"
     inkscape:zoom="0.74920735"
     inkscape:cx="172.84935"
     inkscape:cy="167.51037"
     inkscape:window-width="1665"
     inkscape:window-height="1041"
     inkscape:window-x="0"
     inkscape:window-y="0"
     inkscape:window-maximized="1"
     inkscape:current-layer="layer1" />
  <defs
     id="defs1">
    <clipPath
       id="0d0069e1ec">
      <path
         d="M 916.58984,69.746094 H 1188 V 297 H 916.58984 Z m 0,0"
         clip-rule="nonzero"
         id="path198" />
    </clipPath>
  </defs>
  <g
     inkscape:label="Layer 1"
     inkscape:groupmode="layer"
     id="layer1"
     transform="translate(-59.227629,-104.20727)">
    <g
       clip-path="url(#0d0069e1ec)"
       id="g262"
       transform="matrix(0.35277777,0,0,0.35277777,-264.12627,79.602403)">
      <path
         fill="#ffffff"
         d="m 1118.7734,298.53125 c 0.6914,0.67187 1.7383,0.67187 2.4297,0 0.6758,-0.69531 0.6758,-1.74219 0,-2.43359 -0.582,-0.56641 -1.4258,-0.65625 -2.0859,-0.25782 l -19.2656,-19.26562 v -11.86328 l -18.1172,-18.1211 h -45.8594 l -10.2187,10.21485 H 919.98437 c -0.1914,-0.73828 -0.86718,-1.29297 -1.66796,-1.29297 -0.94532,0 -1.72266,0.76953 -1.72266,1.72265 0,0.94532 0.77344,1.71875 1.72266,1.71875 0.80078,0 1.47656,-0.55078 1.66796,-1.29296 h 106.02343 l 10.2149,-10.21485 h 45.1562 l 17.6172,17.6211 v 11.86328 l 19.5195,19.51562 c -0.3984,0.65625 -0.3164,1.5 0.2578,2.08594 m 73.086,-19.64453 c 0.9453,0 1.7226,-0.76953 1.7226,-1.72266 0,-0.94531 -0.7695,-1.72265 -1.7226,-1.72265 -0.8008,0 -1.4727,0.55468 -1.668,1.29687 h -53.9062 l -10.5664,-10.56641 V 242.82031 L 1088.6484,205.75 h -49.875 l -10.6367,-10.63672 h -55.9492 c -0.19141,-0.73828 -0.86719,-1.29297 -1.66797,-1.29297 -0.94531,0 -1.71875,0.76953 -1.71875,1.72266 0,0.94531 0.76953,1.71875 1.71875,1.71875 0.80078,0 1.47656,-0.55078 1.66797,-1.29297 h 55.6016 l 10.6367,10.63672 h 49.875 l 36.5703,36.57031 v 23.35156 l 11.0664,11.06641 h 54.2539 c 0.1953,0.74609 0.8672,1.29297 1.668,1.29297 z m -91.6446,-25.83594 c 0.6915,0.67188 1.7383,0.67188 2.4297,0 0.6758,-0.69531 0.6758,-1.74219 0,-2.43359 -0.582,-0.56641 -1.4257,-0.65625 -2.0859,-0.25782 l -18.1445,-18.14453 h -51.668 l -11.1992,11.19532 h -37.12503 c -0.1914,-0.73829 -0.86718,-1.29297 -1.66796,-1.29297 -0.94532,0 -1.71875,0.76953 -1.71875,1.72265 0,0.94532 0.76953,1.71875 1.71875,1.71875 0.80078,0 1.47656,-0.55078 1.66796,-1.29297 h 37.47263 l 11.1993,-11.19531 h 50.957 l 17.8906,17.89063 c -0.3828,0.66015 -0.293,1.5 0.2734,2.08984 z m -25.6289,7.20313 c 0.9454,0 1.7227,-0.76954 1.7227,-1.71875 0,-0.94532 -0.7695,-1.72266 -1.7227,-1.72266 -0.8007,0 -1.4726,0.55469 -1.6679,1.29297 h -30.6563 l -14.0508,14.05078 h -49.80465 l -7.66406,7.66406 h -36.04688 c -0.1914,-0.74219 -0.86719,-1.29297 -1.66406,-1.29297 -0.94531,0 -1.72266,0.76953 -1.72266,1.71875 0,0.94532 0.76953,1.72266 1.72266,1.72266 0.79687,0 1.47266,-0.55469 1.66406,-1.29297 h 36.40235 l 7.66406,-7.66406 h 49.80468 l 14.0508,-14.05078 h 30.3008 c 0.1953,0.74218 0.8672,1.29297 1.6679,1.29297 z m 18.875,40.68359 c 2.0157,1.99219 5.2227,1.99219 7.2422,0 1.9922,-2.01563 1.9922,-5.22656 0,-7.24219 -1.707,-1.68359 -4.25,-1.94531 -6.2187,-0.78906 l -19.1016,-19.10156 h -22.3398 l -12.4336,12.43359 h -21.4961 c -0.5703,-2.20312 -2.5821,-3.84375 -4.9531,-3.84375 -2.8165,0 -5.1172,2.30078 -5.1172,5.11719 0,2.82031 2.3007,5.11719 5.1172,5.11719 2.3789,0 4.3828,-1.63672 4.9531,-3.83985 h 22.5586 l 12.4297,-12.42969 h 20.2148 l 18.3555,18.35938 c -1.1563,1.96094 -0.8906,4.51562 0.789,6.21875 z m 98.3985,-26.96875 c 2.8164,0 5.1172,-2.30078 5.1172,-5.11719 0,-2.8164 -2.3008,-5.11719 -5.1172,-5.11719 -2.375,0 -4.3828,1.63672 -4.9531,3.83985 h -40.6719 l -6.8008,-6.80078 v -21.11328 l -45.4922,-45.49219 v -30.26172 l -22.3047,-22.30469 c 1.1563,-1.96875 0.8985,-4.51172 -0.789,-6.21875 -2.0157,-1.99219 -5.2227,-1.99219 -7.2422,0 -1.9922,2.01953 -1.9922,5.22656 0,7.24219 1.7031,1.6875 4.25,1.94531 6.2187,0.78906 l 21.5586,21.5586 v 30.26171 l 45.4922,45.49219 v 21.11328 l 8.3008,8.30078 h 41.7305 c 0.5703,2.19141 2.5781,3.82813 4.9531,3.82813 z M 1004.1797,173.58594 c -0.9453,0 -1.7227,0.76953 -1.7227,1.72265 0,0.94532 0.7696,1.72266 1.7227,1.72266 0.8008,0 1.4726,-0.55469 1.668,-1.29688 h 22.3437 l 13.6914,13.69141 h 40.2695 v -18.26562 l -15.8593,-15.86329 h -18.9883 c -0.1914,-0.73828 -0.8672,-1.29296 -1.668,-1.29296 -0.9453,0 -1.7226,0.76953 -1.7226,1.72265 0,0.94531 0.7734,1.72266 1.7226,1.72266 0.8008,0 1.4766,-0.55469 1.668,-1.29688 h 18.6328 l 15.3633,15.36328 v 17.05469 h -39.0664 l -13.6953,-13.6875 h -22.6914 c -0.1954,-0.74219 -0.8672,-1.29687 -1.668,-1.29687 z m 187.6797,85.72265 c 0.9453,0 1.7226,-0.76953 1.7226,-1.71875 0,-0.94531 -0.7695,-1.72265 -1.7226,-1.72265 -0.8008,0 -1.4727,0.55468 -1.668,1.29297 h -34.8398 l -4.2266,-4.22657 v -16.14843 l 18.7461,-18.75391 v -54.03516 l -22.3633,-22.36328 v -25.1875 c 0.7383,-0.1914 1.293,-0.86718 1.293,-1.66797 0,-0.94531 -0.7695,-1.71875 -1.7227,-1.71875 -0.9453,0 -1.7226,0.76954 -1.7226,1.71875 0,0.80079 0.5547,1.47657 1.2968,1.66797 v 25.54297 l 22.3633,22.36328 v 53.33203 l -18.7461,18.7461 v 16.85937 l 4.7305,4.73438 h 35.1914 c 0.1953,0.73437 0.8672,1.28515 1.668,1.28515 z m -28.7852,-20.94922 c -1.9922,2.01954 -1.9922,5.22657 0,7.24219 2.0156,1.99219 5.2227,1.99219 7.2422,0 1.6836,-1.70312 1.9414,-4.25 0.7891,-6.21875 l 9.539,-9.53906 v -74.64063 l -14.5898,-14.59375 v -38.40624 c 2.2031,-0.57032 3.8398,-2.582036 3.8398,-4.95313 0,-2.820312 -2.3007,-5.117188 -5.1172,-5.117188 -2.8164,0 -5.1171,2.296876 -5.1171,5.117188 0,2.375 1.6367,4.38281 3.8398,4.95313 v 39.46484 l 14.5859,14.58594 v 72.52343 l -8.789,8.78907 c -1.9727,-1.15625 -4.5274,-0.89063 -6.2227,0.79296 z m 14.6953,-97.08593 c 0,0.94531 0.7696,1.71875 1.7188,1.71875 0.9453,0 1.7226,-0.76953 1.7226,-1.71875 0,-0.80078 -0.5546,-1.47657 -1.2929,-1.66797 v -29 l 6.0781,-6.07813 V 73.066406 c 0.7422,-0.191406 1.2969,-0.867187 1.2969,-1.667968 0,-0.945313 -0.7735,-1.722657 -1.7227,-1.722657 -0.9453,0 -1.7226,0.773438 -1.7226,1.722657 0,0.800781 0.5546,1.476562 1.2929,1.667968 v 31.109374 l -6.0781,6.08203 v 29.34766 c -0.7461,0.1914 -1.293,0.86719 -1.293,1.66797 z m -35.8437,79.27343 c 0.6914,0.67579 1.7383,0.67579 2.4336,0 0.6719,-0.6914 0.6719,-1.73828 0,-2.42968 -0.586,-0.56641 -1.4297,-0.65625 -2.0899,-0.26172 l -29.6679,-29.66406 v -29.42969 l -35.5625,-35.56641 h -65.3125 c -0.1914,-0.74218 -0.8672,-1.29687 -1.668,-1.29687 -0.9453,0 -1.7188,0.77344 -1.7188,1.72265 0,0.94532 0.7696,1.72266 1.7188,1.72266 0.8008,0 1.4766,-0.55469 1.668,-1.29297 h 64.957 l 35.0625,35.0625 v 29.43359 l 29.9219,29.91797 c -0.3985,0.65625 -0.3086,1.49219 0.2578,2.08203 z m -2.2149,7.40625 c -0.6757,0.69141 -0.6757,1.73829 0,2.42969 0.6914,0.67578 1.7383,0.67578 2.4297,0 0.5664,-0.58203 0.6563,-1.42578 0.2617,-2.08594 l 16.2344,-16.23828 v -40.88672 l -23.9179,-23.91796 V 92.136719 c 0.7421,-0.191407 1.2968,-0.867188 1.2968,-1.667969 0,-0.945312 -0.7734,-1.71875 -1.7226,-1.71875 -0.9453,0 -1.7227,0.769531 -1.7227,1.71875 0,0.800781 0.5547,1.476562 1.293,1.667969 v 55.468751 l 23.918,23.91797 v 40.17968 l -15.9883,15.99219 c -0.6563,-0.39844 -1.5,-0.3164 -2.0821,0.25781 z m -8.2539,-30.25 c 0.02,3.78125 3.0469,6.80079 6.8282,6.82422 3.7773,-0.0156 6.8007,-3.04297 6.8242,-6.82422 -0.016,-3.1914 -2.1719,-5.84765 -5.1172,-6.60546 v -22.76563 l -15.6094,-15.60937 v -21.35157 c 2.9453,-0.76562 5.0977,-3.41406 5.1172,-6.60546 -0.02,-3.78125 -3.0469,-6.80079 -6.8242,-6.82813 -3.7813,0.0195 -6.8047,3.04688 -6.8281,6.82813 0.019,3.1914 2.1718,5.84374 5.1171,6.60546 v 22.76563 l 15.6094,15.60937 v 21.35157 c -2.9453,0.75781 -5.0976,3.41406 -5.1172,6.60546 z m 60.4024,91.67579 c 0.9453,0 1.7226,-0.76954 1.7226,-1.72266 0,-0.94531 -0.7695,-1.71875 -1.7226,-1.71875 -0.8008,0 -1.4727,0.55078 -1.668,1.29297 H 1129.5 l -16.5117,-16.51172 v -24.69922 l -28.336,-28.33594 h -66.0156 c -0.1914,-0.74218 -0.8672,-1.29687 -1.664,-1.29687 -0.9454,0 -1.7227,0.77344 -1.7227,1.72265 0,0.94532 0.7695,1.72266 1.7227,1.72266 0.7968,0 1.4726,-0.55469 1.664,-1.29297 h 65.668 l 27.8359,27.83594 v 24.69922 l 17.0117,17.01172 h 61.0391 c 0.1953,0.74609 0.8672,1.29297 1.668,1.29297 z m 0,0"
         fill-opacity="1"
         fill-rule="nonzero"
         id="path261" />
    </g>
  </g>
</svg>
