<?xml version="1.0" encoding="UTF-8" standalone="no"?>
<!-- Created with Inkscape (http://www.inkscape.org/) -->

<svg
   width="97.11586mm"
   height="80.758545mm"
   viewBox="0 0 97.11586 80.758545"
   version="1.1"
   id="svg1"
   inkscape:version="1.3.1 (9b9bdc1480, 2023-11-25, custom)"
   sodipodi:docname="circuit-white-upper-left-corner.svg"
   xmlns:inkscape="http://www.inkscape.org/namespaces/inkscape"
   xmlns:sodipodi="http://sodipodi.sourceforge.net/DTD/sodipodi-0.dtd"
   xmlns="http://www.w3.org/2000/svg"
   xmlns:svg="http://www.w3.org/2000/svg">
  <sodipodi:namedview
     id="namedview1"
     pagecolor="#ffffff"
     bordercolor="#000000"
     borderopacity="0.25"
     inkscape:showpageshadow="2"
     inkscape:pageopacity="0.0"
     inkscape:pagecheckerboard="true"
     inkscape:deskcolor="#d1d1d1"
     inkscape:document-units="mm"
     inkscape:zoom="1.4984147"
     inkscape:cx="208.55375"
     inkscape:cy="127.13436"
     inkscape:window-width="1665"
     inkscape:window-height="1041"
     inkscape:window-x="0"
     inkscape:window-y="0"
     inkscape:window-maximized="1"
     inkscape:current-layer="layer1" />
  <defs
     id="defs1">
    <clipPath
       id="f978c87095">
      <path
         d="M 0,0 H 275.44531 V 229 H 0 Z m 0,0"
         clip-rule="nonzero"
         id="path197" />
    </clipPath>
  </defs>
  <g
     inkscape:label="Layer 1"
     inkscape:groupmode="layer"
     id="layer1"
     transform="translate(-25.870137,-31.328553)">
    <g
       clip-path="url(#f978c87095)"
       id="g261"
       transform="matrix(0.35277777,0,0,0.35277777,25.870137,31.328553)">
      <path
         fill="#ffffff"
         d="m 68.824219,-4.777344 c -0.707031,-0.6875 -1.777344,-0.6875 -2.480469,0 -0.691406,0.707032 -0.691406,1.777344 0,2.484375 0.59375,0.578125 1.453125,0.667969 2.132812,0.261719 l 19.671876,19.671875 v 12.117187 l 18.503902,18.503907 h 46.82813 l 10.43359,-10.433594 h 107.91016 c 0.19922,0.757813 0.88672,1.324219 1.70312,1.324219 0.96485,0 1.76172,-0.789063 1.76172,-1.757813 0,-0.964843 -0.78906,-1.757812 -1.76172,-1.757812 -0.8164,0 -1.5039,0.5625 -1.70312,1.320312 H 163.55859 L 153.125,47.390625 H 107.01172 L 89.019531,29.394531 V 17.277344 L 69.089844,-2.652344 c 0.40625,-0.667968 0.320312,-1.527344 -0.265625,-2.125 M -5.8125,15.28125 c -0.964844,0 -1.757812,0.785156 -1.757812,1.757812 0,0.964844 0.789062,1.757813 1.757812,1.757813 0.820312,0 1.507812,-0.566406 1.703125,-1.320313 h 55.050781 l 10.789063,10.789063 v 23.84375 l 37.855469,37.855469 h 50.933592 l 10.86328,10.863286 h 57.13281 c 0.19532,0.75781 0.88672,1.32421 1.70313,1.32421 0.96484,0 1.75781,-0.78906 1.75781,-1.76171 0,-0.964849 -0.78515,-1.757818 -1.75781,-1.757818 -0.81641,0 -1.50781,0.566407 -1.70313,1.324219 H 161.73828 L 150.875,89.09375 H 99.945312 L 62.597656,51.746094 V 27.902344 L 51.300781,16.601562 H -4.109375 C -4.304688,15.839844 -4.992188,15.28125 -5.8125,15.28125 Z m 93.589844,26.382812 c -0.707032,-0.6875 -1.777344,-0.6875 -2.484375,0 -0.6875,0.707032 -0.6875,1.777344 0,2.484376 0.597656,0.578124 1.457031,0.671874 2.132812,0.265624 l 18.531249,18.527344 h 52.76172 l 11.43359,-11.433594 h 37.91407 c 0.19531,0.757813 0.88281,1.320313 1.70312,1.320313 0.96484,0 1.75781,-0.785156 1.75781,-1.757813 0,-0.964843 -0.78906,-1.757812 -1.75781,-1.757812 -0.82031,0 -1.50781,0.566406 -1.70312,1.324219 H 169.79687 L 158.36328,62.070312 H 106.32422 L 88.054688,43.800781 c 0.394531,-0.679687 0.300781,-1.53125 -0.277344,-2.136719 z m 26.171876,-7.355468 c -0.96484,0 -1.75781,0.785156 -1.75781,1.757812 0,0.964844 0.78515,1.757813 1.75781,1.757813 0.81641,0 1.50391,-0.566407 1.70312,-1.320313 h 31.3086 l 14.34765,-14.351562 h 50.85547 l 7.82813,-7.824219 h 36.80859 c 0.19922,0.757813 0.88672,1.320313 1.70313,1.320313 0.96484,0 1.75781,-0.785157 1.75781,-1.757813 0,-0.964844 -0.78516,-1.757813 -1.75781,-1.757813 -0.81641,0 -1.50391,0.566407 -1.70313,1.324219 h -37.17187 l -7.82813,7.824219 h -50.85547 l -14.34765,14.347656 h -30.94532 c -0.19921,-0.757812 -0.88671,-1.320312 -1.70312,-1.320312 z M 94.675781,-7.238281 c -2.058593,-2.035157 -5.335937,-2.035157 -7.394531,0 -2.035156,2.0625 -2.035156,5.335937 0,7.398437 1.738281,1.71875 4.339844,1.984375 6.347656,0.804688 L 113.13672,20.46875 h 22.8125 L 148.64453,7.773438 h 21.95313 c 0.58203,2.25 2.63671,3.921874 5.05859,3.921874 2.875,0 5.22656,-2.347656 5.22656,-5.222656 0,-2.878906 -2.35156,-5.226562 -5.22656,-5.226562 -2.42969,0 -4.47656,1.671875 -5.05859,3.921875 H 147.5625 l -12.69531,12.695312 h -20.64453 l -18.742191,-18.75 c 1.179687,-2.003906 0.910156,-4.609375 -0.804688,-6.351562 z M -5.8125,20.304688 c -2.875,0 -5.222656,2.347656 -5.222656,5.222656 0,2.878906 2.347656,5.226562 5.222656,5.226562 2.429688,0 4.476562,-1.671875 5.0625,-3.921875 h 41.53125 l 6.945312,6.945313 v 21.558594 l 46.457032,46.457032 v 30.90234 l 22.777346,22.77735 c -1.17969,2.01171 -0.91797,4.61328 0.80469,6.35156 2.05859,2.03515 5.33593,2.03515 7.39453,0 2.03515,-2.0586 2.03515,-5.33594 0,-7.39453 -1.73828,-1.72266 -4.33985,-1.98828 -6.35157,-0.80469 L 96.796875,131.60937 V 100.70703 L 50.339844,54.25 V 32.691406 L 41.863281,24.214844 H -0.75 C -1.335938,21.976562 -3.382812,20.304688 -5.8125,20.304688 Z M 185.84766,122.8125 c 0.96484,0 1.75781,-0.78906 1.75781,-1.75781 0,-0.96485 -0.78516,-1.75781 -1.75781,-1.75781 -0.81641,0 -1.50391,0.5664 -1.70313,1.32031 h -22.82031 l -13.97656,-13.98047 h -41.12891 v 18.65234 l 16.19922,16.19922 h 19.39062 c 0.19532,0.75781 0.88282,1.32031 1.70313,1.32031 0.96484,0 1.75781,-0.78515 1.75781,-1.75781 0,-0.96484 -0.78906,-1.75781 -1.75781,-1.75781 -0.82031,0 -1.50781,0.5664 -1.70313,1.32031 h -19.02734 l -15.6875,-15.6875 v -17.41406 h 39.89062 l 13.98438,13.98047 h 23.17578 c 0.19922,0.7539 0.88672,1.32031 1.70313,1.32031 z M -5.8125,35.273438 c -0.964844,0 -1.757812,0.785156 -1.757812,1.757812 0,0.964844 0.789062,1.757812 1.757812,1.757812 0.820312,0 1.507812,-0.566406 1.703125,-1.320312 h 35.582031 l 4.316406,4.3125 V 58.277344 L 16.644531,77.425781 v 55.179689 l 22.839844,22.83594 v 25.72265 c -0.757813,0.19531 -1.324219,0.88672 -1.324219,1.70313 0,0.96484 0.789063,1.75781 1.761719,1.75781 0.964844,0 1.757813,-0.78906 1.757813,-1.75781 0,-0.81641 -0.566407,-1.50782 -1.324219,-1.70313 V 155.07812 L 17.519531,132.24219 V 77.78125 L 36.660156,58.640625 V 41.421875 L 31.832031,36.589844 H -4.109375 c -0.195313,-0.75 -0.882813,-1.316406 -1.703125,-1.316406 z m 29.398438,21.390624 c 2.035156,-2.058593 2.035156,-5.335937 0,-7.394531 -2.058594,-2.035156 -5.335938,-2.035156 -7.394532,0 -1.722656,1.742188 -1.984375,4.339844 -0.804687,6.351563 l -9.746094,9.742187 v 76.222659 l 14.902344,14.90234 v 39.21875 c -2.25,0.58594 -3.921875,2.64063 -3.921875,5.0625 0,2.875 2.347656,5.22266 5.226562,5.22266 2.875,0 5.222656,-2.34766 5.222656,-5.22266 0,-2.42969 -1.671874,-4.47656 -3.921874,-5.0625 V 155.40625 L 8.253906,140.51172 V 66.453125 l 8.976563,-8.976563 c 2.015625,1.179688 4.621093,0.910157 6.355469,-0.8125 z M 8.582031,155.8125 c 0,-0.96484 -0.789062,-1.75781 -1.757812,-1.75781 -0.96875,0 -1.761719,0.78515 -1.761719,1.75781 0,0.81641 0.566406,1.50391 1.324219,1.70312 V 187.125 l -6.210938,6.21094 v 32.125 c -0.753906,0.19922 -1.320312,0.88672 -1.320312,1.70312 0,0.96485 0.785156,1.75781 1.757812,1.75781 0.964844,0 1.757813,-0.78515 1.757813,-1.75781 0,-0.8164 -0.566406,-1.5039 -1.320313,-1.70312 v -31.76953 l 6.207031,-6.20704 v -29.96875 c 0.761719,-0.19921 1.324219,-0.88671 1.324219,-1.70312 z M 45.183594,74.855469 c -0.707032,-0.6875 -1.777344,-0.6875 -2.484375,0 -0.6875,0.707031 -0.6875,1.777343 0,2.484375 0.597656,0.578125 1.457031,0.667968 2.132812,0.265625 L 75.125,107.89844 v 30.05468 l 36.32031,36.32032 h 66.69531 c 0.19532,0.7539 0.88282,1.32031 1.70313,1.32031 0.96484,0 1.75781,-0.78516 1.75781,-1.75781 0,-0.96485 -0.78906,-1.75782 -1.75781,-1.75782 -0.82031,0 -1.50781,0.56641 -1.70313,1.32032 H 111.80859 L 76,137.58984 V 107.53516 L 45.445312,76.984375 c 0.40625,-0.671875 0.316407,-1.527344 -0.261718,-2.128906 z m 2.261718,-7.5625 c 0.6875,-0.707031 0.6875,-1.773438 0,-2.480469 -0.707031,-0.691406 -1.777343,-0.691406 -2.484374,0 -0.578126,0.59375 -0.671876,1.457031 -0.265626,2.132812 L 28.117188,83.523438 v 41.753902 l 24.421874,24.42188 v 56.28906 c -0.753906,0.19531 -1.320312,0.88281 -1.320312,1.70313 0,0.96484 0.789062,1.75781 1.757812,1.75781 0.964844,0 1.757813,-0.78906 1.757813,-1.75781 0,-0.82032 -0.5625,-1.50782 -1.320313,-1.70313 V 149.34375 L 28.988281,124.92188 V 83.886719 L 45.316406,67.558594 c 0.671875,0.40625 1.53125,0.320312 2.128906,-0.265625 z m 8.425782,30.890625 c -0.01563,-3.859375 -3.109375,-6.945313 -6.96875,-6.96875 -3.863282,0.01953 -6.949219,3.109375 -6.972656,6.96875 0.01953,3.261716 2.21875,5.972656 5.226562,6.746096 v 23.25 l 15.941406,15.9414 v 21.80469 c -3.007812,0.77734 -5.207031,3.48438 -5.226562,6.74219 0.01953,3.85937 3.109375,6.94531 6.972656,6.97265 3.859375,-0.0195 6.945312,-3.11328 6.96875,-6.97265 -0.01953,-3.25781 -2.21875,-5.96875 -5.226562,-6.74219 v -23.25 l -15.9375,-15.9414 v -21.80469 c 3.003906,-0.77344 5.207031,-3.48438 5.222656,-6.746096 z M -5.8125,4.566406 c -0.964844,0 -1.757812,0.785156 -1.757812,1.757813 0,0.964843 0.789062,1.757812 1.757812,1.757812 0.820312,0 1.507812,-0.566406 1.703125,-1.320312 H 57.871094 L 74.734375,23.625 V 48.847656 L 103.66797,77.78125 h 67.41406 c 0.19531,0.757812 0.88672,1.324219 1.70313,1.324219 0.96484,0 1.75781,-0.789063 1.75781,-1.761719 0,-0.964844 -0.78516,-1.757812 -1.75781,-1.757812 -0.81641,0 -1.50782,0.566406 -1.70313,1.324218 H 104.02734 L 75.601562,48.484375 V 23.261719 l -17.375,-17.375 H -4.109375 C -4.304688,5.125 -4.992188,4.566406 -5.8125,4.566406 Z m 0,0"
         fill-opacity="1"
         fill-rule="nonzero"
         id="path260" />
    </g>
  </g>
</svg>
